<mxfile host="Electron" modified="2024-04-15T15:35:04.254Z" agent="Mozilla/5.0 (Windows NT 10.0; Win64; x64) AppleWebKit/537.36 (KHTML, like Gecko) draw.io/24.1.0 Chrome/120.0.6099.109 Electron/28.1.0 Safari/537.36" etag="GmBJhA6aT2i7nvhxggXD" version="24.1.0" type="device" pages="3">
  <diagram name="AS-IS Func Crear Empresa" id="51P0g5ZiBHhD5L3UvZqT">
    <mxGraphModel dx="1600" dy="760" grid="1" gridSize="10" guides="1" tooltips="1" connect="1" arrows="1" fold="1" page="1" pageScale="1" pageWidth="1169" pageHeight="827" math="0" shadow="0">
      <root>
        <mxCell id="P8LdbRYG4RanE4J6KreI-0" />
        <mxCell id="P8LdbRYG4RanE4J6KreI-1" parent="P8LdbRYG4RanE4J6KreI-0" />
        <mxCell id="lOH2p2V7Jwmndq-zFDAR-51" value="" style="rounded=0;whiteSpace=wrap;html=1;fillColor=#ffe6cc;strokeColor=#d79b00;" parent="P8LdbRYG4RanE4J6KreI-1" vertex="1">
          <mxGeometry x="440" y="580" width="2680" height="110" as="geometry" />
        </mxCell>
        <mxCell id="lOH2p2V7Jwmndq-zFDAR-27" value="" style="rounded=0;whiteSpace=wrap;html=1;fillColor=#d5e8d4;strokeColor=#82b366;" parent="P8LdbRYG4RanE4J6KreI-1" vertex="1">
          <mxGeometry x="240" y="210" width="2920" height="320" as="geometry" />
        </mxCell>
        <mxCell id="lOH2p2V7Jwmndq-zFDAR-2" value="" style="edgeStyle=orthogonalEdgeStyle;rounded=0;orthogonalLoop=1;jettySize=auto;html=1;" parent="P8LdbRYG4RanE4J6KreI-1" source="P8LdbRYG4RanE4J6KreI-2" target="lOH2p2V7Jwmndq-zFDAR-1" edge="1">
          <mxGeometry relative="1" as="geometry" />
        </mxCell>
        <mxCell id="P8LdbRYG4RanE4J6KreI-2" value="Crear Empresa" style="rounded=1;whiteSpace=wrap;html=1;fontSize=12;glass=0;strokeWidth=1;shadow=0;" parent="P8LdbRYG4RanE4J6KreI-1" vertex="1">
          <mxGeometry x="284" y="281" width="120" height="40" as="geometry" />
        </mxCell>
        <mxCell id="P8LdbRYG4RanE4J6KreI-3" style="edgeStyle=orthogonalEdgeStyle;rounded=0;orthogonalLoop=1;jettySize=auto;html=1;entryX=0.5;entryY=0;entryDx=0;entryDy=0;exitX=0.5;exitY=1;exitDx=0;exitDy=0;" parent="P8LdbRYG4RanE4J6KreI-1" source="lOH2p2V7Jwmndq-zFDAR-1" target="P8LdbRYG4RanE4J6KreI-6" edge="1">
          <mxGeometry relative="1" as="geometry">
            <mxPoint x="344" y="615" as="targetPoint" />
            <mxPoint x="344" y="475" as="sourcePoint" />
          </mxGeometry>
        </mxCell>
        <mxCell id="lOH2p2V7Jwmndq-zFDAR-20" style="edgeStyle=orthogonalEdgeStyle;rounded=0;orthogonalLoop=1;jettySize=auto;html=1;" parent="P8LdbRYG4RanE4J6KreI-1" source="P8LdbRYG4RanE4J6KreI-6" target="lOH2p2V7Jwmndq-zFDAR-8" edge="1">
          <mxGeometry relative="1" as="geometry">
            <mxPoint x="660" y="605" as="targetPoint" />
          </mxGeometry>
        </mxCell>
        <mxCell id="P8LdbRYG4RanE4J6KreI-6" value="Consultar&amp;nbsp;&lt;div&gt;Cliente / Entidad&lt;/div&gt;" style="rounded=1;whiteSpace=wrap;html=1;fontSize=12;glass=0;strokeWidth=1;shadow=0;" parent="P8LdbRYG4RanE4J6KreI-1" vertex="1">
          <mxGeometry x="484" y="614" width="120" height="50" as="geometry" />
        </mxCell>
        <mxCell id="P8LdbRYG4RanE4J6KreI-7" style="edgeStyle=orthogonalEdgeStyle;rounded=0;orthogonalLoop=1;jettySize=auto;html=1;exitX=0.5;exitY=0;exitDx=0;exitDy=0;entryX=0.5;entryY=0;entryDx=0;entryDy=0;" parent="P8LdbRYG4RanE4J6KreI-1" source="P8LdbRYG4RanE4J6KreI-8" target="lOH2p2V7Jwmndq-zFDAR-1" edge="1">
          <mxGeometry relative="1" as="geometry">
            <Array as="points">
              <mxPoint x="818" y="250" />
              <mxPoint x="544" y="250" />
            </Array>
          </mxGeometry>
        </mxCell>
        <mxCell id="P8LdbRYG4RanE4J6KreI-8" value="Mostrar mensaje&lt;br&gt;error" style="rounded=1;whiteSpace=wrap;html=1;fontSize=12;glass=0;strokeWidth=1;shadow=0;" parent="P8LdbRYG4RanE4J6KreI-1" vertex="1">
          <mxGeometry x="758" y="281" width="120" height="40" as="geometry" />
        </mxCell>
        <mxCell id="P8LdbRYG4RanE4J6KreI-24" style="edgeStyle=orthogonalEdgeStyle;rounded=0;orthogonalLoop=1;jettySize=auto;html=1;exitX=0.5;exitY=0;exitDx=0;exitDy=0;entryX=0.5;entryY=1;entryDx=0;entryDy=0;" parent="P8LdbRYG4RanE4J6KreI-1" source="lOH2p2V7Jwmndq-zFDAR-48" target="P8LdbRYG4RanE4J6KreI-28" edge="1">
          <mxGeometry relative="1" as="geometry">
            <mxPoint x="2980" y="1140" as="sourcePoint" />
            <mxPoint x="3110" y="180" as="targetPoint" />
          </mxGeometry>
        </mxCell>
        <mxCell id="P8LdbRYG4RanE4J6KreI-25" style="edgeStyle=orthogonalEdgeStyle;rounded=0;orthogonalLoop=1;jettySize=auto;html=1;" parent="P8LdbRYG4RanE4J6KreI-1" source="P8LdbRYG4RanE4J6KreI-26" target="P8LdbRYG4RanE4J6KreI-2" edge="1">
          <mxGeometry relative="1" as="geometry" />
        </mxCell>
        <mxCell id="P8LdbRYG4RanE4J6KreI-26" value="Inicio" style="ellipse;whiteSpace=wrap;html=1;aspect=fixed;fillColor=#dae8fc;strokeColor=#6c8ebf;" parent="P8LdbRYG4RanE4J6KreI-1" vertex="1">
          <mxGeometry x="80" y="276" width="50" height="50" as="geometry" />
        </mxCell>
        <mxCell id="P8LdbRYG4RanE4J6KreI-28" value="Fin" style="ellipse;whiteSpace=wrap;html=1;aspect=fixed;fillColor=#dae8fc;strokeColor=#6c8ebf;" parent="P8LdbRYG4RanE4J6KreI-1" vertex="1">
          <mxGeometry x="3045" y="110" width="50" height="50" as="geometry" />
        </mxCell>
        <mxCell id="lOH2p2V7Jwmndq-zFDAR-28" style="edgeStyle=orthogonalEdgeStyle;rounded=0;orthogonalLoop=1;jettySize=auto;html=1;" parent="P8LdbRYG4RanE4J6KreI-1" source="P8LdbRYG4RanE4J6KreI-30" target="P8LdbRYG4RanE4J6KreI-47" edge="1">
          <mxGeometry relative="1" as="geometry" />
        </mxCell>
        <mxCell id="P8LdbRYG4RanE4J6KreI-30" value="Consultar&lt;br style=&quot;border-color: var(--border-color);&quot;&gt;Estado Entidad" style="rounded=1;whiteSpace=wrap;html=1;fontSize=12;glass=0;strokeWidth=1;shadow=0;" parent="P8LdbRYG4RanE4J6KreI-1" vertex="1">
          <mxGeometry x="928" y="614" width="120" height="50" as="geometry" />
        </mxCell>
        <mxCell id="P8LdbRYG4RanE4J6KreI-43" style="edgeStyle=orthogonalEdgeStyle;rounded=0;orthogonalLoop=1;jettySize=auto;html=1;" parent="P8LdbRYG4RanE4J6KreI-1" source="P8LdbRYG4RanE4J6KreI-47" target="P8LdbRYG4RanE4J6KreI-49" edge="1">
          <mxGeometry relative="1" as="geometry" />
        </mxCell>
        <mxCell id="P8LdbRYG4RanE4J6KreI-44" value="No" style="edgeLabel;html=1;align=center;verticalAlign=middle;resizable=0;points=[];" parent="P8LdbRYG4RanE4J6KreI-43" vertex="1" connectable="0">
          <mxGeometry x="-0.2615" y="4" relative="1" as="geometry">
            <mxPoint as="offset" />
          </mxGeometry>
        </mxCell>
        <mxCell id="JL7aaR_ctJcbqUzvQbfR-0" style="edgeStyle=orthogonalEdgeStyle;rounded=0;orthogonalLoop=1;jettySize=auto;html=1;entryX=1;entryY=0.5;entryDx=0;entryDy=0;" edge="1" parent="P8LdbRYG4RanE4J6KreI-1" source="P8LdbRYG4RanE4J6KreI-47" target="P8LdbRYG4RanE4J6KreI-8">
          <mxGeometry relative="1" as="geometry">
            <Array as="points">
              <mxPoint x="1118" y="301" />
            </Array>
          </mxGeometry>
        </mxCell>
        <mxCell id="JL7aaR_ctJcbqUzvQbfR-1" value="Si" style="edgeLabel;html=1;align=center;verticalAlign=middle;resizable=0;points=[];" vertex="1" connectable="0" parent="JL7aaR_ctJcbqUzvQbfR-0">
          <mxGeometry x="-0.9044" y="-1" relative="1" as="geometry">
            <mxPoint as="offset" />
          </mxGeometry>
        </mxCell>
        <mxCell id="P8LdbRYG4RanE4J6KreI-47" value="Existe&lt;br&gt;Entidad&lt;br&gt;activa?" style="rhombus;whiteSpace=wrap;html=1;rounded=1;glass=0;strokeWidth=1;shadow=0;" parent="P8LdbRYG4RanE4J6KreI-1" vertex="1">
          <mxGeometry x="1078" y="420" width="80" height="80" as="geometry" />
        </mxCell>
        <mxCell id="lOH2p2V7Jwmndq-zFDAR-29" style="edgeStyle=orthogonalEdgeStyle;rounded=0;orthogonalLoop=1;jettySize=auto;html=1;" parent="P8LdbRYG4RanE4J6KreI-1" source="P8LdbRYG4RanE4J6KreI-49" target="P8LdbRYG4RanE4J6KreI-79" edge="1">
          <mxGeometry relative="1" as="geometry" />
        </mxCell>
        <mxCell id="P8LdbRYG4RanE4J6KreI-49" value="Mostrar pantalla&lt;br&gt;Registrar Empresa" style="rounded=1;whiteSpace=wrap;html=1;fontSize=12;glass=0;strokeWidth=1;shadow=0;" parent="P8LdbRYG4RanE4J6KreI-1" vertex="1">
          <mxGeometry x="1238" y="435" width="120" height="50" as="geometry" />
        </mxCell>
        <mxCell id="lOH2p2V7Jwmndq-zFDAR-30" style="edgeStyle=orthogonalEdgeStyle;rounded=0;orthogonalLoop=1;jettySize=auto;html=1;" parent="P8LdbRYG4RanE4J6KreI-1" source="P8LdbRYG4RanE4J6KreI-79" target="P8LdbRYG4RanE4J6KreI-83" edge="1">
          <mxGeometry relative="1" as="geometry" />
        </mxCell>
        <mxCell id="P8LdbRYG4RanE4J6KreI-79" value="Ingresar datos&lt;br&gt;de registro" style="rounded=1;whiteSpace=wrap;html=1;fontSize=12;glass=0;strokeWidth=1;shadow=0;" parent="P8LdbRYG4RanE4J6KreI-1" vertex="1">
          <mxGeometry x="1393" y="435" width="120" height="50" as="geometry" />
        </mxCell>
        <mxCell id="P8LdbRYG4RanE4J6KreI-80" style="edgeStyle=orthogonalEdgeStyle;rounded=0;orthogonalLoop=1;jettySize=auto;html=1;" parent="P8LdbRYG4RanE4J6KreI-1" source="P8LdbRYG4RanE4J6KreI-81" target="P8LdbRYG4RanE4J6KreI-79" edge="1">
          <mxGeometry relative="1" as="geometry" />
        </mxCell>
        <mxCell id="P8LdbRYG4RanE4J6KreI-81" value="&lt;h6&gt;&lt;/h6&gt;&lt;h6 style=&quot;text-align: justify;&quot;&gt;&lt;span style=&quot;background-color: initial; font-size: 11px;&quot;&gt;Datos de Registro:&lt;/span&gt;&lt;br&gt;&lt;/h6&gt;&lt;h6 style=&quot;text-align: justify;&quot;&gt;&lt;ol&gt;&lt;li style=&quot;border-color: var(--border-color);&quot;&gt;&lt;font style=&quot;font-size: 8px; font-weight: normal;&quot; face=&quot;Helvetica&quot;&gt;Nombre Entidad&lt;/font&gt;&lt;/li&gt;&lt;li style=&quot;border-color: var(--border-color);&quot;&gt;&lt;font face=&quot;Helvetica&quot; style=&quot;font-size: 8px; font-weight: normal;&quot;&gt;Id usuario Admin&lt;/font&gt;&lt;/li&gt;&lt;li style=&quot;border-color: var(--border-color);&quot;&gt;&lt;font style=&quot;font-size: 8px; font-weight: normal;&quot; face=&quot;Helvetica&quot;&gt;Cuenta Cargo&lt;/font&gt;&lt;/li&gt;&lt;li style=&quot;border-color: var(--border-color);&quot;&gt;&lt;font style=&quot;font-size: 8px; font-weight: normal;&quot; face=&quot;Helvetica&quot;&gt;Dirección e-mail&lt;/font&gt;&lt;/li&gt;&lt;li style=&quot;border-color: var(--border-color);&quot;&gt;&lt;font face=&quot;Helvetica&quot; style=&quot;font-size: 8px; font-weight: normal;&quot;&gt;Nombres y Apellidos&lt;/font&gt;&lt;/li&gt;&lt;li style=&quot;border-color: var(--border-color);&quot;&gt;&lt;font face=&quot;Helvetica&quot; style=&quot;font-size: 8px; font-weight: normal;&quot;&gt;Número de documento&lt;/font&gt;&lt;/li&gt;&lt;li style=&quot;border-color: var(--border-color);&quot;&gt;&lt;font face=&quot;Helvetica&quot; style=&quot;font-size: 8px; font-weight: normal;&quot;&gt;Versión (Consulta / Full)&lt;/font&gt;&lt;/li&gt;&lt;li style=&quot;border-color: var(--border-color);&quot;&gt;&lt;font style=&quot;font-size: 8px; font-weight: normal;&quot;&gt;Tipo token (Físico / Digital)&lt;/font&gt;&lt;/li&gt;&lt;/ol&gt;&lt;/h6&gt;&lt;p&gt;&lt;/p&gt;" style="strokeWidth=1;shadow=0;dashed=0;align=center;html=1;shape=mxgraph.mockup.text.stickyNote2;fontColor=#666666;mainText=;fontSize=17;whiteSpace=wrap;fillColor=#ffffcc;strokeColor=#F62E00;" parent="P8LdbRYG4RanE4J6KreI-1" vertex="1">
          <mxGeometry x="1310" y="239" width="165" height="160" as="geometry" />
        </mxCell>
        <mxCell id="P8LdbRYG4RanE4J6KreI-82" style="edgeStyle=orthogonalEdgeStyle;rounded=0;orthogonalLoop=1;jettySize=auto;html=1;" parent="P8LdbRYG4RanE4J6KreI-1" source="P8LdbRYG4RanE4J6KreI-83" target="P8LdbRYG4RanE4J6KreI-85" edge="1">
          <mxGeometry relative="1" as="geometry" />
        </mxCell>
        <mxCell id="P8LdbRYG4RanE4J6KreI-83" value="Procesar Guardar" style="rounded=1;whiteSpace=wrap;html=1;fontSize=12;glass=0;strokeWidth=1;shadow=0;" parent="P8LdbRYG4RanE4J6KreI-1" vertex="1">
          <mxGeometry x="1567.5" y="435" width="120" height="50" as="geometry" />
        </mxCell>
        <mxCell id="lOH2p2V7Jwmndq-zFDAR-31" style="edgeStyle=orthogonalEdgeStyle;rounded=0;orthogonalLoop=1;jettySize=auto;html=1;entryX=0;entryY=0.5;entryDx=0;entryDy=0;" parent="P8LdbRYG4RanE4J6KreI-1" source="P8LdbRYG4RanE4J6KreI-85" target="P8LdbRYG4RanE4J6KreI-90" edge="1">
          <mxGeometry relative="1" as="geometry" />
        </mxCell>
        <mxCell id="P8LdbRYG4RanE4J6KreI-85" value="Consultar&lt;br style=&quot;border-color: var(--border-color);&quot;&gt;Entidad" style="rounded=1;whiteSpace=wrap;html=1;fontSize=12;glass=0;strokeWidth=1;shadow=0;" parent="P8LdbRYG4RanE4J6KreI-1" vertex="1">
          <mxGeometry x="1567.5" y="614" width="120" height="50" as="geometry" />
        </mxCell>
        <mxCell id="P8LdbRYG4RanE4J6KreI-88" style="edgeStyle=orthogonalEdgeStyle;rounded=0;orthogonalLoop=1;jettySize=auto;html=1;" parent="P8LdbRYG4RanE4J6KreI-1" source="P8LdbRYG4RanE4J6KreI-90" target="P8LdbRYG4RanE4J6KreI-98" edge="1">
          <mxGeometry relative="1" as="geometry" />
        </mxCell>
        <mxCell id="P8LdbRYG4RanE4J6KreI-89" value="No" style="edgeLabel;html=1;align=center;verticalAlign=middle;resizable=0;points=[];" parent="P8LdbRYG4RanE4J6KreI-88" vertex="1" connectable="0">
          <mxGeometry x="-0.3421" y="2" relative="1" as="geometry">
            <mxPoint as="offset" />
          </mxGeometry>
        </mxCell>
        <mxCell id="lOH2p2V7Jwmndq-zFDAR-44" style="edgeStyle=orthogonalEdgeStyle;rounded=0;orthogonalLoop=1;jettySize=auto;html=1;entryX=0;entryY=0.5;entryDx=0;entryDy=0;exitX=0.5;exitY=0;exitDx=0;exitDy=0;" parent="P8LdbRYG4RanE4J6KreI-1" source="P8LdbRYG4RanE4J6KreI-90" target="P8LdbRYG4RanE4J6KreI-92" edge="1">
          <mxGeometry relative="1" as="geometry" />
        </mxCell>
        <mxCell id="lOH2p2V7Jwmndq-zFDAR-45" value="Si" style="edgeLabel;html=1;align=center;verticalAlign=middle;resizable=0;points=[];" parent="lOH2p2V7Jwmndq-zFDAR-44" vertex="1" connectable="0">
          <mxGeometry x="-0.766" y="1" relative="1" as="geometry">
            <mxPoint as="offset" />
          </mxGeometry>
        </mxCell>
        <mxCell id="P8LdbRYG4RanE4J6KreI-90" value="Existe &lt;br&gt;entidad Activa?" style="rhombus;whiteSpace=wrap;html=1;rounded=1;glass=0;strokeWidth=1;shadow=0;" parent="P8LdbRYG4RanE4J6KreI-1" vertex="1">
          <mxGeometry x="1778" y="420" width="80" height="80" as="geometry" />
        </mxCell>
        <mxCell id="lOH2p2V7Jwmndq-zFDAR-35" style="edgeStyle=orthogonalEdgeStyle;rounded=0;orthogonalLoop=1;jettySize=auto;html=1;exitX=0.5;exitY=0;exitDx=0;exitDy=0;entryX=0.75;entryY=0;entryDx=0;entryDy=0;" parent="P8LdbRYG4RanE4J6KreI-1" source="P8LdbRYG4RanE4J6KreI-92" target="P8LdbRYG4RanE4J6KreI-79" edge="1">
          <mxGeometry relative="1" as="geometry" />
        </mxCell>
        <mxCell id="P8LdbRYG4RanE4J6KreI-92" value="Mostrar mensaje&lt;br&gt;&lt;div&gt;error&lt;/div&gt;" style="rounded=1;whiteSpace=wrap;html=1;fontSize=12;glass=0;strokeWidth=1;shadow=0;" parent="P8LdbRYG4RanE4J6KreI-1" vertex="1">
          <mxGeometry x="1888" y="276" width="120" height="40" as="geometry" />
        </mxCell>
        <mxCell id="lOH2p2V7Jwmndq-zFDAR-33" style="edgeStyle=orthogonalEdgeStyle;rounded=0;orthogonalLoop=1;jettySize=auto;html=1;" parent="P8LdbRYG4RanE4J6KreI-1" source="P8LdbRYG4RanE4J6KreI-98" target="P8LdbRYG4RanE4J6KreI-92" edge="1">
          <mxGeometry relative="1" as="geometry" />
        </mxCell>
        <mxCell id="lOH2p2V7Jwmndq-zFDAR-34" value="Si" style="edgeLabel;html=1;align=center;verticalAlign=middle;resizable=0;points=[];" parent="lOH2p2V7Jwmndq-zFDAR-33" vertex="1" connectable="0">
          <mxGeometry x="-0.3317" relative="1" as="geometry">
            <mxPoint y="13" as="offset" />
          </mxGeometry>
        </mxCell>
        <mxCell id="lOH2p2V7Jwmndq-zFDAR-36" style="edgeStyle=orthogonalEdgeStyle;rounded=0;orthogonalLoop=1;jettySize=auto;html=1;" parent="P8LdbRYG4RanE4J6KreI-1" source="P8LdbRYG4RanE4J6KreI-98" target="P8LdbRYG4RanE4J6KreI-103" edge="1">
          <mxGeometry relative="1" as="geometry" />
        </mxCell>
        <mxCell id="lOH2p2V7Jwmndq-zFDAR-37" value="No" style="edgeLabel;html=1;align=center;verticalAlign=middle;resizable=0;points=[];" parent="lOH2p2V7Jwmndq-zFDAR-36" vertex="1" connectable="0">
          <mxGeometry x="-0.3805" relative="1" as="geometry">
            <mxPoint as="offset" />
          </mxGeometry>
        </mxCell>
        <mxCell id="P8LdbRYG4RanE4J6KreI-98" value="Nombre&lt;div&gt;entidad&lt;br&gt;&lt;div&gt;duplicado?&lt;/div&gt;&lt;/div&gt;" style="rhombus;whiteSpace=wrap;html=1;rounded=1;glass=0;strokeWidth=1;shadow=0;" parent="P8LdbRYG4RanE4J6KreI-1" vertex="1">
          <mxGeometry x="1908" y="420" width="80" height="80" as="geometry" />
        </mxCell>
        <mxCell id="lOH2p2V7Jwmndq-zFDAR-38" style="edgeStyle=orthogonalEdgeStyle;rounded=0;orthogonalLoop=1;jettySize=auto;html=1;entryX=0.5;entryY=0;entryDx=0;entryDy=0;" parent="P8LdbRYG4RanE4J6KreI-1" source="P8LdbRYG4RanE4J6KreI-103" target="P8LdbRYG4RanE4J6KreI-107" edge="1">
          <mxGeometry relative="1" as="geometry">
            <Array as="points">
              <mxPoint x="2088" y="540" />
              <mxPoint x="2170" y="540" />
            </Array>
          </mxGeometry>
        </mxCell>
        <mxCell id="lOH2p2V7Jwmndq-zFDAR-42" value="No" style="edgeLabel;html=1;align=center;verticalAlign=middle;resizable=0;points=[];" parent="lOH2p2V7Jwmndq-zFDAR-38" vertex="1" connectable="0">
          <mxGeometry x="-0.8071" y="-1" relative="1" as="geometry">
            <mxPoint as="offset" />
          </mxGeometry>
        </mxCell>
        <mxCell id="lOH2p2V7Jwmndq-zFDAR-39" style="edgeStyle=orthogonalEdgeStyle;rounded=0;orthogonalLoop=1;jettySize=auto;html=1;" parent="P8LdbRYG4RanE4J6KreI-1" source="P8LdbRYG4RanE4J6KreI-103" target="P8LdbRYG4RanE4J6KreI-105" edge="1">
          <mxGeometry relative="1" as="geometry" />
        </mxCell>
        <mxCell id="JL7aaR_ctJcbqUzvQbfR-2" value="Si" style="edgeLabel;html=1;align=center;verticalAlign=middle;resizable=0;points=[];" vertex="1" connectable="0" parent="lOH2p2V7Jwmndq-zFDAR-39">
          <mxGeometry x="-0.3211" y="-1" relative="1" as="geometry">
            <mxPoint x="-1" y="-4" as="offset" />
          </mxGeometry>
        </mxCell>
        <mxCell id="P8LdbRYG4RanE4J6KreI-103" value="Es token&lt;br&gt;Digital?" style="rhombus;whiteSpace=wrap;html=1;rounded=1;glass=0;strokeWidth=1;shadow=0;" parent="P8LdbRYG4RanE4J6KreI-1" vertex="1">
          <mxGeometry x="2048" y="420" width="80" height="80" as="geometry" />
        </mxCell>
        <mxCell id="P8LdbRYG4RanE4J6KreI-104" style="edgeStyle=orthogonalEdgeStyle;rounded=0;orthogonalLoop=1;jettySize=auto;html=1;entryX=0;entryY=0;entryDx=0;entryDy=0;" parent="P8LdbRYG4RanE4J6KreI-1" source="P8LdbRYG4RanE4J6KreI-105" target="P8LdbRYG4RanE4J6KreI-112" edge="1">
          <mxGeometry relative="1" as="geometry" />
        </mxCell>
        <mxCell id="P8LdbRYG4RanE4J6KreI-105" value="Validar Documento&lt;br&gt;Identidad" style="rounded=1;whiteSpace=wrap;html=1;fontSize=12;glass=0;strokeWidth=1;shadow=0;" parent="P8LdbRYG4RanE4J6KreI-1" vertex="1">
          <mxGeometry x="2028" y="316" width="120" height="50" as="geometry" />
        </mxCell>
        <mxCell id="lOH2p2V7Jwmndq-zFDAR-46" style="edgeStyle=orthogonalEdgeStyle;rounded=0;orthogonalLoop=1;jettySize=auto;html=1;" parent="P8LdbRYG4RanE4J6KreI-1" source="P8LdbRYG4RanE4J6KreI-107" target="P8LdbRYG4RanE4J6KreI-120" edge="1">
          <mxGeometry relative="1" as="geometry" />
        </mxCell>
        <mxCell id="P8LdbRYG4RanE4J6KreI-107" value="Registrar Entidad" style="rounded=1;whiteSpace=wrap;html=1;fontSize=12;glass=0;strokeWidth=1;shadow=0;" parent="P8LdbRYG4RanE4J6KreI-1" vertex="1">
          <mxGeometry x="2110" y="614" width="120" height="50" as="geometry" />
        </mxCell>
        <mxCell id="P8LdbRYG4RanE4J6KreI-108" style="edgeStyle=orthogonalEdgeStyle;rounded=0;orthogonalLoop=1;jettySize=auto;html=1;entryX=1;entryY=0.5;entryDx=0;entryDy=0;exitX=1;exitY=0;exitDx=0;exitDy=0;" parent="P8LdbRYG4RanE4J6KreI-1" source="P8LdbRYG4RanE4J6KreI-112" target="P8LdbRYG4RanE4J6KreI-92" edge="1">
          <mxGeometry relative="1" as="geometry">
            <Array as="points">
              <mxPoint x="2268" y="296" />
            </Array>
            <mxPoint x="2338" y="180" as="targetPoint" />
          </mxGeometry>
        </mxCell>
        <mxCell id="P8LdbRYG4RanE4J6KreI-109" value="Si" style="edgeLabel;html=1;align=center;verticalAlign=middle;resizable=0;points=[];" parent="P8LdbRYG4RanE4J6KreI-108" vertex="1" connectable="0">
          <mxGeometry x="-0.9234" relative="1" as="geometry">
            <mxPoint as="offset" />
          </mxGeometry>
        </mxCell>
        <mxCell id="lOH2p2V7Jwmndq-zFDAR-41" style="edgeStyle=orthogonalEdgeStyle;rounded=0;orthogonalLoop=1;jettySize=auto;html=1;exitX=0.513;exitY=0.954;exitDx=0;exitDy=0;exitPerimeter=0;entryX=0.5;entryY=0;entryDx=0;entryDy=0;" parent="P8LdbRYG4RanE4J6KreI-1" source="P8LdbRYG4RanE4J6KreI-112" target="P8LdbRYG4RanE4J6KreI-107" edge="1">
          <mxGeometry relative="1" as="geometry">
            <mxPoint x="2170" y="570" as="targetPoint" />
            <Array as="points">
              <mxPoint x="2249" y="540" />
              <mxPoint x="2170" y="540" />
            </Array>
          </mxGeometry>
        </mxCell>
        <mxCell id="lOH2p2V7Jwmndq-zFDAR-43" value="No" style="edgeLabel;html=1;align=center;verticalAlign=middle;resizable=0;points=[];" parent="lOH2p2V7Jwmndq-zFDAR-41" vertex="1" connectable="0">
          <mxGeometry x="-0.9006" y="1" relative="1" as="geometry">
            <mxPoint as="offset" />
          </mxGeometry>
        </mxCell>
        <mxCell id="P8LdbRYG4RanE4J6KreI-112" value="Num. Doc&lt;br&gt;duplicado?" style="rhombus;whiteSpace=wrap;html=1;rounded=1;glass=0;strokeWidth=1;shadow=0;" parent="P8LdbRYG4RanE4J6KreI-1" vertex="1">
          <mxGeometry x="2208" y="420" width="80" height="80" as="geometry" />
        </mxCell>
        <mxCell id="lOH2p2V7Jwmndq-zFDAR-47" style="edgeStyle=orthogonalEdgeStyle;rounded=0;orthogonalLoop=1;jettySize=auto;html=1;" parent="P8LdbRYG4RanE4J6KreI-1" source="P8LdbRYG4RanE4J6KreI-120" target="P8LdbRYG4RanE4J6KreI-126" edge="1">
          <mxGeometry relative="1" as="geometry" />
        </mxCell>
        <mxCell id="P8LdbRYG4RanE4J6KreI-120" value="Registrar&lt;br&gt;Entidad" style="rounded=1;whiteSpace=wrap;html=1;fontSize=12;glass=0;strokeWidth=1;shadow=0;" parent="P8LdbRYG4RanE4J6KreI-1" vertex="1">
          <mxGeometry x="2361" y="430" width="120" height="60" as="geometry" />
        </mxCell>
        <mxCell id="P8LdbRYG4RanE4J6KreI-125" value="" style="edgeStyle=orthogonalEdgeStyle;rounded=0;orthogonalLoop=1;jettySize=auto;html=1;" parent="P8LdbRYG4RanE4J6KreI-1" source="P8LdbRYG4RanE4J6KreI-126" target="P8LdbRYG4RanE4J6KreI-128" edge="1">
          <mxGeometry relative="1" as="geometry" />
        </mxCell>
        <mxCell id="P8LdbRYG4RanE4J6KreI-126" value="Generar Clave&amp;nbsp;&lt;br&gt;temporal" style="rounded=1;whiteSpace=wrap;html=1;fontSize=12;glass=0;strokeWidth=1;shadow=0;" parent="P8LdbRYG4RanE4J6KreI-1" vertex="1">
          <mxGeometry x="2530" y="430" width="120" height="60" as="geometry" />
        </mxCell>
        <mxCell id="P8LdbRYG4RanE4J6KreI-127" value="" style="edgeStyle=orthogonalEdgeStyle;rounded=0;orthogonalLoop=1;jettySize=auto;html=1;" parent="P8LdbRYG4RanE4J6KreI-1" source="P8LdbRYG4RanE4J6KreI-128" target="P8LdbRYG4RanE4J6KreI-130" edge="1">
          <mxGeometry relative="1" as="geometry" />
        </mxCell>
        <mxCell id="P8LdbRYG4RanE4J6KreI-128" value="Registrar&lt;br style=&quot;border-color: var(--border-color);&quot;&gt;Usuario" style="rounded=1;whiteSpace=wrap;html=1;fontSize=12;glass=0;strokeWidth=1;shadow=0;" parent="P8LdbRYG4RanE4J6KreI-1" vertex="1">
          <mxGeometry x="2700" y="430" width="120" height="60" as="geometry" />
        </mxCell>
        <mxCell id="P8LdbRYG4RanE4J6KreI-130" value="Enviar correo&lt;div&gt;Registro Usuario&lt;br&gt;&lt;/div&gt;" style="rounded=1;whiteSpace=wrap;html=1;fontSize=12;glass=0;strokeWidth=1;shadow=0;" parent="P8LdbRYG4RanE4J6KreI-1" vertex="1">
          <mxGeometry x="2870" y="430" width="120" height="60" as="geometry" />
        </mxCell>
        <mxCell id="P8LdbRYG4RanE4J6KreI-131" value="" style="edgeStyle=orthogonalEdgeStyle;rounded=0;orthogonalLoop=1;jettySize=auto;html=1;exitX=0.5;exitY=1;exitDx=0;exitDy=0;" parent="P8LdbRYG4RanE4J6KreI-1" source="P8LdbRYG4RanE4J6KreI-130" target="P8LdbRYG4RanE4J6KreI-133" edge="1">
          <mxGeometry relative="1" as="geometry">
            <mxPoint x="2980" y="1010" as="sourcePoint" />
          </mxGeometry>
        </mxCell>
        <mxCell id="lOH2p2V7Jwmndq-zFDAR-49" value="" style="edgeStyle=orthogonalEdgeStyle;rounded=0;orthogonalLoop=1;jettySize=auto;html=1;" parent="P8LdbRYG4RanE4J6KreI-1" source="P8LdbRYG4RanE4J6KreI-133" target="lOH2p2V7Jwmndq-zFDAR-48" edge="1">
          <mxGeometry relative="1" as="geometry" />
        </mxCell>
        <mxCell id="P8LdbRYG4RanE4J6KreI-133" value="Ejecutar Programa&lt;br&gt;ESS1007RI.PGM" style="rounded=1;whiteSpace=wrap;html=1;fontSize=12;glass=0;strokeWidth=1;shadow=0;" parent="P8LdbRYG4RanE4J6KreI-1" vertex="1">
          <mxGeometry x="2870" y="604" width="120" height="60" as="geometry" />
        </mxCell>
        <mxCell id="lOH2p2V7Jwmndq-zFDAR-0" value="" style="group" parent="P8LdbRYG4RanE4J6KreI-1" vertex="1" connectable="0">
          <mxGeometry x="610" y="281" width="67.20000000000005" height="76" as="geometry" />
        </mxCell>
        <mxCell id="P8LdbRYG4RanE4J6KreI-4" value="&lt;h6&gt;&lt;font style=&quot;font-size: 6px;&quot;&gt;&lt;font style=&quot;&quot;&gt;Consulta por:&lt;/font&gt;&lt;/font&gt;&lt;br&gt;&lt;/h6&gt;&lt;p&gt;&lt;/p&gt;" style="strokeWidth=1;shadow=0;dashed=0;align=center;html=1;shape=mxgraph.mockup.text.stickyNote2;fontColor=#666666;mainText=;fontSize=17;whiteSpace=wrap;fillColor=#ffffcc;strokeColor=#F62E00;" parent="lOH2p2V7Jwmndq-zFDAR-0" vertex="1">
          <mxGeometry width="66" height="40" as="geometry" />
        </mxCell>
        <mxCell id="P8LdbRYG4RanE4J6KreI-42" value="" style="shape=image;verticalLabelPosition=bottom;labelBackgroundColor=default;verticalAlign=top;aspect=fixed;imageAspect=0;image=data:image/png,iVBORw0KGgoAAAANSUhEUgAAAHAAAAA8CAYAAAC+ej5cAAAM9klEQVR4Ae1cbVMUxxbev+G/EyGkKt9SqYgIhsofEIMQyqqb3LySiBgERaPRJOu6rICuilEREREU3yHggiug59Zzus/M6Z7ZFXDxruVQ1c5s9+nz8jx9unvH3kndvXuXkvL+YpBKyHt/yQN3AYE0doRe3+hNSpVjAJ500qWmpqYIhcl7/ZpelymvXr2ipGwtBuXw57YbvcyX8BYQ+Op67xvJWVtbo6RsLQZvTJDrHoF37twhFBAYJecCdXz0EX1kS13nCK2urtoyQh11dVQnpbmfZqRtpCOst+0dI6qfll319NR10IjoWV2lkU5lo24P9c+IHu860097xJe6OtrTN2P8RL3jt+k307eHjE8z1N+sbZh7buM4ov50jMT3qUNcnh8GH1eHYPj777/Ts2fPFKbGN9SdOnUqho815kk4wzUlH9au/+YpGqF2BmyFVlZMGf4awEzTysowtdfVUftw2Dbdt4cQwDRkh9utnLRDHuDj8zC1ixzrkXorO9we6IG9uq+HA/srDI4nD3tc307D1s+VlWkmhf1Dm9ZhZeCv8R+yuq/4bONo3uP4AJ903JFYS9gTDOV6+vRpHuS7d++mJ0+eBDHiHnUg/s8///Q4WSXwJJwFBE5OTtLqtcOBkpcvX9LLoXZqPnKXcF8sFt0ytJ+ae6fcumKRhjpqaf9QkYox7VO9zbbPEO1vOkJTxSKFdZ5+thfKOfaH9lNtx5BjG3rYru8nPt89Qs2ePPSFfaboSNN+Gorra+MI4tIxirwfawl7TgzFIpO2c+dOqq2tpcbGRv4M8nAvdU+fPmX8wYEQD57Al5CYwofbt2/Ty6s9Dll3epto//kX9OLFC1peXnbK5G9N1JZz6yAT1OfaqOm3SafPclCXo7bdvTS5vEy59lqlJ0dttbXsfG1tG+Xu9FJTe87VAT9i6nPtTdR7J+oP+x0j7/i6PEm9u8WuXNsoB1vaZ/gU8VnLWPuwF8Rh9cXFsbxMs7Oz1NDQwDGDTCEUdY8ePWLsgb+Qz4l1tYf5Am8oKZA3MTFBxdFDLIgOTNrgV7T7sCFhaWmJTBmkbLZAhew+auyZoEKh4JRs2w7aV6J9oqfR9snSvl2HaaJQoLBO65mgw7v2UbYQyjl2svtoR1vWsQs9bFf7cztL2dsFKtw+TI2ePPSFfcSe9sHe6zit3SBGsaVlUFfCnhOD9C0U6N69e/T555/Tjh07uIBE1OmkEU6YyNFDzBd4Q0ndunWLUF5c6Q46gawCAKxppJ6J5/T8+XNaXFykzFc1VPNVhhYXM9RaU0OtmUWuR9v4oV1U09BD44uLtJhppV2HxoM2I7+Lem5BPkOtIsd6pN7qutVDu2paKePY022ePOypPvBlcXGcehpqjA9oY5+tDm43/hr/IWvsmb5KzouD4/fijsRawl5Et/UD9dPT0/Tpp5/SZ599xvfAG0VIBx9CKHgSzpB4qfHxcbp58yYtXT7IWYZOQtjCQoZat2+n7VJa0zQ/P29LmvZKPa47u2lM2tJ7wz4s00DdN1U/LTvv6dm+l9KiZ36e0q3K/natR/TZ681ualD+NBwcM3569Yhlb3qexg428HV+foy6d2ob5p77p/dSoId9Mr6if4CDLxNjb3s5v22sIAPr2r///stlYWGBUECwkMmz4OWDzBd4A5EpkDc2NkaFS7+yIDpBiTg4NzfHW11sbbGoJmVrMQDOKMBdOAAf4IWJvPQr8wXeQGIK5F2/fp0WL/7CxAlhQhR2Ro8fP+aChRXl4cOHSakwBoKtYA3chQMhlIm88AvzBd5AYgrk/fPPPzQ/8jM9G/qJnuR+oMeD39PD7Hf04Nx3NJv5L90/+y2Xe+lv6V76G5pJSsUxAK7AV7AG7sAfPDwa/J4e536gp+d/pLnhn+jq1at07do1zsQUblCBBRS7IdnOJlezra8mHMAPeLp8+TKNjo4yiSlk35UrV5g8Sv6qHgGQeOHCBbp06RInXgpM4gNGWvJX/QiAp/PnzwckppB9Fy9eLE1gvpPqvxigWR1bvpNajjk1lD9QT535WRr4op7q670i/R8MUItuO5DXWolgq0Q79Dtt9fXGB9bZQgMPQlWzx1qsf3H+uLJERqbTcSWmn8RgzcCG9sftH/pS6TsQePjkD9R/pouOn+2mFOZTpGR8BiKQFuo80EKOgyUJVO76MjFAMylCYsxAQbsMlPwBH3hrC3q/aKEWBbBLYCc53MCO2IQK/txJnaq/IdXtx4TZfnzvyOepsx4DWMW/RbfgCbtPfGe8f/8+pTB9Dg8PxxMIcOC0XMUpnxzgwBkoAgYYAR+1CDoaoBkgAw/kqvp7t2UJPJBn/WJvIwSKXrkas/DHJZAIJKEuro0MRg6pXgAV+ggCsfHEYzQ8ckvl8/mSBGpSnAA3QaDTXwVj6gUc26CnUjvqOVv19FpvMzIYXOEgcAn0p15FDGevXR4CPfAhjiSpy3vZKsGUqpf2ylxBIPYt+BKPR3AprH9YFKNTqJkW9DwvIxzTTnBv/dJkc5Uns6kMVKCWGgDO7GAJyTtrYEiY7yN80vHVc4bBeyFLgy6DLK7t3WYglj18kcexipIEhqNYgpAArLNBsGhXbYG4RzLAlayxMpxVsh7FrIEMcJCBZdZA0WGnapBiBpgPNj6LnqjPYcx+P7MEyNrJfjnTJXS9uzUQs+aNGzcMgdjA5HI5LwN1oMKICUIyj4NQU1pkffMykLUwiWpKU8Bzu546oVu1R6dQ266y1HgK30sRqAYfb178XYeQanQ42al8gZ03xm+cqfi/mClBIJ6g8f/IxxNYcbuJwgohAAKx7DkEDg4OehlYIWuJmoojIARiJxpkYEJgxXHeMoUJgVsG7btRXJbAbR+PUlKqG4OEwPd8kG6QwDka1zPDgzknQ7vUA2SiNcp029Hb/ZwWdD8iWhibDfp2PVCyH89SZkkL67ZR2ubr8nzQM4brT5G6LFmuPcmwORpfek5fQsa3we6Y/qzTsQlM0OZhIyFAtow+7e9m7jdAIBx0wUQwQkQkMHbayuPeCdqQNJ414IWAuvUcEOux4GudARn4LucOJPTTvrGebJHIEhTaE/Jw9QiM0Wn0rtHCEpH4zv2YwFDXl2Nrqt0OiBL62Le3mAVA4PeHvqZf+v9Dvad+pBS+B8ou1FGeLQZkOfVsXAWvnQFocDxC4ChtkzYG2xKt6qI2RikCDNsC6e7AcsjQ/tj7tyUw0y1ZZ4n/PxM4MDBAOJp/7ty50gTGg2dHXRxBAEvq5arBVHUCKGxIRm9zplJDkMj55EbqlW5fFp8j8uyXGoToL1OgXG0GBX2DwabJNHhEsCqjL86/jdQhA9dFIDImBFemiznq4mlQBa9JkiDjAJU2Daiq00EIaBFg2Nb6M7Ara6Za0adtOFkb56+NS/fFND2eXSeBWziFro9AXqTdqUqve/qegeFRZ+UjgLhrXQiKW28AVmuv1hkAuoE10E51oT0ZiLiqQRjxN5Rz+8I3/IUbJPgcGWhl9LmDKLSz3vr1ZyADJg7becUbVUyiTDl6w8PABw18E24C/CnNkBhKu4MmsqPzfNCBu/6EILv1ZDc3HoGhA/auxDSOWWM9BJbQp/3dzP0GCdz4CNmMU0mf9eOcEGin4vd10CQEJgSuP93f11FezX5HMnAgfZCOnP45+f/AyKajOitAYMknMdXpcuKVRiCSgfpRmhbk017qzAufDwkO8kQP/bB80O6fGZGDRI6F5MMmEIglMHqoyR7+8Q7yhMfyyhPIB350Xz7MFB7v24TfSReLgBB45swZ8yx0IN1NfWe6omtg5LSXPn1djsCYtgT+iiHAa2BPJ/169BvzvxElD/b6RwCdY34xJEGep9B3c0K5Yoi8Z4pA4PHjx/klQNlstvTBXufEc+TgbjkCY9pwjjKPXxUkf2+LAAg8ceJESCAOiQ4NDb15Cg0yzLiA9VAO+aIG6558jl8Dk43M25KH/kLgX3/9xf+PW/rXSTFroEuMOU4enF5WO1AhNGjzjtRXIpAPVQcIxEvyQCA2n0zgyMhINAM/VISqPG4QePLkSfr7778NgeV/4Fnl0XyA7oFAvIoynU7zr8re/BPrDxCkag5ZCDx79izvXfglB/gqgddXJH/VjwB4woGmTCbDP8zl14xgGv3kk0+YRDCclOrEAOSBJ2xg8B0Qj0EDApGF2NUgNfGYBgslvm8cO3aMjh49Sv39/UHp6+ujpFQWA40v8EYB9jjAhC/u4AJrH97ii/UPXIEzftWWvCsGu1GcEQWJEESqohPIRMH2NSlbi4FgjSuw/+OPP5gHJBV2nuAGHIErzJz8sjv81kxIxBsr8Jt5HBqFMNhGRxSkblK2FgPBGrijgAOsd+ADxIEbkIcHMHhFGr9uEr+31iQiNSGEJzTogIKUTcq7wUAwB/4oSCrwgTUPxCHzkHD4le7/AH8y/MPoKa6WAAAAAElFTkSuQmCC;" parent="lOH2p2V7Jwmndq-zFDAR-0" vertex="1">
          <mxGeometry y="40" width="67.2" height="36" as="geometry" />
        </mxCell>
        <mxCell id="lOH2p2V7Jwmndq-zFDAR-1" value="Buscar Cliente" style="rounded=1;whiteSpace=wrap;html=1;fontSize=12;glass=0;strokeWidth=1;shadow=0;" parent="P8LdbRYG4RanE4J6KreI-1" vertex="1">
          <mxGeometry x="484" y="281" width="120" height="40" as="geometry" />
        </mxCell>
        <mxCell id="lOH2p2V7Jwmndq-zFDAR-18" style="edgeStyle=orthogonalEdgeStyle;rounded=0;orthogonalLoop=1;jettySize=auto;html=1;exitX=0.5;exitY=0;exitDx=0;exitDy=0;" parent="P8LdbRYG4RanE4J6KreI-1" source="lOH2p2V7Jwmndq-zFDAR-8" target="P8LdbRYG4RanE4J6KreI-8" edge="1">
          <mxGeometry relative="1" as="geometry" />
        </mxCell>
        <mxCell id="lOH2p2V7Jwmndq-zFDAR-19" value="Si" style="edgeLabel;html=1;align=center;verticalAlign=middle;resizable=0;points=[];" parent="lOH2p2V7Jwmndq-zFDAR-18" vertex="1" connectable="0">
          <mxGeometry x="-0.2616" relative="1" as="geometry">
            <mxPoint as="offset" />
          </mxGeometry>
        </mxCell>
        <mxCell id="lOH2p2V7Jwmndq-zFDAR-25" style="edgeStyle=orthogonalEdgeStyle;rounded=0;orthogonalLoop=1;jettySize=auto;html=1;" parent="P8LdbRYG4RanE4J6KreI-1" source="lOH2p2V7Jwmndq-zFDAR-8" target="P8LdbRYG4RanE4J6KreI-30" edge="1">
          <mxGeometry relative="1" as="geometry" />
        </mxCell>
        <mxCell id="lOH2p2V7Jwmndq-zFDAR-26" value="No" style="edgeLabel;html=1;align=center;verticalAlign=middle;resizable=0;points=[];" parent="lOH2p2V7Jwmndq-zFDAR-25" vertex="1" connectable="0">
          <mxGeometry x="-0.7533" relative="1" as="geometry">
            <mxPoint as="offset" />
          </mxGeometry>
        </mxCell>
        <mxCell id="lOH2p2V7Jwmndq-zFDAR-8" value="Datos&lt;div&gt;inválidos?&lt;/div&gt;" style="rhombus;whiteSpace=wrap;html=1;rounded=1;glass=0;strokeWidth=1;shadow=0;" parent="P8LdbRYG4RanE4J6KreI-1" vertex="1">
          <mxGeometry x="778" y="420" width="80" height="80" as="geometry" />
        </mxCell>
        <mxCell id="lOH2p2V7Jwmndq-zFDAR-48" value="Mostrar mensaje&lt;br&gt;&lt;div&gt;éxito&lt;/div&gt;" style="rounded=1;whiteSpace=wrap;html=1;fontSize=12;glass=0;strokeWidth=1;shadow=0;" parent="P8LdbRYG4RanE4J6KreI-1" vertex="1">
          <mxGeometry x="3010" y="281" width="120" height="40" as="geometry" />
        </mxCell>
        <mxCell id="lOH2p2V7Jwmndq-zFDAR-52" value="&lt;font size=&quot;1&quot; style=&quot;&quot;&gt;&lt;b style=&quot;font-size: 25px;&quot;&gt;IBS&lt;/b&gt;&lt;/font&gt;" style="shape=parallelogram;perimeter=parallelogramPerimeter;whiteSpace=wrap;html=1;fixedSize=1;fillColor=#ffe6cc;strokeColor=#d79b00;" parent="P8LdbRYG4RanE4J6KreI-1" vertex="1">
          <mxGeometry x="320" y="630" width="120" height="60" as="geometry" />
        </mxCell>
        <mxCell id="lOH2p2V7Jwmndq-zFDAR-53" value="&lt;font size=&quot;1&quot; style=&quot;&quot;&gt;&lt;b style=&quot;font-size: 25px;&quot;&gt;AdminBPI&lt;/b&gt;&lt;/font&gt;" style="shape=parallelogram;perimeter=parallelogramPerimeter;whiteSpace=wrap;html=1;fixedSize=1;fillColor=#d5e8d4;strokeColor=#82b366;" parent="P8LdbRYG4RanE4J6KreI-1" vertex="1">
          <mxGeometry x="80" y="470" width="160" height="60" as="geometry" />
        </mxCell>
      </root>
    </mxGraphModel>
  </diagram>
  <diagram id="C5RBs43oDa-KdzZeNtuy" name="AS-IS Crear Empresa">
    <mxGraphModel dx="2868" dy="1688" grid="1" gridSize="10" guides="1" tooltips="1" connect="1" arrows="1" fold="1" page="1" pageScale="1" pageWidth="827" pageHeight="1169" math="0" shadow="0">
      <root>
        <mxCell id="WIyWlLk6GJQsqaUBKTNV-0" />
        <mxCell id="WIyWlLk6GJQsqaUBKTNV-1" parent="WIyWlLk6GJQsqaUBKTNV-0" />
        <mxCell id="WIyWlLk6GJQsqaUBKTNV-3" value="Crear Empresa" style="rounded=1;whiteSpace=wrap;html=1;fontSize=12;glass=0;strokeWidth=1;shadow=0;" parent="WIyWlLk6GJQsqaUBKTNV-1" vertex="1">
          <mxGeometry x="484" y="39" width="120" height="40" as="geometry" />
        </mxCell>
        <mxCell id="C6ZICYi5UXpA8mwjiI_Q-6" style="edgeStyle=orthogonalEdgeStyle;rounded=0;orthogonalLoop=1;jettySize=auto;html=1;entryX=0.5;entryY=0;entryDx=0;entryDy=0;" parent="WIyWlLk6GJQsqaUBKTNV-1" source="WIyWlLk6GJQsqaUBKTNV-3" target="C6ZICYi5UXpA8mwjiI_Q-7" edge="1">
          <mxGeometry relative="1" as="geometry">
            <mxPoint x="544" y="409" as="targetPoint" />
            <mxPoint x="544" y="269" as="sourcePoint" />
          </mxGeometry>
        </mxCell>
        <mxCell id="C6ZICYi5UXpA8mwjiI_Q-5" value="&lt;h6&gt;&lt;font style=&quot;font-size: 6px;&quot;&gt;&lt;font style=&quot;&quot;&gt;Consulta por:&lt;/font&gt;&lt;/font&gt;&lt;br&gt;&lt;/h6&gt;&lt;p&gt;&lt;/p&gt;" style="strokeWidth=1;shadow=0;dashed=0;align=center;html=1;shape=mxgraph.mockup.text.stickyNote2;fontColor=#666666;mainText=;fontSize=17;whiteSpace=wrap;fillColor=#ffffcc;strokeColor=#F62E00;" parent="WIyWlLk6GJQsqaUBKTNV-1" vertex="1">
          <mxGeometry x="610" y="120" width="66" height="40" as="geometry" />
        </mxCell>
        <mxCell id="C6ZICYi5UXpA8mwjiI_Q-57" value="" style="edgeStyle=orthogonalEdgeStyle;rounded=0;orthogonalLoop=1;jettySize=auto;html=1;" parent="WIyWlLk6GJQsqaUBKTNV-1" source="C6ZICYi5UXpA8mwjiI_Q-7" target="C6ZICYi5UXpA8mwjiI_Q-56" edge="1">
          <mxGeometry relative="1" as="geometry" />
        </mxCell>
        <mxCell id="C6ZICYi5UXpA8mwjiI_Q-7" value="Consultar / Validar&lt;br&gt;Cliente&lt;br&gt;(AS-400)" style="rounded=1;whiteSpace=wrap;html=1;fontSize=12;glass=0;strokeWidth=1;shadow=0;" parent="WIyWlLk6GJQsqaUBKTNV-1" vertex="1">
          <mxGeometry x="484" y="135" width="120" height="50" as="geometry" />
        </mxCell>
        <mxCell id="5wmdt2vZX--WFt-d1MJV-2" style="edgeStyle=orthogonalEdgeStyle;rounded=0;orthogonalLoop=1;jettySize=auto;html=1;" parent="WIyWlLk6GJQsqaUBKTNV-1" source="C6ZICYi5UXpA8mwjiI_Q-10" target="5wmdt2vZX--WFt-d1MJV-1" edge="1">
          <mxGeometry relative="1" as="geometry" />
        </mxCell>
        <mxCell id="C6ZICYi5UXpA8mwjiI_Q-10" value="Mostrar mensaje&lt;br&gt;al usuario" style="rounded=1;whiteSpace=wrap;html=1;fontSize=12;glass=0;strokeWidth=1;shadow=0;" parent="WIyWlLk6GJQsqaUBKTNV-1" vertex="1">
          <mxGeometry x="200" y="660" width="120" height="40" as="geometry" />
        </mxCell>
        <mxCell id="C6ZICYi5UXpA8mwjiI_Q-32" style="edgeStyle=orthogonalEdgeStyle;rounded=0;orthogonalLoop=1;jettySize=auto;html=1;entryX=0.5;entryY=0;entryDx=0;entryDy=0;exitX=0.5;exitY=1;exitDx=0;exitDy=0;" parent="WIyWlLk6GJQsqaUBKTNV-1" source="C6ZICYi5UXpA8mwjiI_Q-56" target="C6ZICYi5UXpA8mwjiI_Q-31" edge="1">
          <mxGeometry relative="1" as="geometry" />
        </mxCell>
        <mxCell id="C6ZICYi5UXpA8mwjiI_Q-34" style="edgeStyle=orthogonalEdgeStyle;rounded=0;orthogonalLoop=1;jettySize=auto;html=1;exitX=0.5;exitY=1;exitDx=0;exitDy=0;" parent="WIyWlLk6GJQsqaUBKTNV-1" source="5wmdt2vZX--WFt-d1MJV-6" target="C6ZICYi5UXpA8mwjiI_Q-33" edge="1">
          <mxGeometry relative="1" as="geometry" />
        </mxCell>
        <mxCell id="5wmdt2vZX--WFt-d1MJV-7" style="edgeStyle=orthogonalEdgeStyle;rounded=0;orthogonalLoop=1;jettySize=auto;html=1;" parent="WIyWlLk6GJQsqaUBKTNV-1" source="C6ZICYi5UXpA8mwjiI_Q-31" target="5wmdt2vZX--WFt-d1MJV-6" edge="1">
          <mxGeometry relative="1" as="geometry" />
        </mxCell>
        <mxCell id="C6ZICYi5UXpA8mwjiI_Q-31" value="Obtener &lt;br&gt;Cuentas de Cliente&lt;br&gt;(AS-400)" style="rounded=1;whiteSpace=wrap;html=1;fontSize=12;glass=0;strokeWidth=1;shadow=0;" parent="WIyWlLk6GJQsqaUBKTNV-1" vertex="1">
          <mxGeometry x="484" y="350" width="120" height="50" as="geometry" />
        </mxCell>
        <mxCell id="C6ZICYi5UXpA8mwjiI_Q-38" style="edgeStyle=orthogonalEdgeStyle;rounded=0;orthogonalLoop=1;jettySize=auto;html=1;" parent="WIyWlLk6GJQsqaUBKTNV-1" source="5wmdt2vZX--WFt-d1MJV-10" target="C6ZICYi5UXpA8mwjiI_Q-35" edge="1">
          <mxGeometry relative="1" as="geometry" />
        </mxCell>
        <mxCell id="5wmdt2vZX--WFt-d1MJV-11" style="edgeStyle=orthogonalEdgeStyle;rounded=0;orthogonalLoop=1;jettySize=auto;html=1;" parent="WIyWlLk6GJQsqaUBKTNV-1" source="C6ZICYi5UXpA8mwjiI_Q-33" target="5wmdt2vZX--WFt-d1MJV-10" edge="1">
          <mxGeometry relative="1" as="geometry" />
        </mxCell>
        <mxCell id="C6ZICYi5UXpA8mwjiI_Q-33" value="Obtener&lt;br style=&quot;border-color: var(--border-color);&quot;&gt;Funcionario&lt;br style=&quot;border-color: var(--border-color);&quot;&gt;(AS-400)" style="rounded=1;whiteSpace=wrap;html=1;fontSize=12;glass=0;strokeWidth=1;shadow=0;" parent="WIyWlLk6GJQsqaUBKTNV-1" vertex="1">
          <mxGeometry x="484" y="560" width="120" height="50" as="geometry" />
        </mxCell>
        <mxCell id="5wmdt2vZX--WFt-d1MJV-15" style="edgeStyle=orthogonalEdgeStyle;rounded=0;orthogonalLoop=1;jettySize=auto;html=1;" parent="WIyWlLk6GJQsqaUBKTNV-1" source="C6ZICYi5UXpA8mwjiI_Q-35" target="5wmdt2vZX--WFt-d1MJV-14" edge="1">
          <mxGeometry relative="1" as="geometry" />
        </mxCell>
        <mxCell id="C6ZICYi5UXpA8mwjiI_Q-35" value="Obtener&lt;br style=&quot;border-color: var(--border-color);&quot;&gt;Agencia&lt;br style=&quot;border-color: var(--border-color);&quot;&gt;(AS-400)" style="rounded=1;whiteSpace=wrap;html=1;fontSize=12;glass=0;strokeWidth=1;shadow=0;" parent="WIyWlLk6GJQsqaUBKTNV-1" vertex="1">
          <mxGeometry x="484" y="760" width="120" height="50" as="geometry" />
        </mxCell>
        <mxCell id="5wmdt2vZX--WFt-d1MJV-5" value="" style="edgeStyle=orthogonalEdgeStyle;rounded=0;orthogonalLoop=1;jettySize=auto;html=1;" parent="WIyWlLk6GJQsqaUBKTNV-1" source="C6ZICYi5UXpA8mwjiI_Q-40" target="5wmdt2vZX--WFt-d1MJV-4" edge="1">
          <mxGeometry relative="1" as="geometry" />
        </mxCell>
        <mxCell id="C6ZICYi5UXpA8mwjiI_Q-40" value="Obtener&lt;br style=&quot;border-color: var(--border-color);&quot;&gt;Entidades&lt;br style=&quot;border-color: var(--border-color);&quot;&gt;(AS-400)" style="rounded=1;whiteSpace=wrap;html=1;fontSize=12;glass=0;strokeWidth=1;shadow=0;" parent="WIyWlLk6GJQsqaUBKTNV-1" vertex="1">
          <mxGeometry x="660" y="855" width="120" height="50" as="geometry" />
        </mxCell>
        <mxCell id="5wmdt2vZX--WFt-d1MJV-0" style="edgeStyle=orthogonalEdgeStyle;rounded=0;orthogonalLoop=1;jettySize=auto;html=1;" parent="WIyWlLk6GJQsqaUBKTNV-1" source="C6ZICYi5UXpA8mwjiI_Q-56" target="C6ZICYi5UXpA8mwjiI_Q-10" edge="1">
          <mxGeometry relative="1" as="geometry" />
        </mxCell>
        <mxCell id="5wmdt2vZX--WFt-d1MJV-3" value="No" style="edgeLabel;html=1;align=center;verticalAlign=middle;resizable=0;points=[];" parent="5wmdt2vZX--WFt-d1MJV-0" vertex="1" connectable="0">
          <mxGeometry x="-0.0275" y="1" relative="1" as="geometry">
            <mxPoint x="164" y="-64" as="offset" />
          </mxGeometry>
        </mxCell>
        <mxCell id="C6ZICYi5UXpA8mwjiI_Q-56" value="Existe&amp;nbsp;&lt;br&gt;Cliente&lt;br&gt;IBS?" style="rhombus;whiteSpace=wrap;html=1;rounded=1;glass=0;strokeWidth=1;shadow=0;" parent="WIyWlLk6GJQsqaUBKTNV-1" vertex="1">
          <mxGeometry x="504" y="230" width="80" height="80" as="geometry" />
        </mxCell>
        <mxCell id="C6ZICYi5UXpA8mwjiI_Q-79" value="Mostrar pantalla&lt;br&gt;modificación" style="whiteSpace=wrap;html=1;rounded=1;glass=0;strokeWidth=1;shadow=0;" parent="WIyWlLk6GJQsqaUBKTNV-1" vertex="1">
          <mxGeometry x="1290.5" y="1575" width="119.5" height="50" as="geometry" />
        </mxCell>
        <mxCell id="XWnqWUd7AE8T0z90GCnD-3" style="edgeStyle=orthogonalEdgeStyle;rounded=0;orthogonalLoop=1;jettySize=auto;html=1;" parent="WIyWlLk6GJQsqaUBKTNV-1" source="5wmdt2vZX--WFt-d1MJV-123" target="XWnqWUd7AE8T0z90GCnD-2" edge="1">
          <mxGeometry relative="1" as="geometry">
            <mxPoint x="1575.5" y="2920" as="sourcePoint" />
          </mxGeometry>
        </mxCell>
        <mxCell id="XWnqWUd7AE8T0z90GCnD-1" style="edgeStyle=orthogonalEdgeStyle;rounded=0;orthogonalLoop=1;jettySize=auto;html=1;" parent="WIyWlLk6GJQsqaUBKTNV-1" source="XWnqWUd7AE8T0z90GCnD-0" target="WIyWlLk6GJQsqaUBKTNV-3" edge="1">
          <mxGeometry relative="1" as="geometry" />
        </mxCell>
        <mxCell id="XWnqWUd7AE8T0z90GCnD-0" value="Inicio" style="ellipse;whiteSpace=wrap;html=1;aspect=fixed;fillColor=#dae8fc;strokeColor=#6c8ebf;" parent="WIyWlLk6GJQsqaUBKTNV-1" vertex="1">
          <mxGeometry x="280" y="34" width="50" height="50" as="geometry" />
        </mxCell>
        <mxCell id="XWnqWUd7AE8T0z90GCnD-2" value="Fin" style="ellipse;whiteSpace=wrap;html=1;aspect=fixed;fillColor=#dae8fc;strokeColor=#6c8ebf;" parent="WIyWlLk6GJQsqaUBKTNV-1" vertex="1">
          <mxGeometry x="1550" y="2950" width="50" height="50" as="geometry" />
        </mxCell>
        <mxCell id="5wmdt2vZX--WFt-d1MJV-1" value="Fin" style="ellipse;whiteSpace=wrap;html=1;aspect=fixed;fillColor=#dae8fc;strokeColor=#6c8ebf;" parent="WIyWlLk6GJQsqaUBKTNV-1" vertex="1">
          <mxGeometry x="60" y="655" width="50" height="50" as="geometry" />
        </mxCell>
        <mxCell id="5wmdt2vZX--WFt-d1MJV-22" style="edgeStyle=orthogonalEdgeStyle;rounded=0;orthogonalLoop=1;jettySize=auto;html=1;" parent="WIyWlLk6GJQsqaUBKTNV-1" source="5wmdt2vZX--WFt-d1MJV-4" target="5wmdt2vZX--WFt-d1MJV-21" edge="1">
          <mxGeometry relative="1" as="geometry" />
        </mxCell>
        <mxCell id="5wmdt2vZX--WFt-d1MJV-4" value="Consultar&lt;br style=&quot;border-color: var(--border-color);&quot;&gt;Estado Entidad&lt;br style=&quot;border-color: var(--border-color);&quot;&gt;(AS-400)" style="rounded=1;whiteSpace=wrap;html=1;fontSize=12;glass=0;strokeWidth=1;shadow=0;" parent="WIyWlLk6GJQsqaUBKTNV-1" vertex="1">
          <mxGeometry x="840" y="855" width="120" height="50" as="geometry" />
        </mxCell>
        <mxCell id="5wmdt2vZX--WFt-d1MJV-8" style="edgeStyle=orthogonalEdgeStyle;rounded=0;orthogonalLoop=1;jettySize=auto;html=1;entryX=0.5;entryY=0;entryDx=0;entryDy=0;" parent="WIyWlLk6GJQsqaUBKTNV-1" source="5wmdt2vZX--WFt-d1MJV-6" target="C6ZICYi5UXpA8mwjiI_Q-10" edge="1">
          <mxGeometry relative="1" as="geometry" />
        </mxCell>
        <mxCell id="5wmdt2vZX--WFt-d1MJV-9" value="No" style="edgeLabel;html=1;align=center;verticalAlign=middle;resizable=0;points=[];" parent="5wmdt2vZX--WFt-d1MJV-8" vertex="1" connectable="0">
          <mxGeometry x="-0.2868" y="1" relative="1" as="geometry">
            <mxPoint x="68" y="-1" as="offset" />
          </mxGeometry>
        </mxCell>
        <mxCell id="5wmdt2vZX--WFt-d1MJV-6" value="Tiene&lt;br&gt;Cuentas?" style="rhombus;whiteSpace=wrap;html=1;rounded=1;glass=0;strokeWidth=1;shadow=0;" parent="WIyWlLk6GJQsqaUBKTNV-1" vertex="1">
          <mxGeometry x="504" y="440" width="80" height="80" as="geometry" />
        </mxCell>
        <mxCell id="5wmdt2vZX--WFt-d1MJV-12" style="edgeStyle=orthogonalEdgeStyle;rounded=0;orthogonalLoop=1;jettySize=auto;html=1;" parent="WIyWlLk6GJQsqaUBKTNV-1" source="5wmdt2vZX--WFt-d1MJV-10" target="C6ZICYi5UXpA8mwjiI_Q-10" edge="1">
          <mxGeometry relative="1" as="geometry" />
        </mxCell>
        <mxCell id="5wmdt2vZX--WFt-d1MJV-13" value="No" style="edgeLabel;html=1;align=center;verticalAlign=middle;resizable=0;points=[];" parent="5wmdt2vZX--WFt-d1MJV-12" vertex="1" connectable="0">
          <mxGeometry x="-0.7742" y="-1" relative="1" as="geometry">
            <mxPoint as="offset" />
          </mxGeometry>
        </mxCell>
        <mxCell id="5wmdt2vZX--WFt-d1MJV-10" value="Tiene&lt;br&gt;Funcionario?" style="rhombus;whiteSpace=wrap;html=1;rounded=1;glass=0;strokeWidth=1;shadow=0;" parent="WIyWlLk6GJQsqaUBKTNV-1" vertex="1">
          <mxGeometry x="504" y="640" width="80" height="80" as="geometry" />
        </mxCell>
        <mxCell id="5wmdt2vZX--WFt-d1MJV-16" style="edgeStyle=orthogonalEdgeStyle;rounded=0;orthogonalLoop=1;jettySize=auto;html=1;entryX=0.5;entryY=1;entryDx=0;entryDy=0;" parent="WIyWlLk6GJQsqaUBKTNV-1" source="5wmdt2vZX--WFt-d1MJV-14" target="C6ZICYi5UXpA8mwjiI_Q-10" edge="1">
          <mxGeometry relative="1" as="geometry" />
        </mxCell>
        <mxCell id="5wmdt2vZX--WFt-d1MJV-17" value="No" style="edgeLabel;html=1;align=center;verticalAlign=middle;resizable=0;points=[];" parent="5wmdt2vZX--WFt-d1MJV-16" vertex="1" connectable="0">
          <mxGeometry x="-0.8829" y="-1" relative="1" as="geometry">
            <mxPoint x="-8" as="offset" />
          </mxGeometry>
        </mxCell>
        <mxCell id="5wmdt2vZX--WFt-d1MJV-19" style="edgeStyle=orthogonalEdgeStyle;rounded=0;orthogonalLoop=1;jettySize=auto;html=1;" parent="WIyWlLk6GJQsqaUBKTNV-1" source="5wmdt2vZX--WFt-d1MJV-14" target="C6ZICYi5UXpA8mwjiI_Q-40" edge="1">
          <mxGeometry relative="1" as="geometry" />
        </mxCell>
        <mxCell id="5wmdt2vZX--WFt-d1MJV-20" value="Si" style="edgeLabel;html=1;align=center;verticalAlign=middle;resizable=0;points=[];" parent="5wmdt2vZX--WFt-d1MJV-19" vertex="1" connectable="0">
          <mxGeometry x="-0.3246" y="-2" relative="1" as="geometry">
            <mxPoint y="-2" as="offset" />
          </mxGeometry>
        </mxCell>
        <mxCell id="5wmdt2vZX--WFt-d1MJV-14" value="Existe&lt;br&gt;Agencia?" style="rhombus;whiteSpace=wrap;html=1;rounded=1;glass=0;strokeWidth=1;shadow=0;" parent="WIyWlLk6GJQsqaUBKTNV-1" vertex="1">
          <mxGeometry x="504" y="840" width="80" height="80" as="geometry" />
        </mxCell>
        <mxCell id="5wmdt2vZX--WFt-d1MJV-18" value="" style="shape=image;verticalLabelPosition=bottom;labelBackgroundColor=default;verticalAlign=top;aspect=fixed;imageAspect=0;image=data:image/png,iVBORw0KGgoAAAANSUhEUgAAAHAAAAA8CAYAAAC+ej5cAAAM9klEQVR4Ae1cbVMUxxbev+G/EyGkKt9SqYgIhsofEIMQyqqb3LySiBgERaPRJOu6rICuilEREREU3yHggiug59Zzus/M6Z7ZFXDxruVQ1c5s9+nz8jx9unvH3kndvXuXkvL+YpBKyHt/yQN3AYE0doRe3+hNSpVjAJ500qWmpqYIhcl7/ZpelymvXr2ipGwtBuXw57YbvcyX8BYQ+Op67xvJWVtbo6RsLQZvTJDrHoF37twhFBAYJecCdXz0EX1kS13nCK2urtoyQh11dVQnpbmfZqRtpCOst+0dI6qfll319NR10IjoWV2lkU5lo24P9c+IHu860097xJe6OtrTN2P8RL3jt+k307eHjE8z1N+sbZh7buM4ov50jMT3qUNcnh8GH1eHYPj777/Ts2fPFKbGN9SdOnUqho815kk4wzUlH9au/+YpGqF2BmyFVlZMGf4awEzTysowtdfVUftw2Dbdt4cQwDRkh9utnLRDHuDj8zC1ixzrkXorO9we6IG9uq+HA/srDI4nD3tc307D1s+VlWkmhf1Dm9ZhZeCv8R+yuq/4bONo3uP4AJ903JFYS9gTDOV6+vRpHuS7d++mJ0+eBDHiHnUg/s8///Q4WSXwJJwFBE5OTtLqtcOBkpcvX9LLoXZqPnKXcF8sFt0ytJ+ae6fcumKRhjpqaf9QkYox7VO9zbbPEO1vOkJTxSKFdZ5+thfKOfaH9lNtx5BjG3rYru8nPt89Qs2ePPSFfaboSNN+Gorra+MI4tIxirwfawl7TgzFIpO2c+dOqq2tpcbGRv4M8nAvdU+fPmX8wYEQD57Al5CYwofbt2/Ty6s9Dll3epto//kX9OLFC1peXnbK5G9N1JZz6yAT1OfaqOm3SafPclCXo7bdvTS5vEy59lqlJ0dttbXsfG1tG+Xu9FJTe87VAT9i6nPtTdR7J+oP+x0j7/i6PEm9u8WuXNsoB1vaZ/gU8VnLWPuwF8Rh9cXFsbxMs7Oz1NDQwDGDTCEUdY8ePWLsgb+Qz4l1tYf5Am8oKZA3MTFBxdFDLIgOTNrgV7T7sCFhaWmJTBmkbLZAhew+auyZoEKh4JRs2w7aV6J9oqfR9snSvl2HaaJQoLBO65mgw7v2UbYQyjl2svtoR1vWsQs9bFf7cztL2dsFKtw+TI2ePPSFfcSe9sHe6zit3SBGsaVlUFfCnhOD9C0U6N69e/T555/Tjh07uIBE1OmkEU6YyNFDzBd4Q0ndunWLUF5c6Q46gawCAKxppJ6J5/T8+XNaXFykzFc1VPNVhhYXM9RaU0OtmUWuR9v4oV1U09BD44uLtJhppV2HxoM2I7+Lem5BPkOtIsd6pN7qutVDu2paKePY022ePOypPvBlcXGcehpqjA9oY5+tDm43/hr/IWvsmb5KzouD4/fijsRawl5Et/UD9dPT0/Tpp5/SZ599xvfAG0VIBx9CKHgSzpB4qfHxcbp58yYtXT7IWYZOQtjCQoZat2+n7VJa0zQ/P29LmvZKPa47u2lM2tJ7wz4s00DdN1U/LTvv6dm+l9KiZ36e0q3K/natR/TZ681ualD+NBwcM3569Yhlb3qexg428HV+foy6d2ob5p77p/dSoId9Mr6if4CDLxNjb3s5v22sIAPr2r///stlYWGBUECwkMmz4OWDzBd4A5EpkDc2NkaFS7+yIDpBiTg4NzfHW11sbbGoJmVrMQDOKMBdOAAf4IWJvPQr8wXeQGIK5F2/fp0WL/7CxAlhQhR2Ro8fP+aChRXl4cOHSakwBoKtYA3chQMhlIm88AvzBd5AYgrk/fPPPzQ/8jM9G/qJnuR+oMeD39PD7Hf04Nx3NJv5L90/+y2Xe+lv6V76G5pJSsUxAK7AV7AG7sAfPDwa/J4e536gp+d/pLnhn+jq1at07do1zsQUblCBBRS7IdnOJlezra8mHMAPeLp8+TKNjo4yiSlk35UrV5g8Sv6qHgGQeOHCBbp06RInXgpM4gNGWvJX/QiAp/PnzwckppB9Fy9eLE1gvpPqvxigWR1bvpNajjk1lD9QT535WRr4op7q670i/R8MUItuO5DXWolgq0Q79Dtt9fXGB9bZQgMPQlWzx1qsf3H+uLJERqbTcSWmn8RgzcCG9sftH/pS6TsQePjkD9R/pouOn+2mFOZTpGR8BiKQFuo80EKOgyUJVO76MjFAMylCYsxAQbsMlPwBH3hrC3q/aKEWBbBLYCc53MCO2IQK/txJnaq/IdXtx4TZfnzvyOepsx4DWMW/RbfgCbtPfGe8f/8+pTB9Dg8PxxMIcOC0XMUpnxzgwBkoAgYYAR+1CDoaoBkgAw/kqvp7t2UJPJBn/WJvIwSKXrkas/DHJZAIJKEuro0MRg6pXgAV+ggCsfHEYzQ8ckvl8/mSBGpSnAA3QaDTXwVj6gUc26CnUjvqOVv19FpvMzIYXOEgcAn0p15FDGevXR4CPfAhjiSpy3vZKsGUqpf2ylxBIPYt+BKPR3AprH9YFKNTqJkW9DwvIxzTTnBv/dJkc5Uns6kMVKCWGgDO7GAJyTtrYEiY7yN80vHVc4bBeyFLgy6DLK7t3WYglj18kcexipIEhqNYgpAArLNBsGhXbYG4RzLAlayxMpxVsh7FrIEMcJCBZdZA0WGnapBiBpgPNj6LnqjPYcx+P7MEyNrJfjnTJXS9uzUQs+aNGzcMgdjA5HI5LwN1oMKICUIyj4NQU1pkffMykLUwiWpKU8Bzu546oVu1R6dQ266y1HgK30sRqAYfb178XYeQanQ42al8gZ03xm+cqfi/mClBIJ6g8f/IxxNYcbuJwgohAAKx7DkEDg4OehlYIWuJmoojIARiJxpkYEJgxXHeMoUJgVsG7btRXJbAbR+PUlKqG4OEwPd8kG6QwDka1zPDgzknQ7vUA2SiNcp029Hb/ZwWdD8iWhibDfp2PVCyH89SZkkL67ZR2ubr8nzQM4brT5G6LFmuPcmwORpfek5fQsa3we6Y/qzTsQlM0OZhIyFAtow+7e9m7jdAIBx0wUQwQkQkMHbayuPeCdqQNJ414IWAuvUcEOux4GudARn4LucOJPTTvrGebJHIEhTaE/Jw9QiM0Wn0rtHCEpH4zv2YwFDXl2Nrqt0OiBL62Le3mAVA4PeHvqZf+v9Dvad+pBS+B8ou1FGeLQZkOfVsXAWvnQFocDxC4ChtkzYG2xKt6qI2RikCDNsC6e7AcsjQ/tj7tyUw0y1ZZ4n/PxM4MDBAOJp/7ty50gTGg2dHXRxBAEvq5arBVHUCKGxIRm9zplJDkMj55EbqlW5fFp8j8uyXGoToL1OgXG0GBX2DwabJNHhEsCqjL86/jdQhA9dFIDImBFemiznq4mlQBa9JkiDjAJU2Daiq00EIaBFg2Nb6M7Ara6Za0adtOFkb56+NS/fFND2eXSeBWziFro9AXqTdqUqve/qegeFRZ+UjgLhrXQiKW28AVmuv1hkAuoE10E51oT0ZiLiqQRjxN5Rz+8I3/IUbJPgcGWhl9LmDKLSz3vr1ZyADJg7becUbVUyiTDl6w8PABw18E24C/CnNkBhKu4MmsqPzfNCBu/6EILv1ZDc3HoGhA/auxDSOWWM9BJbQp/3dzP0GCdz4CNmMU0mf9eOcEGin4vd10CQEJgSuP93f11FezX5HMnAgfZCOnP45+f/AyKajOitAYMknMdXpcuKVRiCSgfpRmhbk017qzAufDwkO8kQP/bB80O6fGZGDRI6F5MMmEIglMHqoyR7+8Q7yhMfyyhPIB350Xz7MFB7v24TfSReLgBB45swZ8yx0IN1NfWe6omtg5LSXPn1djsCYtgT+iiHAa2BPJ/169BvzvxElD/b6RwCdY34xJEGep9B3c0K5Yoi8Z4pA4PHjx/klQNlstvTBXufEc+TgbjkCY9pwjjKPXxUkf2+LAAg8ceJESCAOiQ4NDb15Cg0yzLiA9VAO+aIG6558jl8Dk43M25KH/kLgX3/9xf+PW/rXSTFroEuMOU4enF5WO1AhNGjzjtRXIpAPVQcIxEvyQCA2n0zgyMhINAM/VISqPG4QePLkSfr7778NgeV/4Fnl0XyA7oFAvIoynU7zr8re/BPrDxCkag5ZCDx79izvXfglB/gqgddXJH/VjwB4woGmTCbDP8zl14xgGv3kk0+YRDCclOrEAOSBJ2xg8B0Qj0EDApGF2NUgNfGYBgslvm8cO3aMjh49Sv39/UHp6+ujpFQWA40v8EYB9jjAhC/u4AJrH97ii/UPXIEzftWWvCsGu1GcEQWJEESqohPIRMH2NSlbi4FgjSuw/+OPP5gHJBV2nuAGHIErzJz8sjv81kxIxBsr8Jt5HBqFMNhGRxSkblK2FgPBGrijgAOsd+ADxIEbkIcHMHhFGr9uEr+31iQiNSGEJzTogIKUTcq7wUAwB/4oSCrwgTUPxCHzkHD4le7/AH8y/MPoKa6WAAAAAElFTkSuQmCC;" parent="WIyWlLk6GJQsqaUBKTNV-1" vertex="1">
          <mxGeometry x="610" y="160" width="67.2" height="36" as="geometry" />
        </mxCell>
        <mxCell id="5wmdt2vZX--WFt-d1MJV-24" style="edgeStyle=orthogonalEdgeStyle;rounded=0;orthogonalLoop=1;jettySize=auto;html=1;" parent="WIyWlLk6GJQsqaUBKTNV-1" source="5wmdt2vZX--WFt-d1MJV-21" target="5wmdt2vZX--WFt-d1MJV-23" edge="1">
          <mxGeometry relative="1" as="geometry" />
        </mxCell>
        <mxCell id="5wmdt2vZX--WFt-d1MJV-25" value="No" style="edgeLabel;html=1;align=center;verticalAlign=middle;resizable=0;points=[];" parent="5wmdt2vZX--WFt-d1MJV-24" vertex="1" connectable="0">
          <mxGeometry x="-0.2615" y="4" relative="1" as="geometry">
            <mxPoint as="offset" />
          </mxGeometry>
        </mxCell>
        <mxCell id="5wmdt2vZX--WFt-d1MJV-27" style="edgeStyle=orthogonalEdgeStyle;rounded=0;orthogonalLoop=1;jettySize=auto;html=1;" parent="WIyWlLk6GJQsqaUBKTNV-1" source="5wmdt2vZX--WFt-d1MJV-21" target="5wmdt2vZX--WFt-d1MJV-26" edge="1">
          <mxGeometry relative="1" as="geometry" />
        </mxCell>
        <mxCell id="5wmdt2vZX--WFt-d1MJV-28" value="Si" style="edgeLabel;html=1;align=center;verticalAlign=middle;resizable=0;points=[];" parent="5wmdt2vZX--WFt-d1MJV-27" vertex="1" connectable="0">
          <mxGeometry x="-0.2819" relative="1" as="geometry">
            <mxPoint as="offset" />
          </mxGeometry>
        </mxCell>
        <mxCell id="5wmdt2vZX--WFt-d1MJV-21" value="Existe&lt;br&gt;Entidad&lt;br&gt;activa?" style="rhombus;whiteSpace=wrap;html=1;rounded=1;glass=0;strokeWidth=1;shadow=0;" parent="WIyWlLk6GJQsqaUBKTNV-1" vertex="1">
          <mxGeometry x="1020" y="840" width="80" height="80" as="geometry" />
        </mxCell>
        <mxCell id="5wmdt2vZX--WFt-d1MJV-62" value="" style="edgeStyle=orthogonalEdgeStyle;rounded=0;orthogonalLoop=1;jettySize=auto;html=1;" parent="WIyWlLk6GJQsqaUBKTNV-1" source="5wmdt2vZX--WFt-d1MJV-23" target="5wmdt2vZX--WFt-d1MJV-61" edge="1">
          <mxGeometry relative="1" as="geometry" />
        </mxCell>
        <mxCell id="5wmdt2vZX--WFt-d1MJV-23" value="Mostrar pantalla&lt;br&gt;Registrar Empresa" style="rounded=1;whiteSpace=wrap;html=1;fontSize=12;glass=0;strokeWidth=1;shadow=0;" parent="WIyWlLk6GJQsqaUBKTNV-1" vertex="1">
          <mxGeometry x="1000" y="985" width="120" height="50" as="geometry" />
        </mxCell>
        <mxCell id="5wmdt2vZX--WFt-d1MJV-33" style="edgeStyle=orthogonalEdgeStyle;rounded=0;orthogonalLoop=1;jettySize=auto;html=1;" parent="WIyWlLk6GJQsqaUBKTNV-1" source="5wmdt2vZX--WFt-d1MJV-26" target="5wmdt2vZX--WFt-d1MJV-32" edge="1">
          <mxGeometry relative="1" as="geometry" />
        </mxCell>
        <mxCell id="5wmdt2vZX--WFt-d1MJV-26" value="Consultar&lt;br style=&quot;border-color: var(--border-color);&quot;&gt;Registro Usuario&lt;br style=&quot;border-color: var(--border-color);&quot;&gt;(MSSQL)" style="rounded=1;whiteSpace=wrap;html=1;fontSize=12;glass=0;strokeWidth=1;shadow=0;" parent="WIyWlLk6GJQsqaUBKTNV-1" vertex="1">
          <mxGeometry x="1290" y="855" width="120" height="50" as="geometry" />
        </mxCell>
        <mxCell id="5wmdt2vZX--WFt-d1MJV-43" value="" style="edgeStyle=orthogonalEdgeStyle;rounded=0;orthogonalLoop=1;jettySize=auto;html=1;" parent="WIyWlLk6GJQsqaUBKTNV-1" source="5wmdt2vZX--WFt-d1MJV-29" target="5wmdt2vZX--WFt-d1MJV-42" edge="1">
          <mxGeometry relative="1" as="geometry" />
        </mxCell>
        <mxCell id="5wmdt2vZX--WFt-d1MJV-29" value="Consultar&lt;br style=&quot;border-color: var(--border-color);&quot;&gt;Registro Admin UserProfile&lt;br style=&quot;border-color: var(--border-color);&quot;&gt;(MSSQL)" style="rounded=1;whiteSpace=wrap;html=1;fontSize=12;glass=0;strokeWidth=1;shadow=0;" parent="WIyWlLk6GJQsqaUBKTNV-1" vertex="1">
          <mxGeometry x="1480" y="965" width="120" height="60" as="geometry" />
        </mxCell>
        <mxCell id="5wmdt2vZX--WFt-d1MJV-31" value="&lt;h6&gt;&lt;div style=&quot;text-align: justify;&quot;&gt;&lt;span style=&quot;font-size: 6px; background-color: initial;&quot;&gt;Consulta por:&lt;/span&gt;&lt;/div&gt;&lt;font style=&quot;font-size: 6px;&quot;&gt;&lt;font style=&quot;&quot;&gt;&lt;span style=&quot;font-weight: normal;&quot;&gt;1. Código cliente&lt;br&gt;2. Entidad&lt;/span&gt;&lt;br&gt;&lt;/font&gt;&lt;/font&gt;&lt;/h6&gt;&lt;p&gt;&lt;/p&gt;" style="strokeWidth=1;shadow=0;dashed=0;align=center;html=1;shape=mxgraph.mockup.text.stickyNote2;fontColor=#666666;mainText=;fontSize=17;whiteSpace=wrap;fillColor=#ffffcc;strokeColor=#F62E00;" parent="WIyWlLk6GJQsqaUBKTNV-1" vertex="1">
          <mxGeometry x="1409" y="825" width="71" height="50" as="geometry" />
        </mxCell>
        <mxCell id="5wmdt2vZX--WFt-d1MJV-35" style="edgeStyle=orthogonalEdgeStyle;rounded=0;orthogonalLoop=1;jettySize=auto;html=1;" parent="WIyWlLk6GJQsqaUBKTNV-1" source="5wmdt2vZX--WFt-d1MJV-32" target="5wmdt2vZX--WFt-d1MJV-34" edge="1">
          <mxGeometry relative="1" as="geometry" />
        </mxCell>
        <mxCell id="5wmdt2vZX--WFt-d1MJV-36" value="Si" style="edgeLabel;html=1;align=center;verticalAlign=middle;resizable=0;points=[];" parent="5wmdt2vZX--WFt-d1MJV-35" vertex="1" connectable="0">
          <mxGeometry x="-0.3308" y="3" relative="1" as="geometry">
            <mxPoint as="offset" />
          </mxGeometry>
        </mxCell>
        <mxCell id="5wmdt2vZX--WFt-d1MJV-37" style="edgeStyle=orthogonalEdgeStyle;rounded=0;orthogonalLoop=1;jettySize=auto;html=1;" parent="WIyWlLk6GJQsqaUBKTNV-1" source="5wmdt2vZX--WFt-d1MJV-32" target="5wmdt2vZX--WFt-d1MJV-29" edge="1">
          <mxGeometry relative="1" as="geometry" />
        </mxCell>
        <mxCell id="5wmdt2vZX--WFt-d1MJV-38" value="No" style="edgeLabel;html=1;align=center;verticalAlign=middle;resizable=0;points=[];" parent="5wmdt2vZX--WFt-d1MJV-37" vertex="1" connectable="0">
          <mxGeometry x="-0.2187" relative="1" as="geometry">
            <mxPoint x="-4" y="-10" as="offset" />
          </mxGeometry>
        </mxCell>
        <mxCell id="5wmdt2vZX--WFt-d1MJV-32" value="Existe&lt;br&gt;BIFNET&lt;br&gt;REGUSU?" style="rhombus;whiteSpace=wrap;html=1;rounded=1;glass=0;strokeWidth=1;shadow=0;" parent="WIyWlLk6GJQsqaUBKTNV-1" vertex="1">
          <mxGeometry x="1310" y="955" width="80" height="80" as="geometry" />
        </mxCell>
        <mxCell id="5wmdt2vZX--WFt-d1MJV-49" style="edgeStyle=orthogonalEdgeStyle;rounded=0;orthogonalLoop=1;jettySize=auto;html=1;" parent="WIyWlLk6GJQsqaUBKTNV-1" source="5wmdt2vZX--WFt-d1MJV-34" target="5wmdt2vZX--WFt-d1MJV-48" edge="1">
          <mxGeometry relative="1" as="geometry" />
        </mxCell>
        <mxCell id="5wmdt2vZX--WFt-d1MJV-34" value="Consultar&lt;br style=&quot;border-color: var(--border-color);&quot;&gt;Entity Extension&lt;br style=&quot;border-color: var(--border-color);&quot;&gt;(MSSQL)" style="rounded=1;whiteSpace=wrap;html=1;fontSize=12;glass=0;strokeWidth=1;shadow=0;" parent="WIyWlLk6GJQsqaUBKTNV-1" vertex="1">
          <mxGeometry x="1290" y="1122" width="120" height="50" as="geometry" />
        </mxCell>
        <mxCell id="5wmdt2vZX--WFt-d1MJV-39" value="&lt;h6&gt;&lt;div style=&quot;text-align: justify;&quot;&gt;&lt;span style=&quot;font-size: 6px; background-color: initial;&quot;&gt;Consulta por:&lt;/span&gt;&lt;/div&gt;&lt;font style=&quot;font-size: 6px;&quot;&gt;&lt;font style=&quot;&quot;&gt;&lt;span style=&quot;font-weight: normal;&quot;&gt;1. Código cliente&lt;br&gt;2. Entidad&lt;/span&gt;&lt;br&gt;&lt;/font&gt;&lt;/font&gt;&lt;/h6&gt;&lt;p&gt;&lt;/p&gt;" style="strokeWidth=1;shadow=0;dashed=0;align=center;html=1;shape=mxgraph.mockup.text.stickyNote2;fontColor=#666666;mainText=;fontSize=17;whiteSpace=wrap;fillColor=#ffffcc;strokeColor=#F62E00;" parent="WIyWlLk6GJQsqaUBKTNV-1" vertex="1">
          <mxGeometry x="1570" y="915" width="71" height="50" as="geometry" />
        </mxCell>
        <mxCell id="5wmdt2vZX--WFt-d1MJV-45" value="" style="edgeStyle=orthogonalEdgeStyle;rounded=0;orthogonalLoop=1;jettySize=auto;html=1;" parent="WIyWlLk6GJQsqaUBKTNV-1" source="5wmdt2vZX--WFt-d1MJV-42" target="5wmdt2vZX--WFt-d1MJV-44" edge="1">
          <mxGeometry relative="1" as="geometry" />
        </mxCell>
        <mxCell id="5wmdt2vZX--WFt-d1MJV-42" value="Registrar&lt;br&gt;BIFNET_TUSU&lt;br style=&quot;border-color: var(--border-color);&quot;&gt;(MSSQL)" style="rounded=1;whiteSpace=wrap;html=1;fontSize=12;glass=0;strokeWidth=1;shadow=0;" parent="WIyWlLk6GJQsqaUBKTNV-1" vertex="1">
          <mxGeometry x="1670.75" y="965" width="120" height="60" as="geometry" />
        </mxCell>
        <mxCell id="5wmdt2vZX--WFt-d1MJV-54" style="edgeStyle=orthogonalEdgeStyle;rounded=0;orthogonalLoop=1;jettySize=auto;html=1;entryX=1;entryY=0.5;entryDx=0;entryDy=0;" parent="WIyWlLk6GJQsqaUBKTNV-1" source="5wmdt2vZX--WFt-d1MJV-44" target="5wmdt2vZX--WFt-d1MJV-34" edge="1">
          <mxGeometry relative="1" as="geometry">
            <Array as="points">
              <mxPoint x="2020" y="995" />
              <mxPoint x="2020" y="1147" />
            </Array>
          </mxGeometry>
        </mxCell>
        <mxCell id="5wmdt2vZX--WFt-d1MJV-44" value="Registrar&lt;br&gt;BIFNET_REGUSU&lt;br style=&quot;border-color: var(--border-color);&quot;&gt;(MSSQL)" style="rounded=1;whiteSpace=wrap;html=1;fontSize=12;glass=0;strokeWidth=1;shadow=0;" parent="WIyWlLk6GJQsqaUBKTNV-1" vertex="1">
          <mxGeometry x="1859.5" y="965" width="120" height="60" as="geometry" />
        </mxCell>
        <mxCell id="5wmdt2vZX--WFt-d1MJV-51" style="edgeStyle=orthogonalEdgeStyle;rounded=0;orthogonalLoop=1;jettySize=auto;html=1;" parent="WIyWlLk6GJQsqaUBKTNV-1" source="5wmdt2vZX--WFt-d1MJV-48" target="5wmdt2vZX--WFt-d1MJV-50" edge="1">
          <mxGeometry relative="1" as="geometry" />
        </mxCell>
        <mxCell id="5wmdt2vZX--WFt-d1MJV-52" value="No" style="edgeLabel;html=1;align=center;verticalAlign=middle;resizable=0;points=[];" parent="5wmdt2vZX--WFt-d1MJV-51" vertex="1" connectable="0">
          <mxGeometry x="-0.1851" relative="1" as="geometry">
            <mxPoint y="-10" as="offset" />
          </mxGeometry>
        </mxCell>
        <mxCell id="5wmdt2vZX--WFt-d1MJV-56" style="edgeStyle=orthogonalEdgeStyle;rounded=0;orthogonalLoop=1;jettySize=auto;html=1;" parent="WIyWlLk6GJQsqaUBKTNV-1" source="5wmdt2vZX--WFt-d1MJV-48" target="5wmdt2vZX--WFt-d1MJV-55" edge="1">
          <mxGeometry relative="1" as="geometry" />
        </mxCell>
        <mxCell id="5wmdt2vZX--WFt-d1MJV-57" value="Si" style="edgeLabel;html=1;align=center;verticalAlign=middle;resizable=0;points=[];" parent="5wmdt2vZX--WFt-d1MJV-56" vertex="1" connectable="0">
          <mxGeometry x="-0.3529" relative="1" as="geometry">
            <mxPoint as="offset" />
          </mxGeometry>
        </mxCell>
        <mxCell id="5wmdt2vZX--WFt-d1MJV-48" value="Existe en&lt;br&gt;ENTITY&lt;br&gt;EXTENSION?" style="rhombus;whiteSpace=wrap;html=1;rounded=1;glass=0;strokeWidth=1;shadow=0;" parent="WIyWlLk6GJQsqaUBKTNV-1" vertex="1">
          <mxGeometry x="1310" y="1225" width="80" height="80" as="geometry" />
        </mxCell>
        <mxCell id="5wmdt2vZX--WFt-d1MJV-50" value="Registrar&lt;br&gt;BIFNET_REGUSU&lt;br style=&quot;border-color: var(--border-color);&quot;&gt;(MSSQL)" style="rounded=1;whiteSpace=wrap;html=1;fontSize=12;glass=0;strokeWidth=1;shadow=0;" parent="WIyWlLk6GJQsqaUBKTNV-1" vertex="1">
          <mxGeometry x="1480" y="1235" width="120" height="60" as="geometry" />
        </mxCell>
        <mxCell id="5wmdt2vZX--WFt-d1MJV-53" value="&lt;h6&gt;&lt;div style=&quot;text-align: justify;&quot;&gt;&lt;span style=&quot;font-size: 6px; background-color: initial;&quot;&gt;Consulta por:&lt;/span&gt;&lt;/div&gt;&lt;font style=&quot;font-size: 6px;&quot;&gt;&lt;font style=&quot;&quot;&gt;&lt;span style=&quot;font-weight: normal;&quot;&gt;1. Código cliente&lt;br&gt;2. Entidad&lt;/span&gt;&lt;br&gt;&lt;/font&gt;&lt;/font&gt;&lt;/h6&gt;&lt;p&gt;&lt;/p&gt;" style="strokeWidth=1;shadow=0;dashed=0;align=center;html=1;shape=mxgraph.mockup.text.stickyNote2;fontColor=#666666;mainText=;fontSize=17;whiteSpace=wrap;fillColor=#ffffcc;strokeColor=#F62E00;" parent="WIyWlLk6GJQsqaUBKTNV-1" vertex="1">
          <mxGeometry x="1410" y="1085" width="71" height="50" as="geometry" />
        </mxCell>
        <mxCell id="5wmdt2vZX--WFt-d1MJV-59" style="edgeStyle=orthogonalEdgeStyle;rounded=0;orthogonalLoop=1;jettySize=auto;html=1;" parent="WIyWlLk6GJQsqaUBKTNV-1" source="5wmdt2vZX--WFt-d1MJV-55" target="5wmdt2vZX--WFt-d1MJV-58" edge="1">
          <mxGeometry relative="1" as="geometry" />
        </mxCell>
        <mxCell id="5wmdt2vZX--WFt-d1MJV-55" value="Consultar&lt;br style=&quot;border-color: var(--border-color);&quot;&gt;User Profile&lt;br style=&quot;border-color: var(--border-color);&quot;&gt;(MSSQL)" style="rounded=1;whiteSpace=wrap;html=1;fontSize=12;glass=0;strokeWidth=1;shadow=0;" parent="WIyWlLk6GJQsqaUBKTNV-1" vertex="1">
          <mxGeometry x="1290" y="1355" width="120" height="50" as="geometry" />
        </mxCell>
        <mxCell id="5wmdt2vZX--WFt-d1MJV-60" style="edgeStyle=orthogonalEdgeStyle;rounded=0;orthogonalLoop=1;jettySize=auto;html=1;" parent="WIyWlLk6GJQsqaUBKTNV-1" source="5wmdt2vZX--WFt-d1MJV-58" target="C6ZICYi5UXpA8mwjiI_Q-79" edge="1">
          <mxGeometry relative="1" as="geometry" />
        </mxCell>
        <mxCell id="5wmdt2vZX--WFt-d1MJV-58" value="Existe en&lt;br&gt;USRPROFILE?" style="rhombus;whiteSpace=wrap;html=1;rounded=1;glass=0;strokeWidth=1;shadow=0;" parent="WIyWlLk6GJQsqaUBKTNV-1" vertex="1">
          <mxGeometry x="1310" y="1445" width="80" height="80" as="geometry" />
        </mxCell>
        <mxCell id="5wmdt2vZX--WFt-d1MJV-68" value="" style="edgeStyle=orthogonalEdgeStyle;rounded=0;orthogonalLoop=1;jettySize=auto;html=1;" parent="WIyWlLk6GJQsqaUBKTNV-1" source="5wmdt2vZX--WFt-d1MJV-61" target="5wmdt2vZX--WFt-d1MJV-67" edge="1">
          <mxGeometry relative="1" as="geometry" />
        </mxCell>
        <mxCell id="5wmdt2vZX--WFt-d1MJV-61" value="Ingresar datos&lt;br&gt;de registro" style="rounded=1;whiteSpace=wrap;html=1;fontSize=12;glass=0;strokeWidth=1;shadow=0;" parent="WIyWlLk6GJQsqaUBKTNV-1" vertex="1">
          <mxGeometry x="1000" y="1115" width="120" height="50" as="geometry" />
        </mxCell>
        <mxCell id="5wmdt2vZX--WFt-d1MJV-84" style="edgeStyle=orthogonalEdgeStyle;rounded=0;orthogonalLoop=1;jettySize=auto;html=1;" parent="WIyWlLk6GJQsqaUBKTNV-1" source="5wmdt2vZX--WFt-d1MJV-65" target="5wmdt2vZX--WFt-d1MJV-61" edge="1">
          <mxGeometry relative="1" as="geometry" />
        </mxCell>
        <mxCell id="5wmdt2vZX--WFt-d1MJV-65" value="&lt;h6&gt;&lt;/h6&gt;&lt;h6 style=&quot;text-align: justify;&quot;&gt;&lt;span style=&quot;background-color: initial; font-size: 11px;&quot;&gt;Datos de Registro:&lt;/span&gt;&lt;br&gt;&lt;/h6&gt;&lt;h6 style=&quot;text-align: justify;&quot;&gt;&lt;ol&gt;&lt;li style=&quot;border-color: var(--border-color);&quot;&gt;&lt;font style=&quot;font-size: 8px; font-weight: normal;&quot; face=&quot;Helvetica&quot;&gt;Nombre Entidad&lt;/font&gt;&lt;/li&gt;&lt;li style=&quot;border-color: var(--border-color);&quot;&gt;&lt;font face=&quot;Helvetica&quot; style=&quot;font-size: 8px; font-weight: normal;&quot;&gt;Id usuario Admin&lt;/font&gt;&lt;/li&gt;&lt;li style=&quot;border-color: var(--border-color);&quot;&gt;&lt;font style=&quot;font-size: 8px; font-weight: normal;&quot; face=&quot;Helvetica&quot;&gt;Cuenta Cargo&lt;/font&gt;&lt;/li&gt;&lt;li style=&quot;border-color: var(--border-color);&quot;&gt;&lt;font style=&quot;font-size: 8px; font-weight: normal;&quot; face=&quot;Helvetica&quot;&gt;Dirección e-mail&lt;/font&gt;&lt;/li&gt;&lt;li style=&quot;border-color: var(--border-color);&quot;&gt;&lt;font face=&quot;Helvetica&quot; style=&quot;font-size: 8px; font-weight: normal;&quot;&gt;Nombres y Apellidos&lt;/font&gt;&lt;/li&gt;&lt;li style=&quot;border-color: var(--border-color);&quot;&gt;&lt;font face=&quot;Helvetica&quot; style=&quot;font-size: 8px; font-weight: normal;&quot;&gt;Número de documento&lt;/font&gt;&lt;/li&gt;&lt;li style=&quot;border-color: var(--border-color);&quot;&gt;&lt;font face=&quot;Helvetica&quot; style=&quot;font-size: 8px; font-weight: normal;&quot;&gt;Versión (Consulta / Full)&lt;/font&gt;&lt;/li&gt;&lt;li style=&quot;border-color: var(--border-color);&quot;&gt;&lt;font style=&quot;font-size: 8px; font-weight: normal;&quot;&gt;Tipo token (Físico / Digital)&lt;/font&gt;&lt;/li&gt;&lt;/ol&gt;&lt;/h6&gt;&lt;p&gt;&lt;/p&gt;" style="strokeWidth=1;shadow=0;dashed=0;align=center;html=1;shape=mxgraph.mockup.text.stickyNote2;fontColor=#666666;mainText=;fontSize=17;whiteSpace=wrap;fillColor=#ffffcc;strokeColor=#F62E00;" parent="WIyWlLk6GJQsqaUBKTNV-1" vertex="1">
          <mxGeometry x="770" y="1040" width="190" height="200" as="geometry" />
        </mxCell>
        <mxCell id="5wmdt2vZX--WFt-d1MJV-70" style="edgeStyle=orthogonalEdgeStyle;rounded=0;orthogonalLoop=1;jettySize=auto;html=1;" parent="WIyWlLk6GJQsqaUBKTNV-1" source="5wmdt2vZX--WFt-d1MJV-67" target="5wmdt2vZX--WFt-d1MJV-69" edge="1">
          <mxGeometry relative="1" as="geometry" />
        </mxCell>
        <mxCell id="5wmdt2vZX--WFt-d1MJV-67" value="Procesar Guardar" style="rounded=1;whiteSpace=wrap;html=1;fontSize=12;glass=0;strokeWidth=1;shadow=0;" parent="WIyWlLk6GJQsqaUBKTNV-1" vertex="1">
          <mxGeometry x="1000" y="1235" width="120" height="50" as="geometry" />
        </mxCell>
        <mxCell id="5wmdt2vZX--WFt-d1MJV-72" style="edgeStyle=orthogonalEdgeStyle;rounded=0;orthogonalLoop=1;jettySize=auto;html=1;" parent="WIyWlLk6GJQsqaUBKTNV-1" source="5wmdt2vZX--WFt-d1MJV-69" target="5wmdt2vZX--WFt-d1MJV-71" edge="1">
          <mxGeometry relative="1" as="geometry" />
        </mxCell>
        <mxCell id="5wmdt2vZX--WFt-d1MJV-69" value="Consultar&lt;br style=&quot;border-color: var(--border-color);&quot;&gt;Estado Entidad&lt;br style=&quot;border-color: var(--border-color);&quot;&gt;(AS-400)" style="rounded=1;whiteSpace=wrap;html=1;fontSize=12;glass=0;strokeWidth=1;shadow=0;" parent="WIyWlLk6GJQsqaUBKTNV-1" vertex="1">
          <mxGeometry x="1000" y="1340" width="120" height="50" as="geometry" />
        </mxCell>
        <mxCell id="5wmdt2vZX--WFt-d1MJV-74" style="edgeStyle=orthogonalEdgeStyle;rounded=0;orthogonalLoop=1;jettySize=auto;html=1;" parent="WIyWlLk6GJQsqaUBKTNV-1" source="5wmdt2vZX--WFt-d1MJV-71" target="5wmdt2vZX--WFt-d1MJV-73" edge="1">
          <mxGeometry relative="1" as="geometry" />
        </mxCell>
        <mxCell id="5wmdt2vZX--WFt-d1MJV-75" value="Si" style="edgeLabel;html=1;align=center;verticalAlign=middle;resizable=0;points=[];" parent="5wmdt2vZX--WFt-d1MJV-74" vertex="1" connectable="0">
          <mxGeometry x="-0.3186" y="1" relative="1" as="geometry">
            <mxPoint x="2" y="-6" as="offset" />
          </mxGeometry>
        </mxCell>
        <mxCell id="5wmdt2vZX--WFt-d1MJV-78" style="edgeStyle=orthogonalEdgeStyle;rounded=0;orthogonalLoop=1;jettySize=auto;html=1;" parent="WIyWlLk6GJQsqaUBKTNV-1" source="5wmdt2vZX--WFt-d1MJV-71" target="5wmdt2vZX--WFt-d1MJV-77" edge="1">
          <mxGeometry relative="1" as="geometry" />
        </mxCell>
        <mxCell id="5wmdt2vZX--WFt-d1MJV-82" value="No" style="edgeLabel;html=1;align=center;verticalAlign=middle;resizable=0;points=[];" parent="5wmdt2vZX--WFt-d1MJV-78" vertex="1" connectable="0">
          <mxGeometry x="-0.3421" y="2" relative="1" as="geometry">
            <mxPoint as="offset" />
          </mxGeometry>
        </mxCell>
        <mxCell id="5wmdt2vZX--WFt-d1MJV-71" value="Existe &lt;br&gt;entidad Activa?" style="rhombus;whiteSpace=wrap;html=1;rounded=1;glass=0;strokeWidth=1;shadow=0;" parent="WIyWlLk6GJQsqaUBKTNV-1" vertex="1">
          <mxGeometry x="1020" y="1437" width="80" height="80" as="geometry" />
        </mxCell>
        <mxCell id="5wmdt2vZX--WFt-d1MJV-76" style="edgeStyle=orthogonalEdgeStyle;rounded=0;orthogonalLoop=1;jettySize=auto;html=1;entryX=0;entryY=0.5;entryDx=0;entryDy=0;" parent="WIyWlLk6GJQsqaUBKTNV-1" source="5wmdt2vZX--WFt-d1MJV-73" target="5wmdt2vZX--WFt-d1MJV-23" edge="1">
          <mxGeometry relative="1" as="geometry">
            <Array as="points">
              <mxPoint x="690" y="1485" />
              <mxPoint x="690" y="1010" />
            </Array>
          </mxGeometry>
        </mxCell>
        <mxCell id="5wmdt2vZX--WFt-d1MJV-73" value="Mostrar mensaje&lt;br&gt;al usuario" style="rounded=1;whiteSpace=wrap;html=1;fontSize=12;glass=0;strokeWidth=1;shadow=0;" parent="WIyWlLk6GJQsqaUBKTNV-1" vertex="1">
          <mxGeometry x="770" y="1457" width="120" height="40" as="geometry" />
        </mxCell>
        <mxCell id="5wmdt2vZX--WFt-d1MJV-80" style="edgeStyle=orthogonalEdgeStyle;rounded=0;orthogonalLoop=1;jettySize=auto;html=1;" parent="WIyWlLk6GJQsqaUBKTNV-1" source="5wmdt2vZX--WFt-d1MJV-77" target="5wmdt2vZX--WFt-d1MJV-79" edge="1">
          <mxGeometry relative="1" as="geometry" />
        </mxCell>
        <mxCell id="5wmdt2vZX--WFt-d1MJV-77" value="Validar&lt;br style=&quot;border-color: var(--border-color);&quot;&gt;Nombre Entidad&lt;br style=&quot;border-color: var(--border-color);&quot;&gt;(AS-400)" style="rounded=1;whiteSpace=wrap;html=1;fontSize=12;glass=0;strokeWidth=1;shadow=0;" parent="WIyWlLk6GJQsqaUBKTNV-1" vertex="1">
          <mxGeometry x="1000" y="1575" width="120" height="50" as="geometry" />
        </mxCell>
        <mxCell id="5wmdt2vZX--WFt-d1MJV-81" style="edgeStyle=orthogonalEdgeStyle;rounded=0;orthogonalLoop=1;jettySize=auto;html=1;" parent="WIyWlLk6GJQsqaUBKTNV-1" source="5wmdt2vZX--WFt-d1MJV-79" target="5wmdt2vZX--WFt-d1MJV-73" edge="1">
          <mxGeometry relative="1" as="geometry" />
        </mxCell>
        <mxCell id="5wmdt2vZX--WFt-d1MJV-83" value="Si" style="edgeLabel;html=1;align=center;verticalAlign=middle;resizable=0;points=[];" parent="5wmdt2vZX--WFt-d1MJV-81" vertex="1" connectable="0">
          <mxGeometry x="-0.7786" y="1" relative="1" as="geometry">
            <mxPoint as="offset" />
          </mxGeometry>
        </mxCell>
        <mxCell id="5wmdt2vZX--WFt-d1MJV-86" value="" style="edgeStyle=orthogonalEdgeStyle;rounded=0;orthogonalLoop=1;jettySize=auto;html=1;" parent="WIyWlLk6GJQsqaUBKTNV-1" source="5wmdt2vZX--WFt-d1MJV-79" target="5wmdt2vZX--WFt-d1MJV-85" edge="1">
          <mxGeometry relative="1" as="geometry" />
        </mxCell>
        <mxCell id="5wmdt2vZX--WFt-d1MJV-79" value="Nombre entidad&lt;br&gt;duplicado?" style="rhombus;whiteSpace=wrap;html=1;rounded=1;glass=0;strokeWidth=1;shadow=0;" parent="WIyWlLk6GJQsqaUBKTNV-1" vertex="1">
          <mxGeometry x="1020" y="1674" width="80" height="80" as="geometry" />
        </mxCell>
        <mxCell id="5wmdt2vZX--WFt-d1MJV-88" style="edgeStyle=orthogonalEdgeStyle;rounded=0;orthogonalLoop=1;jettySize=auto;html=1;" parent="WIyWlLk6GJQsqaUBKTNV-1" source="5wmdt2vZX--WFt-d1MJV-85" target="5wmdt2vZX--WFt-d1MJV-87" edge="1">
          <mxGeometry relative="1" as="geometry" />
        </mxCell>
        <mxCell id="5wmdt2vZX--WFt-d1MJV-89" value="Si" style="edgeLabel;html=1;align=center;verticalAlign=middle;resizable=0;points=[];" parent="5wmdt2vZX--WFt-d1MJV-88" vertex="1" connectable="0">
          <mxGeometry x="-0.4949" y="1" relative="1" as="geometry">
            <mxPoint as="offset" />
          </mxGeometry>
        </mxCell>
        <mxCell id="5wmdt2vZX--WFt-d1MJV-91" style="edgeStyle=orthogonalEdgeStyle;rounded=0;orthogonalLoop=1;jettySize=auto;html=1;" parent="WIyWlLk6GJQsqaUBKTNV-1" source="5wmdt2vZX--WFt-d1MJV-85" target="5wmdt2vZX--WFt-d1MJV-90" edge="1">
          <mxGeometry relative="1" as="geometry" />
        </mxCell>
        <mxCell id="5wmdt2vZX--WFt-d1MJV-92" value="No" style="edgeLabel;html=1;align=center;verticalAlign=middle;resizable=0;points=[];" parent="5wmdt2vZX--WFt-d1MJV-91" vertex="1" connectable="0">
          <mxGeometry x="-0.342" y="-2" relative="1" as="geometry">
            <mxPoint as="offset" />
          </mxGeometry>
        </mxCell>
        <mxCell id="5wmdt2vZX--WFt-d1MJV-85" value="Es token&lt;br&gt;Digital?" style="rhombus;whiteSpace=wrap;html=1;rounded=1;glass=0;strokeWidth=1;shadow=0;" parent="WIyWlLk6GJQsqaUBKTNV-1" vertex="1">
          <mxGeometry x="1020" y="1800" width="80" height="80" as="geometry" />
        </mxCell>
        <mxCell id="5wmdt2vZX--WFt-d1MJV-94" style="edgeStyle=orthogonalEdgeStyle;rounded=0;orthogonalLoop=1;jettySize=auto;html=1;" parent="WIyWlLk6GJQsqaUBKTNV-1" source="5wmdt2vZX--WFt-d1MJV-87" target="5wmdt2vZX--WFt-d1MJV-93" edge="1">
          <mxGeometry relative="1" as="geometry" />
        </mxCell>
        <mxCell id="5wmdt2vZX--WFt-d1MJV-87" value="Validar Documento&lt;br&gt;Identidad&lt;br&gt;(MSSQL)" style="rounded=1;whiteSpace=wrap;html=1;fontSize=12;glass=0;strokeWidth=1;shadow=0;" parent="WIyWlLk6GJQsqaUBKTNV-1" vertex="1">
          <mxGeometry x="870" y="1900" width="120" height="50" as="geometry" />
        </mxCell>
        <mxCell id="5wmdt2vZX--WFt-d1MJV-104" value="" style="edgeStyle=orthogonalEdgeStyle;rounded=0;orthogonalLoop=1;jettySize=auto;html=1;" parent="WIyWlLk6GJQsqaUBKTNV-1" source="5wmdt2vZX--WFt-d1MJV-90" target="5wmdt2vZX--WFt-d1MJV-103" edge="1">
          <mxGeometry relative="1" as="geometry" />
        </mxCell>
        <mxCell id="5wmdt2vZX--WFt-d1MJV-90" value="Registrar Entidad&lt;br&gt;EUSER&lt;br&gt;(AS-400)" style="rounded=1;whiteSpace=wrap;html=1;fontSize=12;glass=0;strokeWidth=1;shadow=0;" parent="WIyWlLk6GJQsqaUBKTNV-1" vertex="1">
          <mxGeometry x="1115.5" y="1900" width="120" height="50" as="geometry" />
        </mxCell>
        <mxCell id="5wmdt2vZX--WFt-d1MJV-95" style="edgeStyle=orthogonalEdgeStyle;rounded=0;orthogonalLoop=1;jettySize=auto;html=1;entryX=0.5;entryY=1;entryDx=0;entryDy=0;" parent="WIyWlLk6GJQsqaUBKTNV-1" source="5wmdt2vZX--WFt-d1MJV-93" target="5wmdt2vZX--WFt-d1MJV-73" edge="1">
          <mxGeometry relative="1" as="geometry">
            <Array as="points">
              <mxPoint x="830" y="2040" />
            </Array>
          </mxGeometry>
        </mxCell>
        <mxCell id="5wmdt2vZX--WFt-d1MJV-96" value="Si" style="edgeLabel;html=1;align=center;verticalAlign=middle;resizable=0;points=[];" parent="5wmdt2vZX--WFt-d1MJV-95" vertex="1" connectable="0">
          <mxGeometry x="-0.9234" relative="1" as="geometry">
            <mxPoint as="offset" />
          </mxGeometry>
        </mxCell>
        <mxCell id="5wmdt2vZX--WFt-d1MJV-99" style="edgeStyle=orthogonalEdgeStyle;rounded=0;orthogonalLoop=1;jettySize=auto;html=1;" parent="WIyWlLk6GJQsqaUBKTNV-1" source="5wmdt2vZX--WFt-d1MJV-93" target="5wmdt2vZX--WFt-d1MJV-90" edge="1">
          <mxGeometry relative="1" as="geometry" />
        </mxCell>
        <mxCell id="5wmdt2vZX--WFt-d1MJV-100" value="No" style="edgeLabel;html=1;align=center;verticalAlign=middle;resizable=0;points=[];" parent="5wmdt2vZX--WFt-d1MJV-99" vertex="1" connectable="0">
          <mxGeometry x="-0.6142" relative="1" as="geometry">
            <mxPoint as="offset" />
          </mxGeometry>
        </mxCell>
        <mxCell id="5wmdt2vZX--WFt-d1MJV-93" value="Num. Doc&lt;br&gt;duplicado?" style="rhombus;whiteSpace=wrap;html=1;rounded=1;glass=0;strokeWidth=1;shadow=0;" parent="WIyWlLk6GJQsqaUBKTNV-1" vertex="1">
          <mxGeometry x="890" y="2000" width="80" height="80" as="geometry" />
        </mxCell>
        <mxCell id="5wmdt2vZX--WFt-d1MJV-106" value="" style="edgeStyle=orthogonalEdgeStyle;rounded=0;orthogonalLoop=1;jettySize=auto;html=1;" parent="WIyWlLk6GJQsqaUBKTNV-1" source="5wmdt2vZX--WFt-d1MJV-103" target="5wmdt2vZX--WFt-d1MJV-105" edge="1">
          <mxGeometry relative="1" as="geometry" />
        </mxCell>
        <mxCell id="5wmdt2vZX--WFt-d1MJV-103" value="Registrar&amp;nbsp;&lt;br&gt;EUSCO&lt;br&gt;(AS-400)" style="rounded=1;whiteSpace=wrap;html=1;fontSize=12;glass=0;strokeWidth=1;shadow=0;" parent="WIyWlLk6GJQsqaUBKTNV-1" vertex="1">
          <mxGeometry x="1315.5" y="1900" width="120" height="50" as="geometry" />
        </mxCell>
        <mxCell id="5wmdt2vZX--WFt-d1MJV-108" value="" style="edgeStyle=orthogonalEdgeStyle;rounded=0;orthogonalLoop=1;jettySize=auto;html=1;" parent="WIyWlLk6GJQsqaUBKTNV-1" source="5wmdt2vZX--WFt-d1MJV-105" target="5wmdt2vZX--WFt-d1MJV-107" edge="1">
          <mxGeometry relative="1" as="geometry" />
        </mxCell>
        <mxCell id="5wmdt2vZX--WFt-d1MJV-105" value="Registrar&amp;nbsp;&lt;br&gt;EUSSERLOG&lt;br&gt;(AS-400)" style="rounded=1;whiteSpace=wrap;html=1;fontSize=12;glass=0;strokeWidth=1;shadow=0;" parent="WIyWlLk6GJQsqaUBKTNV-1" vertex="1">
          <mxGeometry x="1515.5" y="1900" width="120" height="50" as="geometry" />
        </mxCell>
        <mxCell id="5wmdt2vZX--WFt-d1MJV-111" style="edgeStyle=orthogonalEdgeStyle;rounded=0;orthogonalLoop=1;jettySize=auto;html=1;" parent="WIyWlLk6GJQsqaUBKTNV-1" source="5wmdt2vZX--WFt-d1MJV-107" target="5wmdt2vZX--WFt-d1MJV-109" edge="1">
          <mxGeometry relative="1" as="geometry" />
        </mxCell>
        <mxCell id="5wmdt2vZX--WFt-d1MJV-107" value="Registrar&amp;nbsp;&lt;br&gt;MTOR&lt;br&gt;(AS-400)" style="rounded=1;whiteSpace=wrap;html=1;fontSize=12;glass=0;strokeWidth=1;shadow=0;" parent="WIyWlLk6GJQsqaUBKTNV-1" vertex="1">
          <mxGeometry x="1515.5" y="2000" width="120" height="50" as="geometry" />
        </mxCell>
        <mxCell id="5wmdt2vZX--WFt-d1MJV-112" style="edgeStyle=orthogonalEdgeStyle;rounded=0;orthogonalLoop=1;jettySize=auto;html=1;" parent="WIyWlLk6GJQsqaUBKTNV-1" source="5wmdt2vZX--WFt-d1MJV-109" target="5wmdt2vZX--WFt-d1MJV-110" edge="1">
          <mxGeometry relative="1" as="geometry" />
        </mxCell>
        <mxCell id="5wmdt2vZX--WFt-d1MJV-109" value="Registrar&lt;br&gt;BIFNET_TUSU&lt;br style=&quot;border-color: var(--border-color);&quot;&gt;(MSSQL)" style="rounded=1;whiteSpace=wrap;html=1;fontSize=12;glass=0;strokeWidth=1;shadow=0;" parent="WIyWlLk6GJQsqaUBKTNV-1" vertex="1">
          <mxGeometry x="1515.5" y="2090" width="120" height="60" as="geometry" />
        </mxCell>
        <mxCell id="5wmdt2vZX--WFt-d1MJV-114" style="edgeStyle=orthogonalEdgeStyle;rounded=0;orthogonalLoop=1;jettySize=auto;html=1;" parent="WIyWlLk6GJQsqaUBKTNV-1" source="5wmdt2vZX--WFt-d1MJV-110" target="5wmdt2vZX--WFt-d1MJV-113" edge="1">
          <mxGeometry relative="1" as="geometry" />
        </mxCell>
        <mxCell id="5wmdt2vZX--WFt-d1MJV-110" value="Registrar&lt;br&gt;BIFNET_REGUSU&lt;br style=&quot;border-color: var(--border-color);&quot;&gt;(MSSQL)" style="rounded=1;whiteSpace=wrap;html=1;fontSize=12;glass=0;strokeWidth=1;shadow=0;" parent="WIyWlLk6GJQsqaUBKTNV-1" vertex="1">
          <mxGeometry x="1515.5" y="2190" width="120" height="60" as="geometry" />
        </mxCell>
        <mxCell id="5wmdt2vZX--WFt-d1MJV-116" value="" style="edgeStyle=orthogonalEdgeStyle;rounded=0;orthogonalLoop=1;jettySize=auto;html=1;" parent="WIyWlLk6GJQsqaUBKTNV-1" source="5wmdt2vZX--WFt-d1MJV-113" target="5wmdt2vZX--WFt-d1MJV-115" edge="1">
          <mxGeometry relative="1" as="geometry" />
        </mxCell>
        <mxCell id="5wmdt2vZX--WFt-d1MJV-113" value="Registrar&lt;br&gt;BIFNET_REGUSU&lt;br style=&quot;border-color: var(--border-color);&quot;&gt;(MSSQL)" style="rounded=1;whiteSpace=wrap;html=1;fontSize=12;glass=0;strokeWidth=1;shadow=0;" parent="WIyWlLk6GJQsqaUBKTNV-1" vertex="1">
          <mxGeometry x="1515.5" y="2290" width="120" height="60" as="geometry" />
        </mxCell>
        <mxCell id="5wmdt2vZX--WFt-d1MJV-118" value="" style="edgeStyle=orthogonalEdgeStyle;rounded=0;orthogonalLoop=1;jettySize=auto;html=1;" parent="WIyWlLk6GJQsqaUBKTNV-1" source="5wmdt2vZX--WFt-d1MJV-115" target="5wmdt2vZX--WFt-d1MJV-117" edge="1">
          <mxGeometry relative="1" as="geometry" />
        </mxCell>
        <mxCell id="5wmdt2vZX--WFt-d1MJV-115" value="Generar Clave&amp;nbsp;&lt;br&gt;temporal" style="rounded=1;whiteSpace=wrap;html=1;fontSize=12;glass=0;strokeWidth=1;shadow=0;" parent="WIyWlLk6GJQsqaUBKTNV-1" vertex="1">
          <mxGeometry x="1515.5" y="2400" width="120" height="60" as="geometry" />
        </mxCell>
        <mxCell id="5wmdt2vZX--WFt-d1MJV-120" value="" style="edgeStyle=orthogonalEdgeStyle;rounded=0;orthogonalLoop=1;jettySize=auto;html=1;" parent="WIyWlLk6GJQsqaUBKTNV-1" source="5wmdt2vZX--WFt-d1MJV-117" target="5wmdt2vZX--WFt-d1MJV-119" edge="1">
          <mxGeometry relative="1" as="geometry" />
        </mxCell>
        <mxCell id="5wmdt2vZX--WFt-d1MJV-117" value="Registrar&lt;br style=&quot;border-color: var(--border-color);&quot;&gt;USRPROFILE&lt;br style=&quot;border-color: var(--border-color);&quot;&gt;(MSSQL)" style="rounded=1;whiteSpace=wrap;html=1;fontSize=12;glass=0;strokeWidth=1;shadow=0;" parent="WIyWlLk6GJQsqaUBKTNV-1" vertex="1">
          <mxGeometry x="1515.5" y="2510" width="120" height="60" as="geometry" />
        </mxCell>
        <mxCell id="5wmdt2vZX--WFt-d1MJV-122" value="" style="edgeStyle=orthogonalEdgeStyle;rounded=0;orthogonalLoop=1;jettySize=auto;html=1;" parent="WIyWlLk6GJQsqaUBKTNV-1" source="5wmdt2vZX--WFt-d1MJV-119" target="5wmdt2vZX--WFt-d1MJV-121" edge="1">
          <mxGeometry relative="1" as="geometry" />
        </mxCell>
        <mxCell id="5wmdt2vZX--WFt-d1MJV-119" value="Enviar correo por&amp;nbsp;&lt;br&gt;Registro Usuario&lt;br&gt;(Smtp-Banbif)" style="rounded=1;whiteSpace=wrap;html=1;fontSize=12;glass=0;strokeWidth=1;shadow=0;" parent="WIyWlLk6GJQsqaUBKTNV-1" vertex="1">
          <mxGeometry x="1515.5" y="2620" width="120" height="60" as="geometry" />
        </mxCell>
        <mxCell id="5wmdt2vZX--WFt-d1MJV-124" value="" style="edgeStyle=orthogonalEdgeStyle;rounded=0;orthogonalLoop=1;jettySize=auto;html=1;" parent="WIyWlLk6GJQsqaUBKTNV-1" source="5wmdt2vZX--WFt-d1MJV-121" target="5wmdt2vZX--WFt-d1MJV-123" edge="1">
          <mxGeometry relative="1" as="geometry" />
        </mxCell>
        <mxCell id="5wmdt2vZX--WFt-d1MJV-121" value="Registrar&lt;br style=&quot;border-color: var(--border-color);&quot;&gt;Entity-Token&lt;br style=&quot;border-color: var(--border-color);&quot;&gt;(MSSQL)" style="rounded=1;whiteSpace=wrap;html=1;fontSize=12;glass=0;strokeWidth=1;shadow=0;" parent="WIyWlLk6GJQsqaUBKTNV-1" vertex="1">
          <mxGeometry x="1515.5" y="2730" width="120" height="60" as="geometry" />
        </mxCell>
        <mxCell id="5wmdt2vZX--WFt-d1MJV-123" value="Ejecutar Programa&lt;br&gt;ESS1007RI.PGM&lt;br&gt;(AS-400)" style="rounded=1;whiteSpace=wrap;html=1;fontSize=12;glass=0;strokeWidth=1;shadow=0;" parent="WIyWlLk6GJQsqaUBKTNV-1" vertex="1">
          <mxGeometry x="1515.5" y="2840" width="120" height="60" as="geometry" />
        </mxCell>
      </root>
    </mxGraphModel>
  </diagram>
  <diagram id="hmGwhrzHC0mrq0aKFQbu" name="TO-BE Crear Empresa">
    <mxGraphModel dx="2049" dy="1206" grid="1" gridSize="10" guides="1" tooltips="1" connect="1" arrows="1" fold="1" page="1" pageScale="1" pageWidth="1169" pageHeight="827" math="0" shadow="0">
      <root>
        <mxCell id="0" />
        <mxCell id="1" parent="0" />
        <mxCell id="7bofzL0aEkGTmmEdbWm9-6" value="" style="edgeStyle=orthogonalEdgeStyle;rounded=0;orthogonalLoop=1;jettySize=auto;html=1;" parent="1" source="1r9pgMrBuNeyQkIJNcmF-1" target="7bofzL0aEkGTmmEdbWm9-5" edge="1">
          <mxGeometry relative="1" as="geometry" />
        </mxCell>
        <mxCell id="1r9pgMrBuNeyQkIJNcmF-1" value="Crear Empresa" style="rounded=1;whiteSpace=wrap;html=1;fontSize=12;glass=0;strokeWidth=1;shadow=0;" parent="1" vertex="1">
          <mxGeometry x="484" y="39" width="120" height="40" as="geometry" />
        </mxCell>
        <mxCell id="1r9pgMrBuNeyQkIJNcmF-22" value="Mostrar pantalla&lt;br&gt;modificación" style="whiteSpace=wrap;html=1;rounded=1;glass=0;strokeWidth=1;shadow=0;" parent="1" vertex="1">
          <mxGeometry x="1290.5" y="1575" width="119.5" height="50" as="geometry" />
        </mxCell>
        <mxCell id="1r9pgMrBuNeyQkIJNcmF-23" style="edgeStyle=orthogonalEdgeStyle;rounded=0;orthogonalLoop=1;jettySize=auto;html=1;" parent="1" source="1r9pgMrBuNeyQkIJNcmF-132" target="1r9pgMrBuNeyQkIJNcmF-26" edge="1">
          <mxGeometry relative="1" as="geometry">
            <mxPoint x="1065" y="2900" as="sourcePoint" />
          </mxGeometry>
        </mxCell>
        <mxCell id="1r9pgMrBuNeyQkIJNcmF-24" style="edgeStyle=orthogonalEdgeStyle;rounded=0;orthogonalLoop=1;jettySize=auto;html=1;" parent="1" source="1r9pgMrBuNeyQkIJNcmF-25" target="1r9pgMrBuNeyQkIJNcmF-1" edge="1">
          <mxGeometry relative="1" as="geometry" />
        </mxCell>
        <mxCell id="1r9pgMrBuNeyQkIJNcmF-25" value="Inicio" style="ellipse;whiteSpace=wrap;html=1;aspect=fixed;fillColor=#dae8fc;strokeColor=#6c8ebf;" parent="1" vertex="1">
          <mxGeometry x="280" y="34" width="50" height="50" as="geometry" />
        </mxCell>
        <mxCell id="1r9pgMrBuNeyQkIJNcmF-26" value="Fin" style="ellipse;whiteSpace=wrap;html=1;aspect=fixed;fillColor=#dae8fc;strokeColor=#6c8ebf;" parent="1" vertex="1">
          <mxGeometry x="1039.5" y="2930" width="50" height="50" as="geometry" />
        </mxCell>
        <mxCell id="1r9pgMrBuNeyQkIJNcmF-27" value="Fin" style="ellipse;whiteSpace=wrap;html=1;aspect=fixed;fillColor=#dae8fc;strokeColor=#6c8ebf;" parent="1" vertex="1">
          <mxGeometry x="335" y="540" width="50" height="50" as="geometry" />
        </mxCell>
        <mxCell id="1r9pgMrBuNeyQkIJNcmF-42" style="edgeStyle=orthogonalEdgeStyle;rounded=0;orthogonalLoop=1;jettySize=auto;html=1;" parent="1" source="1r9pgMrBuNeyQkIJNcmF-46" target="1r9pgMrBuNeyQkIJNcmF-48" edge="1">
          <mxGeometry relative="1" as="geometry" />
        </mxCell>
        <mxCell id="1r9pgMrBuNeyQkIJNcmF-43" value="No" style="edgeLabel;html=1;align=center;verticalAlign=middle;resizable=0;points=[];" parent="1r9pgMrBuNeyQkIJNcmF-42" vertex="1" connectable="0">
          <mxGeometry x="-0.2615" y="4" relative="1" as="geometry">
            <mxPoint as="offset" />
          </mxGeometry>
        </mxCell>
        <mxCell id="1r9pgMrBuNeyQkIJNcmF-44" style="edgeStyle=orthogonalEdgeStyle;rounded=0;orthogonalLoop=1;jettySize=auto;html=1;" parent="1" source="1r9pgMrBuNeyQkIJNcmF-46" target="1r9pgMrBuNeyQkIJNcmF-50" edge="1">
          <mxGeometry relative="1" as="geometry" />
        </mxCell>
        <mxCell id="1r9pgMrBuNeyQkIJNcmF-45" value="Si" style="edgeLabel;html=1;align=center;verticalAlign=middle;resizable=0;points=[];" parent="1r9pgMrBuNeyQkIJNcmF-44" vertex="1" connectable="0">
          <mxGeometry x="-0.2819" relative="1" as="geometry">
            <mxPoint as="offset" />
          </mxGeometry>
        </mxCell>
        <mxCell id="1r9pgMrBuNeyQkIJNcmF-46" value="Existe&lt;br&gt;Entidad&lt;br&gt;activa?" style="rhombus;whiteSpace=wrap;html=1;rounded=1;glass=0;strokeWidth=1;shadow=0;" parent="1" vertex="1">
          <mxGeometry x="504" y="610" width="80" height="80" as="geometry" />
        </mxCell>
        <mxCell id="1r9pgMrBuNeyQkIJNcmF-47" value="" style="edgeStyle=orthogonalEdgeStyle;rounded=0;orthogonalLoop=1;jettySize=auto;html=1;" parent="1" source="1r9pgMrBuNeyQkIJNcmF-48" target="1r9pgMrBuNeyQkIJNcmF-78" edge="1">
          <mxGeometry relative="1" as="geometry" />
        </mxCell>
        <mxCell id="1r9pgMrBuNeyQkIJNcmF-48" value="Mostrar pantalla&lt;br&gt;Registrar Empresa" style="rounded=1;whiteSpace=wrap;html=1;fontSize=12;glass=0;strokeWidth=1;shadow=0;" parent="1" vertex="1">
          <mxGeometry x="483.75" y="855" width="120" height="50" as="geometry" />
        </mxCell>
        <mxCell id="1r9pgMrBuNeyQkIJNcmF-49" style="edgeStyle=orthogonalEdgeStyle;rounded=0;orthogonalLoop=1;jettySize=auto;html=1;" parent="1" source="1r9pgMrBuNeyQkIJNcmF-50" target="1r9pgMrBuNeyQkIJNcmF-58" edge="1">
          <mxGeometry relative="1" as="geometry" />
        </mxCell>
        <mxCell id="1r9pgMrBuNeyQkIJNcmF-50" value="Consultar&lt;br style=&quot;border-color: var(--border-color);&quot;&gt;Registro Usuario&lt;br style=&quot;border-color: var(--border-color);&quot;&gt;(MSSQL)" style="rounded=1;whiteSpace=wrap;html=1;fontSize=12;glass=0;strokeWidth=1;shadow=0;" parent="1" vertex="1">
          <mxGeometry x="1290" y="855" width="120" height="50" as="geometry" />
        </mxCell>
        <mxCell id="1r9pgMrBuNeyQkIJNcmF-51" value="" style="edgeStyle=orthogonalEdgeStyle;rounded=0;orthogonalLoop=1;jettySize=auto;html=1;" parent="1" source="1r9pgMrBuNeyQkIJNcmF-52" target="1r9pgMrBuNeyQkIJNcmF-63" edge="1">
          <mxGeometry relative="1" as="geometry" />
        </mxCell>
        <mxCell id="1r9pgMrBuNeyQkIJNcmF-52" value="Consultar&lt;br style=&quot;border-color: var(--border-color);&quot;&gt;Registro Admin UserProfile&lt;br style=&quot;border-color: var(--border-color);&quot;&gt;(MSSQL)" style="rounded=1;whiteSpace=wrap;html=1;fontSize=12;glass=0;strokeWidth=1;shadow=0;" parent="1" vertex="1">
          <mxGeometry x="1480" y="965" width="120" height="60" as="geometry" />
        </mxCell>
        <mxCell id="1r9pgMrBuNeyQkIJNcmF-53" value="&lt;h6&gt;&lt;div style=&quot;text-align: justify;&quot;&gt;&lt;span style=&quot;font-size: 6px; background-color: initial;&quot;&gt;Consulta por:&lt;/span&gt;&lt;/div&gt;&lt;font style=&quot;font-size: 6px;&quot;&gt;&lt;font style=&quot;&quot;&gt;&lt;span style=&quot;font-weight: normal;&quot;&gt;1. Código cliente&lt;br&gt;2. Entidad&lt;/span&gt;&lt;br&gt;&lt;/font&gt;&lt;/font&gt;&lt;/h6&gt;&lt;p&gt;&lt;/p&gt;" style="strokeWidth=1;shadow=0;dashed=0;align=center;html=1;shape=mxgraph.mockup.text.stickyNote2;fontColor=#666666;mainText=;fontSize=17;whiteSpace=wrap;fillColor=#ffffcc;strokeColor=#F62E00;" parent="1" vertex="1">
          <mxGeometry x="1409" y="825" width="71" height="50" as="geometry" />
        </mxCell>
        <mxCell id="1r9pgMrBuNeyQkIJNcmF-54" style="edgeStyle=orthogonalEdgeStyle;rounded=0;orthogonalLoop=1;jettySize=auto;html=1;" parent="1" source="1r9pgMrBuNeyQkIJNcmF-58" target="1r9pgMrBuNeyQkIJNcmF-60" edge="1">
          <mxGeometry relative="1" as="geometry" />
        </mxCell>
        <mxCell id="1r9pgMrBuNeyQkIJNcmF-55" value="Si" style="edgeLabel;html=1;align=center;verticalAlign=middle;resizable=0;points=[];" parent="1r9pgMrBuNeyQkIJNcmF-54" vertex="1" connectable="0">
          <mxGeometry x="-0.3308" y="3" relative="1" as="geometry">
            <mxPoint as="offset" />
          </mxGeometry>
        </mxCell>
        <mxCell id="1r9pgMrBuNeyQkIJNcmF-56" style="edgeStyle=orthogonalEdgeStyle;rounded=0;orthogonalLoop=1;jettySize=auto;html=1;" parent="1" source="1r9pgMrBuNeyQkIJNcmF-58" target="1r9pgMrBuNeyQkIJNcmF-52" edge="1">
          <mxGeometry relative="1" as="geometry" />
        </mxCell>
        <mxCell id="1r9pgMrBuNeyQkIJNcmF-57" value="No" style="edgeLabel;html=1;align=center;verticalAlign=middle;resizable=0;points=[];" parent="1r9pgMrBuNeyQkIJNcmF-56" vertex="1" connectable="0">
          <mxGeometry x="-0.2187" relative="1" as="geometry">
            <mxPoint x="-4" y="-10" as="offset" />
          </mxGeometry>
        </mxCell>
        <mxCell id="1r9pgMrBuNeyQkIJNcmF-58" value="Existe&lt;br&gt;BIFNET&lt;br&gt;REGUSU?" style="rhombus;whiteSpace=wrap;html=1;rounded=1;glass=0;strokeWidth=1;shadow=0;" parent="1" vertex="1">
          <mxGeometry x="1310" y="955" width="80" height="80" as="geometry" />
        </mxCell>
        <mxCell id="1r9pgMrBuNeyQkIJNcmF-59" style="edgeStyle=orthogonalEdgeStyle;rounded=0;orthogonalLoop=1;jettySize=auto;html=1;" parent="1" source="1r9pgMrBuNeyQkIJNcmF-60" target="1r9pgMrBuNeyQkIJNcmF-70" edge="1">
          <mxGeometry relative="1" as="geometry" />
        </mxCell>
        <mxCell id="1r9pgMrBuNeyQkIJNcmF-60" value="Consultar&lt;br style=&quot;border-color: var(--border-color);&quot;&gt;Entity Extension&lt;br style=&quot;border-color: var(--border-color);&quot;&gt;(MSSQL)" style="rounded=1;whiteSpace=wrap;html=1;fontSize=12;glass=0;strokeWidth=1;shadow=0;" parent="1" vertex="1">
          <mxGeometry x="1290" y="1122" width="120" height="50" as="geometry" />
        </mxCell>
        <mxCell id="1r9pgMrBuNeyQkIJNcmF-61" value="&lt;h6&gt;&lt;div style=&quot;text-align: justify;&quot;&gt;&lt;span style=&quot;font-size: 6px; background-color: initial;&quot;&gt;Consulta por:&lt;/span&gt;&lt;/div&gt;&lt;font style=&quot;font-size: 6px;&quot;&gt;&lt;font style=&quot;&quot;&gt;&lt;span style=&quot;font-weight: normal;&quot;&gt;1. Código cliente&lt;br&gt;2. Entidad&lt;/span&gt;&lt;br&gt;&lt;/font&gt;&lt;/font&gt;&lt;/h6&gt;&lt;p&gt;&lt;/p&gt;" style="strokeWidth=1;shadow=0;dashed=0;align=center;html=1;shape=mxgraph.mockup.text.stickyNote2;fontColor=#666666;mainText=;fontSize=17;whiteSpace=wrap;fillColor=#ffffcc;strokeColor=#F62E00;" parent="1" vertex="1">
          <mxGeometry x="1570" y="915" width="71" height="50" as="geometry" />
        </mxCell>
        <mxCell id="1r9pgMrBuNeyQkIJNcmF-62" value="" style="edgeStyle=orthogonalEdgeStyle;rounded=0;orthogonalLoop=1;jettySize=auto;html=1;" parent="1" source="1r9pgMrBuNeyQkIJNcmF-63" target="1r9pgMrBuNeyQkIJNcmF-65" edge="1">
          <mxGeometry relative="1" as="geometry" />
        </mxCell>
        <mxCell id="1r9pgMrBuNeyQkIJNcmF-63" value="Registrar&lt;br&gt;BIFNET_TUSU&lt;br style=&quot;border-color: var(--border-color);&quot;&gt;(MSSQL)" style="rounded=1;whiteSpace=wrap;html=1;fontSize=12;glass=0;strokeWidth=1;shadow=0;" parent="1" vertex="1">
          <mxGeometry x="1670.75" y="965" width="120" height="60" as="geometry" />
        </mxCell>
        <mxCell id="1r9pgMrBuNeyQkIJNcmF-64" style="edgeStyle=orthogonalEdgeStyle;rounded=0;orthogonalLoop=1;jettySize=auto;html=1;entryX=1;entryY=0.5;entryDx=0;entryDy=0;" parent="1" source="1r9pgMrBuNeyQkIJNcmF-65" target="1r9pgMrBuNeyQkIJNcmF-60" edge="1">
          <mxGeometry relative="1" as="geometry">
            <Array as="points">
              <mxPoint x="2020" y="995" />
              <mxPoint x="2020" y="1147" />
            </Array>
          </mxGeometry>
        </mxCell>
        <mxCell id="1r9pgMrBuNeyQkIJNcmF-65" value="Registrar&lt;br&gt;BIFNET_REGUSU&lt;br style=&quot;border-color: var(--border-color);&quot;&gt;(MSSQL)" style="rounded=1;whiteSpace=wrap;html=1;fontSize=12;glass=0;strokeWidth=1;shadow=0;" parent="1" vertex="1">
          <mxGeometry x="1859.5" y="965" width="120" height="60" as="geometry" />
        </mxCell>
        <mxCell id="1r9pgMrBuNeyQkIJNcmF-66" style="edgeStyle=orthogonalEdgeStyle;rounded=0;orthogonalLoop=1;jettySize=auto;html=1;" parent="1" source="1r9pgMrBuNeyQkIJNcmF-70" target="1r9pgMrBuNeyQkIJNcmF-71" edge="1">
          <mxGeometry relative="1" as="geometry" />
        </mxCell>
        <mxCell id="1r9pgMrBuNeyQkIJNcmF-67" value="No" style="edgeLabel;html=1;align=center;verticalAlign=middle;resizable=0;points=[];" parent="1r9pgMrBuNeyQkIJNcmF-66" vertex="1" connectable="0">
          <mxGeometry x="-0.1851" relative="1" as="geometry">
            <mxPoint y="-10" as="offset" />
          </mxGeometry>
        </mxCell>
        <mxCell id="1r9pgMrBuNeyQkIJNcmF-68" style="edgeStyle=orthogonalEdgeStyle;rounded=0;orthogonalLoop=1;jettySize=auto;html=1;" parent="1" source="1r9pgMrBuNeyQkIJNcmF-70" target="1r9pgMrBuNeyQkIJNcmF-74" edge="1">
          <mxGeometry relative="1" as="geometry" />
        </mxCell>
        <mxCell id="1r9pgMrBuNeyQkIJNcmF-69" value="Si" style="edgeLabel;html=1;align=center;verticalAlign=middle;resizable=0;points=[];" parent="1r9pgMrBuNeyQkIJNcmF-68" vertex="1" connectable="0">
          <mxGeometry x="-0.3529" relative="1" as="geometry">
            <mxPoint as="offset" />
          </mxGeometry>
        </mxCell>
        <mxCell id="1r9pgMrBuNeyQkIJNcmF-70" value="Existe en&lt;br&gt;ENTITY&lt;br&gt;EXTENSION?" style="rhombus;whiteSpace=wrap;html=1;rounded=1;glass=0;strokeWidth=1;shadow=0;" parent="1" vertex="1">
          <mxGeometry x="1310" y="1225" width="80" height="80" as="geometry" />
        </mxCell>
        <mxCell id="1r9pgMrBuNeyQkIJNcmF-71" value="Registrar&lt;br&gt;BIFNET_REGUSU&lt;br style=&quot;border-color: var(--border-color);&quot;&gt;(MSSQL)" style="rounded=1;whiteSpace=wrap;html=1;fontSize=12;glass=0;strokeWidth=1;shadow=0;" parent="1" vertex="1">
          <mxGeometry x="1480" y="1235" width="120" height="60" as="geometry" />
        </mxCell>
        <mxCell id="1r9pgMrBuNeyQkIJNcmF-72" value="&lt;h6&gt;&lt;div style=&quot;text-align: justify;&quot;&gt;&lt;span style=&quot;font-size: 6px; background-color: initial;&quot;&gt;Consulta por:&lt;/span&gt;&lt;/div&gt;&lt;font style=&quot;font-size: 6px;&quot;&gt;&lt;font style=&quot;&quot;&gt;&lt;span style=&quot;font-weight: normal;&quot;&gt;1. Código cliente&lt;br&gt;2. Entidad&lt;/span&gt;&lt;br&gt;&lt;/font&gt;&lt;/font&gt;&lt;/h6&gt;&lt;p&gt;&lt;/p&gt;" style="strokeWidth=1;shadow=0;dashed=0;align=center;html=1;shape=mxgraph.mockup.text.stickyNote2;fontColor=#666666;mainText=;fontSize=17;whiteSpace=wrap;fillColor=#ffffcc;strokeColor=#F62E00;" parent="1" vertex="1">
          <mxGeometry x="1410" y="1085" width="71" height="50" as="geometry" />
        </mxCell>
        <mxCell id="1r9pgMrBuNeyQkIJNcmF-73" style="edgeStyle=orthogonalEdgeStyle;rounded=0;orthogonalLoop=1;jettySize=auto;html=1;" parent="1" source="1r9pgMrBuNeyQkIJNcmF-74" target="1r9pgMrBuNeyQkIJNcmF-76" edge="1">
          <mxGeometry relative="1" as="geometry" />
        </mxCell>
        <mxCell id="1r9pgMrBuNeyQkIJNcmF-74" value="Consultar&lt;br style=&quot;border-color: var(--border-color);&quot;&gt;User Profile&lt;br style=&quot;border-color: var(--border-color);&quot;&gt;(MSSQL)" style="rounded=1;whiteSpace=wrap;html=1;fontSize=12;glass=0;strokeWidth=1;shadow=0;" parent="1" vertex="1">
          <mxGeometry x="1290" y="1355" width="120" height="50" as="geometry" />
        </mxCell>
        <mxCell id="1r9pgMrBuNeyQkIJNcmF-75" style="edgeStyle=orthogonalEdgeStyle;rounded=0;orthogonalLoop=1;jettySize=auto;html=1;" parent="1" source="1r9pgMrBuNeyQkIJNcmF-76" target="1r9pgMrBuNeyQkIJNcmF-22" edge="1">
          <mxGeometry relative="1" as="geometry" />
        </mxCell>
        <mxCell id="1r9pgMrBuNeyQkIJNcmF-76" value="Existe en&lt;br&gt;USRPROFILE?" style="rhombus;whiteSpace=wrap;html=1;rounded=1;glass=0;strokeWidth=1;shadow=0;" parent="1" vertex="1">
          <mxGeometry x="1310" y="1445" width="80" height="80" as="geometry" />
        </mxCell>
        <mxCell id="1r9pgMrBuNeyQkIJNcmF-77" value="" style="edgeStyle=orthogonalEdgeStyle;rounded=0;orthogonalLoop=1;jettySize=auto;html=1;" parent="1" source="1r9pgMrBuNeyQkIJNcmF-78" target="1r9pgMrBuNeyQkIJNcmF-82" edge="1">
          <mxGeometry relative="1" as="geometry" />
        </mxCell>
        <mxCell id="1r9pgMrBuNeyQkIJNcmF-78" value="Ingresar datos&lt;br&gt;de registro" style="rounded=1;whiteSpace=wrap;html=1;fontSize=12;glass=0;strokeWidth=1;shadow=0;" parent="1" vertex="1">
          <mxGeometry x="483.75" y="985" width="120" height="50" as="geometry" />
        </mxCell>
        <mxCell id="1r9pgMrBuNeyQkIJNcmF-79" style="edgeStyle=orthogonalEdgeStyle;rounded=0;orthogonalLoop=1;jettySize=auto;html=1;" parent="1" source="1r9pgMrBuNeyQkIJNcmF-80" target="1r9pgMrBuNeyQkIJNcmF-78" edge="1">
          <mxGeometry relative="1" as="geometry" />
        </mxCell>
        <mxCell id="1r9pgMrBuNeyQkIJNcmF-80" value="&lt;h6&gt;&lt;/h6&gt;&lt;h6 style=&quot;text-align: justify;&quot;&gt;&lt;span style=&quot;background-color: initial; font-size: 11px;&quot;&gt;Datos de Registro:&lt;/span&gt;&lt;br&gt;&lt;/h6&gt;&lt;h6 style=&quot;text-align: justify;&quot;&gt;&lt;ol&gt;&lt;li style=&quot;border-color: var(--border-color);&quot;&gt;&lt;font style=&quot;font-size: 8px; font-weight: normal;&quot; face=&quot;Helvetica&quot;&gt;Nombre Entidad&lt;/font&gt;&lt;/li&gt;&lt;li style=&quot;border-color: var(--border-color);&quot;&gt;&lt;font face=&quot;Helvetica&quot; style=&quot;font-size: 8px; font-weight: normal;&quot;&gt;Id usuario Admin&lt;/font&gt;&lt;/li&gt;&lt;li style=&quot;border-color: var(--border-color);&quot;&gt;&lt;font style=&quot;font-size: 8px; font-weight: normal;&quot; face=&quot;Helvetica&quot;&gt;Cuenta Cargo&lt;/font&gt;&lt;/li&gt;&lt;li style=&quot;border-color: var(--border-color);&quot;&gt;&lt;font style=&quot;font-size: 8px; font-weight: normal;&quot; face=&quot;Helvetica&quot;&gt;Dirección e-mail&lt;/font&gt;&lt;/li&gt;&lt;li style=&quot;border-color: var(--border-color);&quot;&gt;&lt;font face=&quot;Helvetica&quot; style=&quot;font-size: 8px; font-weight: normal;&quot;&gt;Nombres y Apellidos&lt;/font&gt;&lt;/li&gt;&lt;li style=&quot;border-color: var(--border-color);&quot;&gt;&lt;font face=&quot;Helvetica&quot; style=&quot;font-size: 8px; font-weight: normal;&quot;&gt;Número de documento&lt;/font&gt;&lt;/li&gt;&lt;li style=&quot;border-color: var(--border-color);&quot;&gt;&lt;font face=&quot;Helvetica&quot; style=&quot;font-size: 8px; font-weight: normal;&quot;&gt;Versión (Consulta / Full)&lt;/font&gt;&lt;/li&gt;&lt;li style=&quot;border-color: var(--border-color);&quot;&gt;&lt;font style=&quot;font-size: 8px; font-weight: normal;&quot;&gt;Tipo token (Físico / Digital)&lt;/font&gt;&lt;/li&gt;&lt;/ol&gt;&lt;/h6&gt;&lt;p&gt;&lt;/p&gt;" style="strokeWidth=1;shadow=0;dashed=0;align=center;html=1;shape=mxgraph.mockup.text.stickyNote2;fontColor=#666666;mainText=;fontSize=17;whiteSpace=wrap;fillColor=#ffffcc;strokeColor=#F62E00;" parent="1" vertex="1">
          <mxGeometry x="253.75" y="910" width="190" height="200" as="geometry" />
        </mxCell>
        <mxCell id="1r9pgMrBuNeyQkIJNcmF-81" style="edgeStyle=orthogonalEdgeStyle;rounded=0;orthogonalLoop=1;jettySize=auto;html=1;" parent="1" source="1r9pgMrBuNeyQkIJNcmF-82" target="1r9pgMrBuNeyQkIJNcmF-84" edge="1">
          <mxGeometry relative="1" as="geometry" />
        </mxCell>
        <mxCell id="1r9pgMrBuNeyQkIJNcmF-82" value="Procesar Guardar" style="rounded=1;whiteSpace=wrap;html=1;fontSize=12;glass=0;strokeWidth=1;shadow=0;" parent="1" vertex="1">
          <mxGeometry x="483.75" y="1105" width="120" height="50" as="geometry" />
        </mxCell>
        <mxCell id="1r9pgMrBuNeyQkIJNcmF-83" style="edgeStyle=orthogonalEdgeStyle;rounded=0;orthogonalLoop=1;jettySize=auto;html=1;" parent="1" source="1r9pgMrBuNeyQkIJNcmF-84" target="1r9pgMrBuNeyQkIJNcmF-89" edge="1">
          <mxGeometry relative="1" as="geometry" />
        </mxCell>
        <mxCell id="1r9pgMrBuNeyQkIJNcmF-84" value="Consultar&lt;br style=&quot;border-color: var(--border-color);&quot;&gt;Estado Entidad&lt;br style=&quot;border-color: var(--border-color);&quot;&gt;(AS-400)" style="rounded=1;whiteSpace=wrap;html=1;fontSize=12;glass=0;strokeWidth=1;shadow=0;fillColor=#f8cecc;strokeColor=#b85450;" parent="1" vertex="1">
          <mxGeometry x="483.75" y="1210" width="120" height="50" as="geometry" />
        </mxCell>
        <mxCell id="1r9pgMrBuNeyQkIJNcmF-85" style="edgeStyle=orthogonalEdgeStyle;rounded=0;orthogonalLoop=1;jettySize=auto;html=1;" parent="1" source="1r9pgMrBuNeyQkIJNcmF-89" target="1r9pgMrBuNeyQkIJNcmF-91" edge="1">
          <mxGeometry relative="1" as="geometry" />
        </mxCell>
        <mxCell id="1r9pgMrBuNeyQkIJNcmF-86" value="Si" style="edgeLabel;html=1;align=center;verticalAlign=middle;resizable=0;points=[];" parent="1r9pgMrBuNeyQkIJNcmF-85" vertex="1" connectable="0">
          <mxGeometry x="-0.3186" y="1" relative="1" as="geometry">
            <mxPoint x="2" y="-6" as="offset" />
          </mxGeometry>
        </mxCell>
        <mxCell id="1r9pgMrBuNeyQkIJNcmF-87" style="edgeStyle=orthogonalEdgeStyle;rounded=0;orthogonalLoop=1;jettySize=auto;html=1;" parent="1" source="1r9pgMrBuNeyQkIJNcmF-89" target="1r9pgMrBuNeyQkIJNcmF-93" edge="1">
          <mxGeometry relative="1" as="geometry" />
        </mxCell>
        <mxCell id="1r9pgMrBuNeyQkIJNcmF-88" value="No" style="edgeLabel;html=1;align=center;verticalAlign=middle;resizable=0;points=[];" parent="1r9pgMrBuNeyQkIJNcmF-87" vertex="1" connectable="0">
          <mxGeometry x="-0.3421" y="2" relative="1" as="geometry">
            <mxPoint as="offset" />
          </mxGeometry>
        </mxCell>
        <mxCell id="1r9pgMrBuNeyQkIJNcmF-89" value="Existe &lt;br&gt;entidad Activa?" style="rhombus;whiteSpace=wrap;html=1;rounded=1;glass=0;strokeWidth=1;shadow=0;" parent="1" vertex="1">
          <mxGeometry x="503.75" y="1307" width="80" height="80" as="geometry" />
        </mxCell>
        <mxCell id="1r9pgMrBuNeyQkIJNcmF-90" style="edgeStyle=orthogonalEdgeStyle;rounded=0;orthogonalLoop=1;jettySize=auto;html=1;entryX=0;entryY=0.5;entryDx=0;entryDy=0;" parent="1" source="1r9pgMrBuNeyQkIJNcmF-91" target="1r9pgMrBuNeyQkIJNcmF-48" edge="1">
          <mxGeometry relative="1" as="geometry">
            <Array as="points">
              <mxPoint x="173.75" y="1355" />
              <mxPoint x="173.75" y="880" />
            </Array>
          </mxGeometry>
        </mxCell>
        <mxCell id="1r9pgMrBuNeyQkIJNcmF-91" value="Mostrar mensaje&lt;br&gt;al usuario" style="rounded=1;whiteSpace=wrap;html=1;fontSize=12;glass=0;strokeWidth=1;shadow=0;" parent="1" vertex="1">
          <mxGeometry x="253.75" y="1327" width="120" height="40" as="geometry" />
        </mxCell>
        <mxCell id="1r9pgMrBuNeyQkIJNcmF-92" style="edgeStyle=orthogonalEdgeStyle;rounded=0;orthogonalLoop=1;jettySize=auto;html=1;" parent="1" source="1r9pgMrBuNeyQkIJNcmF-93" target="1r9pgMrBuNeyQkIJNcmF-97" edge="1">
          <mxGeometry relative="1" as="geometry" />
        </mxCell>
        <mxCell id="1r9pgMrBuNeyQkIJNcmF-93" value="Validar&lt;br style=&quot;border-color: var(--border-color);&quot;&gt;Nombre Entidad&lt;br style=&quot;border-color: var(--border-color);&quot;&gt;(AS-400)" style="rounded=1;whiteSpace=wrap;html=1;fontSize=12;glass=0;strokeWidth=1;shadow=0;" parent="1" vertex="1">
          <mxGeometry x="483.75" y="1445" width="120" height="50" as="geometry" />
        </mxCell>
        <mxCell id="1r9pgMrBuNeyQkIJNcmF-94" style="edgeStyle=orthogonalEdgeStyle;rounded=0;orthogonalLoop=1;jettySize=auto;html=1;" parent="1" source="1r9pgMrBuNeyQkIJNcmF-97" target="1r9pgMrBuNeyQkIJNcmF-91" edge="1">
          <mxGeometry relative="1" as="geometry" />
        </mxCell>
        <mxCell id="1r9pgMrBuNeyQkIJNcmF-95" value="Si" style="edgeLabel;html=1;align=center;verticalAlign=middle;resizable=0;points=[];" parent="1r9pgMrBuNeyQkIJNcmF-94" vertex="1" connectable="0">
          <mxGeometry x="-0.7786" y="1" relative="1" as="geometry">
            <mxPoint as="offset" />
          </mxGeometry>
        </mxCell>
        <mxCell id="1r9pgMrBuNeyQkIJNcmF-96" value="" style="edgeStyle=orthogonalEdgeStyle;rounded=0;orthogonalLoop=1;jettySize=auto;html=1;" parent="1" source="1r9pgMrBuNeyQkIJNcmF-97" target="1r9pgMrBuNeyQkIJNcmF-102" edge="1">
          <mxGeometry relative="1" as="geometry" />
        </mxCell>
        <mxCell id="1r9pgMrBuNeyQkIJNcmF-97" value="Nombre entidad&lt;br&gt;duplicado?" style="rhombus;whiteSpace=wrap;html=1;rounded=1;glass=0;strokeWidth=1;shadow=0;" parent="1" vertex="1">
          <mxGeometry x="503.75" y="1544" width="80" height="80" as="geometry" />
        </mxCell>
        <mxCell id="1r9pgMrBuNeyQkIJNcmF-98" style="edgeStyle=orthogonalEdgeStyle;rounded=0;orthogonalLoop=1;jettySize=auto;html=1;" parent="1" source="1r9pgMrBuNeyQkIJNcmF-102" target="1r9pgMrBuNeyQkIJNcmF-104" edge="1">
          <mxGeometry relative="1" as="geometry" />
        </mxCell>
        <mxCell id="1r9pgMrBuNeyQkIJNcmF-99" value="Si" style="edgeLabel;html=1;align=center;verticalAlign=middle;resizable=0;points=[];" parent="1r9pgMrBuNeyQkIJNcmF-98" vertex="1" connectable="0">
          <mxGeometry x="-0.4949" y="1" relative="1" as="geometry">
            <mxPoint as="offset" />
          </mxGeometry>
        </mxCell>
        <mxCell id="1r9pgMrBuNeyQkIJNcmF-100" style="edgeStyle=orthogonalEdgeStyle;rounded=0;orthogonalLoop=1;jettySize=auto;html=1;" parent="1" source="1r9pgMrBuNeyQkIJNcmF-102" target="1r9pgMrBuNeyQkIJNcmF-106" edge="1">
          <mxGeometry relative="1" as="geometry" />
        </mxCell>
        <mxCell id="1r9pgMrBuNeyQkIJNcmF-101" value="No" style="edgeLabel;html=1;align=center;verticalAlign=middle;resizable=0;points=[];" parent="1r9pgMrBuNeyQkIJNcmF-100" vertex="1" connectable="0">
          <mxGeometry x="-0.342" y="-2" relative="1" as="geometry">
            <mxPoint as="offset" />
          </mxGeometry>
        </mxCell>
        <mxCell id="1r9pgMrBuNeyQkIJNcmF-102" value="Es token&lt;br&gt;Digital?" style="rhombus;whiteSpace=wrap;html=1;rounded=1;glass=0;strokeWidth=1;shadow=0;" parent="1" vertex="1">
          <mxGeometry x="504.75" y="1780" width="80" height="80" as="geometry" />
        </mxCell>
        <mxCell id="1r9pgMrBuNeyQkIJNcmF-103" style="edgeStyle=orthogonalEdgeStyle;rounded=0;orthogonalLoop=1;jettySize=auto;html=1;" parent="1" source="1r9pgMrBuNeyQkIJNcmF-104" target="1r9pgMrBuNeyQkIJNcmF-111" edge="1">
          <mxGeometry relative="1" as="geometry" />
        </mxCell>
        <mxCell id="1r9pgMrBuNeyQkIJNcmF-104" value="Validar Documento&lt;br&gt;Identidad&lt;br&gt;(MSSQL)" style="rounded=1;whiteSpace=wrap;html=1;fontSize=12;glass=0;strokeWidth=1;shadow=0;" parent="1" vertex="1">
          <mxGeometry x="354.75" y="1880" width="120" height="50" as="geometry" />
        </mxCell>
        <mxCell id="1r9pgMrBuNeyQkIJNcmF-105" value="" style="edgeStyle=orthogonalEdgeStyle;rounded=0;orthogonalLoop=1;jettySize=auto;html=1;" parent="1" source="1r9pgMrBuNeyQkIJNcmF-106" target="1r9pgMrBuNeyQkIJNcmF-113" edge="1">
          <mxGeometry relative="1" as="geometry" />
        </mxCell>
        <mxCell id="1r9pgMrBuNeyQkIJNcmF-106" value="Registrar Entidad&lt;br&gt;EUSER&lt;br&gt;(AS-400)" style="rounded=1;whiteSpace=wrap;html=1;fontSize=12;glass=0;strokeWidth=1;shadow=0;" parent="1" vertex="1">
          <mxGeometry x="600.25" y="1880" width="120" height="50" as="geometry" />
        </mxCell>
        <mxCell id="1r9pgMrBuNeyQkIJNcmF-107" style="edgeStyle=orthogonalEdgeStyle;rounded=0;orthogonalLoop=1;jettySize=auto;html=1;entryX=0.5;entryY=1;entryDx=0;entryDy=0;" parent="1" source="1r9pgMrBuNeyQkIJNcmF-111" target="1r9pgMrBuNeyQkIJNcmF-91" edge="1">
          <mxGeometry relative="1" as="geometry">
            <Array as="points">
              <mxPoint x="313.75" y="2020" />
            </Array>
          </mxGeometry>
        </mxCell>
        <mxCell id="1r9pgMrBuNeyQkIJNcmF-108" value="Si" style="edgeLabel;html=1;align=center;verticalAlign=middle;resizable=0;points=[];" parent="1r9pgMrBuNeyQkIJNcmF-107" vertex="1" connectable="0">
          <mxGeometry x="-0.9234" relative="1" as="geometry">
            <mxPoint as="offset" />
          </mxGeometry>
        </mxCell>
        <mxCell id="1r9pgMrBuNeyQkIJNcmF-109" style="edgeStyle=orthogonalEdgeStyle;rounded=0;orthogonalLoop=1;jettySize=auto;html=1;" parent="1" source="1r9pgMrBuNeyQkIJNcmF-111" target="1r9pgMrBuNeyQkIJNcmF-106" edge="1">
          <mxGeometry relative="1" as="geometry" />
        </mxCell>
        <mxCell id="1r9pgMrBuNeyQkIJNcmF-110" value="No" style="edgeLabel;html=1;align=center;verticalAlign=middle;resizable=0;points=[];" parent="1r9pgMrBuNeyQkIJNcmF-109" vertex="1" connectable="0">
          <mxGeometry x="-0.6142" relative="1" as="geometry">
            <mxPoint as="offset" />
          </mxGeometry>
        </mxCell>
        <mxCell id="1r9pgMrBuNeyQkIJNcmF-111" value="Num. Doc&lt;br&gt;duplicado?" style="rhombus;whiteSpace=wrap;html=1;rounded=1;glass=0;strokeWidth=1;shadow=0;" parent="1" vertex="1">
          <mxGeometry x="374.75" y="1980" width="80" height="80" as="geometry" />
        </mxCell>
        <mxCell id="1r9pgMrBuNeyQkIJNcmF-112" value="" style="edgeStyle=orthogonalEdgeStyle;rounded=0;orthogonalLoop=1;jettySize=auto;html=1;" parent="1" source="1r9pgMrBuNeyQkIJNcmF-113" target="1r9pgMrBuNeyQkIJNcmF-115" edge="1">
          <mxGeometry relative="1" as="geometry" />
        </mxCell>
        <mxCell id="1r9pgMrBuNeyQkIJNcmF-113" value="Registrar&amp;nbsp;&lt;br&gt;EUSCO&lt;br&gt;(AS-400)" style="rounded=1;whiteSpace=wrap;html=1;fontSize=12;glass=0;strokeWidth=1;shadow=0;" parent="1" vertex="1">
          <mxGeometry x="800.25" y="1880" width="120" height="50" as="geometry" />
        </mxCell>
        <mxCell id="1r9pgMrBuNeyQkIJNcmF-114" value="" style="edgeStyle=orthogonalEdgeStyle;rounded=0;orthogonalLoop=1;jettySize=auto;html=1;" parent="1" source="1r9pgMrBuNeyQkIJNcmF-115" target="1r9pgMrBuNeyQkIJNcmF-117" edge="1">
          <mxGeometry relative="1" as="geometry" />
        </mxCell>
        <mxCell id="1r9pgMrBuNeyQkIJNcmF-115" value="Registrar&amp;nbsp;&lt;br&gt;EUSSERLOG&lt;br&gt;(AS-400)" style="rounded=1;whiteSpace=wrap;html=1;fontSize=12;glass=0;strokeWidth=1;shadow=0;" parent="1" vertex="1">
          <mxGeometry x="1005" y="1880" width="120" height="50" as="geometry" />
        </mxCell>
        <mxCell id="1r9pgMrBuNeyQkIJNcmF-116" style="edgeStyle=orthogonalEdgeStyle;rounded=0;orthogonalLoop=1;jettySize=auto;html=1;" parent="1" source="1r9pgMrBuNeyQkIJNcmF-117" target="1r9pgMrBuNeyQkIJNcmF-119" edge="1">
          <mxGeometry relative="1" as="geometry" />
        </mxCell>
        <mxCell id="1r9pgMrBuNeyQkIJNcmF-117" value="Registrar&amp;nbsp;&lt;br&gt;MTOR&lt;br&gt;(AS-400)" style="rounded=1;whiteSpace=wrap;html=1;fontSize=12;glass=0;strokeWidth=1;shadow=0;" parent="1" vertex="1">
          <mxGeometry x="1005" y="1980" width="120" height="50" as="geometry" />
        </mxCell>
        <mxCell id="1r9pgMrBuNeyQkIJNcmF-118" style="edgeStyle=orthogonalEdgeStyle;rounded=0;orthogonalLoop=1;jettySize=auto;html=1;" parent="1" source="1r9pgMrBuNeyQkIJNcmF-119" target="1r9pgMrBuNeyQkIJNcmF-121" edge="1">
          <mxGeometry relative="1" as="geometry" />
        </mxCell>
        <mxCell id="1r9pgMrBuNeyQkIJNcmF-119" value="Registrar&lt;br&gt;BIFNET_TUSU&lt;br style=&quot;border-color: var(--border-color);&quot;&gt;(MSSQL)" style="rounded=1;whiteSpace=wrap;html=1;fontSize=12;glass=0;strokeWidth=1;shadow=0;" parent="1" vertex="1">
          <mxGeometry x="1005" y="2070" width="120" height="60" as="geometry" />
        </mxCell>
        <mxCell id="1r9pgMrBuNeyQkIJNcmF-120" style="edgeStyle=orthogonalEdgeStyle;rounded=0;orthogonalLoop=1;jettySize=auto;html=1;" parent="1" source="1r9pgMrBuNeyQkIJNcmF-121" target="1r9pgMrBuNeyQkIJNcmF-123" edge="1">
          <mxGeometry relative="1" as="geometry" />
        </mxCell>
        <mxCell id="1r9pgMrBuNeyQkIJNcmF-121" value="Registrar&lt;br&gt;BIFNET_REGUSU&lt;br style=&quot;border-color: var(--border-color);&quot;&gt;(MSSQL)" style="rounded=1;whiteSpace=wrap;html=1;fontSize=12;glass=0;strokeWidth=1;shadow=0;" parent="1" vertex="1">
          <mxGeometry x="1005" y="2170" width="120" height="60" as="geometry" />
        </mxCell>
        <mxCell id="1r9pgMrBuNeyQkIJNcmF-122" value="" style="edgeStyle=orthogonalEdgeStyle;rounded=0;orthogonalLoop=1;jettySize=auto;html=1;" parent="1" source="1r9pgMrBuNeyQkIJNcmF-123" target="1r9pgMrBuNeyQkIJNcmF-125" edge="1">
          <mxGeometry relative="1" as="geometry" />
        </mxCell>
        <mxCell id="1r9pgMrBuNeyQkIJNcmF-123" value="Registrar&lt;br&gt;BIFNET_REGUSU&lt;br style=&quot;border-color: var(--border-color);&quot;&gt;(MSSQL)" style="rounded=1;whiteSpace=wrap;html=1;fontSize=12;glass=0;strokeWidth=1;shadow=0;" parent="1" vertex="1">
          <mxGeometry x="1005" y="2270" width="120" height="60" as="geometry" />
        </mxCell>
        <mxCell id="1r9pgMrBuNeyQkIJNcmF-124" value="" style="edgeStyle=orthogonalEdgeStyle;rounded=0;orthogonalLoop=1;jettySize=auto;html=1;" parent="1" source="1r9pgMrBuNeyQkIJNcmF-125" target="1r9pgMrBuNeyQkIJNcmF-127" edge="1">
          <mxGeometry relative="1" as="geometry" />
        </mxCell>
        <mxCell id="1r9pgMrBuNeyQkIJNcmF-125" value="Generar Clave&amp;nbsp;&lt;br&gt;temporal" style="rounded=1;whiteSpace=wrap;html=1;fontSize=12;glass=0;strokeWidth=1;shadow=0;" parent="1" vertex="1">
          <mxGeometry x="1005" y="2380" width="120" height="60" as="geometry" />
        </mxCell>
        <mxCell id="1r9pgMrBuNeyQkIJNcmF-126" value="" style="edgeStyle=orthogonalEdgeStyle;rounded=0;orthogonalLoop=1;jettySize=auto;html=1;" parent="1" source="1r9pgMrBuNeyQkIJNcmF-127" target="1r9pgMrBuNeyQkIJNcmF-129" edge="1">
          <mxGeometry relative="1" as="geometry" />
        </mxCell>
        <mxCell id="1r9pgMrBuNeyQkIJNcmF-127" value="Registrar&lt;br style=&quot;border-color: var(--border-color);&quot;&gt;USRPROFILE&lt;br style=&quot;border-color: var(--border-color);&quot;&gt;(MSSQL)" style="rounded=1;whiteSpace=wrap;html=1;fontSize=12;glass=0;strokeWidth=1;shadow=0;" parent="1" vertex="1">
          <mxGeometry x="1005" y="2490" width="120" height="60" as="geometry" />
        </mxCell>
        <mxCell id="1r9pgMrBuNeyQkIJNcmF-128" value="" style="edgeStyle=orthogonalEdgeStyle;rounded=0;orthogonalLoop=1;jettySize=auto;html=1;" parent="1" source="1r9pgMrBuNeyQkIJNcmF-129" target="1r9pgMrBuNeyQkIJNcmF-131" edge="1">
          <mxGeometry relative="1" as="geometry" />
        </mxCell>
        <mxCell id="1r9pgMrBuNeyQkIJNcmF-129" value="Enviar correo por&amp;nbsp;&lt;br&gt;Registro Usuario&lt;br&gt;(Smtp-Banbif)" style="rounded=1;whiteSpace=wrap;html=1;fontSize=12;glass=0;strokeWidth=1;shadow=0;" parent="1" vertex="1">
          <mxGeometry x="1005" y="2600" width="120" height="60" as="geometry" />
        </mxCell>
        <mxCell id="1r9pgMrBuNeyQkIJNcmF-130" value="" style="edgeStyle=orthogonalEdgeStyle;rounded=0;orthogonalLoop=1;jettySize=auto;html=1;" parent="1" source="1r9pgMrBuNeyQkIJNcmF-131" target="1r9pgMrBuNeyQkIJNcmF-132" edge="1">
          <mxGeometry relative="1" as="geometry" />
        </mxCell>
        <mxCell id="1r9pgMrBuNeyQkIJNcmF-131" value="Registrar&lt;br style=&quot;border-color: var(--border-color);&quot;&gt;Entity-Token&lt;br style=&quot;border-color: var(--border-color);&quot;&gt;(MSSQL)" style="rounded=1;whiteSpace=wrap;html=1;fontSize=12;glass=0;strokeWidth=1;shadow=0;" parent="1" vertex="1">
          <mxGeometry x="1005" y="2710" width="120" height="60" as="geometry" />
        </mxCell>
        <mxCell id="1r9pgMrBuNeyQkIJNcmF-132" value="Ejecutar Programa&lt;br&gt;ESS1007RI.PGM&lt;br&gt;(AS-400)" style="rounded=1;whiteSpace=wrap;html=1;fontSize=12;glass=0;strokeWidth=1;shadow=0;" parent="1" vertex="1">
          <mxGeometry x="1005" y="2820" width="120" height="60" as="geometry" />
        </mxCell>
        <mxCell id="7bofzL0aEkGTmmEdbWm9-2" value="" style="group" parent="1" vertex="1" connectable="0">
          <mxGeometry x="570" y="210" width="67.20000000000005" height="76" as="geometry" />
        </mxCell>
        <mxCell id="1r9pgMrBuNeyQkIJNcmF-3" value="&lt;h6&gt;&lt;font style=&quot;font-size: 6px;&quot;&gt;&lt;font style=&quot;&quot;&gt;Consulta por:&lt;/font&gt;&lt;/font&gt;&lt;br&gt;&lt;/h6&gt;&lt;p&gt;&lt;/p&gt;" style="strokeWidth=1;shadow=0;dashed=0;align=center;html=1;shape=mxgraph.mockup.text.stickyNote2;fontColor=#666666;mainText=;fontSize=17;whiteSpace=wrap;fillColor=#ffffcc;strokeColor=#F62E00;" parent="7bofzL0aEkGTmmEdbWm9-2" vertex="1">
          <mxGeometry width="66" height="40" as="geometry" />
        </mxCell>
        <mxCell id="1r9pgMrBuNeyQkIJNcmF-41" value="" style="shape=image;verticalLabelPosition=bottom;labelBackgroundColor=default;verticalAlign=top;aspect=fixed;imageAspect=0;image=data:image/png,iVBORw0KGgoAAAANSUhEUgAAAHAAAAA8CAYAAAC+ej5cAAAM9klEQVR4Ae1cbVMUxxbev+G/EyGkKt9SqYgIhsofEIMQyqqb3LySiBgERaPRJOu6rICuilEREREU3yHggiug59Zzus/M6Z7ZFXDxruVQ1c5s9+nz8jx9unvH3kndvXuXkvL+YpBKyHt/yQN3AYE0doRe3+hNSpVjAJ500qWmpqYIhcl7/ZpelymvXr2ipGwtBuXw57YbvcyX8BYQ+Op67xvJWVtbo6RsLQZvTJDrHoF37twhFBAYJecCdXz0EX1kS13nCK2urtoyQh11dVQnpbmfZqRtpCOst+0dI6qfll319NR10IjoWV2lkU5lo24P9c+IHu860097xJe6OtrTN2P8RL3jt+k307eHjE8z1N+sbZh7buM4ov50jMT3qUNcnh8GH1eHYPj777/Ts2fPFKbGN9SdOnUqho815kk4wzUlH9au/+YpGqF2BmyFVlZMGf4awEzTysowtdfVUftw2Dbdt4cQwDRkh9utnLRDHuDj8zC1ixzrkXorO9we6IG9uq+HA/srDI4nD3tc307D1s+VlWkmhf1Dm9ZhZeCv8R+yuq/4bONo3uP4AJ903JFYS9gTDOV6+vRpHuS7d++mJ0+eBDHiHnUg/s8///Q4WSXwJJwFBE5OTtLqtcOBkpcvX9LLoXZqPnKXcF8sFt0ytJ+ae6fcumKRhjpqaf9QkYox7VO9zbbPEO1vOkJTxSKFdZ5+thfKOfaH9lNtx5BjG3rYru8nPt89Qs2ePPSFfaboSNN+Gorra+MI4tIxirwfawl7TgzFIpO2c+dOqq2tpcbGRv4M8nAvdU+fPmX8wYEQD57Al5CYwofbt2/Ty6s9Dll3epto//kX9OLFC1peXnbK5G9N1JZz6yAT1OfaqOm3SafPclCXo7bdvTS5vEy59lqlJ0dttbXsfG1tG+Xu9FJTe87VAT9i6nPtTdR7J+oP+x0j7/i6PEm9u8WuXNsoB1vaZ/gU8VnLWPuwF8Rh9cXFsbxMs7Oz1NDQwDGDTCEUdY8ePWLsgb+Qz4l1tYf5Am8oKZA3MTFBxdFDLIgOTNrgV7T7sCFhaWmJTBmkbLZAhew+auyZoEKh4JRs2w7aV6J9oqfR9snSvl2HaaJQoLBO65mgw7v2UbYQyjl2svtoR1vWsQs9bFf7cztL2dsFKtw+TI2ePPSFfcSe9sHe6zit3SBGsaVlUFfCnhOD9C0U6N69e/T555/Tjh07uIBE1OmkEU6YyNFDzBd4Q0ndunWLUF5c6Q46gawCAKxppJ6J5/T8+XNaXFykzFc1VPNVhhYXM9RaU0OtmUWuR9v4oV1U09BD44uLtJhppV2HxoM2I7+Lem5BPkOtIsd6pN7qutVDu2paKePY022ePOypPvBlcXGcehpqjA9oY5+tDm43/hr/IWvsmb5KzouD4/fijsRawl5Et/UD9dPT0/Tpp5/SZ599xvfAG0VIBx9CKHgSzpB4qfHxcbp58yYtXT7IWYZOQtjCQoZat2+n7VJa0zQ/P29LmvZKPa47u2lM2tJ7wz4s00DdN1U/LTvv6dm+l9KiZ36e0q3K/natR/TZ681ualD+NBwcM3569Yhlb3qexg428HV+foy6d2ob5p77p/dSoId9Mr6if4CDLxNjb3s5v22sIAPr2r///stlYWGBUECwkMmz4OWDzBd4A5EpkDc2NkaFS7+yIDpBiTg4NzfHW11sbbGoJmVrMQDOKMBdOAAf4IWJvPQr8wXeQGIK5F2/fp0WL/7CxAlhQhR2Ro8fP+aChRXl4cOHSakwBoKtYA3chQMhlIm88AvzBd5AYgrk/fPPPzQ/8jM9G/qJnuR+oMeD39PD7Hf04Nx3NJv5L90/+y2Xe+lv6V76G5pJSsUxAK7AV7AG7sAfPDwa/J4e536gp+d/pLnhn+jq1at07do1zsQUblCBBRS7IdnOJlezra8mHMAPeLp8+TKNjo4yiSlk35UrV5g8Sv6qHgGQeOHCBbp06RInXgpM4gNGWvJX/QiAp/PnzwckppB9Fy9eLE1gvpPqvxigWR1bvpNajjk1lD9QT535WRr4op7q670i/R8MUItuO5DXWolgq0Q79Dtt9fXGB9bZQgMPQlWzx1qsf3H+uLJERqbTcSWmn8RgzcCG9sftH/pS6TsQePjkD9R/pouOn+2mFOZTpGR8BiKQFuo80EKOgyUJVO76MjFAMylCYsxAQbsMlPwBH3hrC3q/aKEWBbBLYCc53MCO2IQK/txJnaq/IdXtx4TZfnzvyOepsx4DWMW/RbfgCbtPfGe8f/8+pTB9Dg8PxxMIcOC0XMUpnxzgwBkoAgYYAR+1CDoaoBkgAw/kqvp7t2UJPJBn/WJvIwSKXrkas/DHJZAIJKEuro0MRg6pXgAV+ggCsfHEYzQ8ckvl8/mSBGpSnAA3QaDTXwVj6gUc26CnUjvqOVv19FpvMzIYXOEgcAn0p15FDGevXR4CPfAhjiSpy3vZKsGUqpf2ylxBIPYt+BKPR3AprH9YFKNTqJkW9DwvIxzTTnBv/dJkc5Uns6kMVKCWGgDO7GAJyTtrYEiY7yN80vHVc4bBeyFLgy6DLK7t3WYglj18kcexipIEhqNYgpAArLNBsGhXbYG4RzLAlayxMpxVsh7FrIEMcJCBZdZA0WGnapBiBpgPNj6LnqjPYcx+P7MEyNrJfjnTJXS9uzUQs+aNGzcMgdjA5HI5LwN1oMKICUIyj4NQU1pkffMykLUwiWpKU8Bzu546oVu1R6dQ266y1HgK30sRqAYfb178XYeQanQ42al8gZ03xm+cqfi/mClBIJ6g8f/IxxNYcbuJwgohAAKx7DkEDg4OehlYIWuJmoojIARiJxpkYEJgxXHeMoUJgVsG7btRXJbAbR+PUlKqG4OEwPd8kG6QwDka1zPDgzknQ7vUA2SiNcp029Hb/ZwWdD8iWhibDfp2PVCyH89SZkkL67ZR2ubr8nzQM4brT5G6LFmuPcmwORpfek5fQsa3we6Y/qzTsQlM0OZhIyFAtow+7e9m7jdAIBx0wUQwQkQkMHbayuPeCdqQNJ414IWAuvUcEOux4GudARn4LucOJPTTvrGebJHIEhTaE/Jw9QiM0Wn0rtHCEpH4zv2YwFDXl2Nrqt0OiBL62Le3mAVA4PeHvqZf+v9Dvad+pBS+B8ou1FGeLQZkOfVsXAWvnQFocDxC4ChtkzYG2xKt6qI2RikCDNsC6e7AcsjQ/tj7tyUw0y1ZZ4n/PxM4MDBAOJp/7ty50gTGg2dHXRxBAEvq5arBVHUCKGxIRm9zplJDkMj55EbqlW5fFp8j8uyXGoToL1OgXG0GBX2DwabJNHhEsCqjL86/jdQhA9dFIDImBFemiznq4mlQBa9JkiDjAJU2Daiq00EIaBFg2Nb6M7Ara6Za0adtOFkb56+NS/fFND2eXSeBWziFro9AXqTdqUqve/qegeFRZ+UjgLhrXQiKW28AVmuv1hkAuoE10E51oT0ZiLiqQRjxN5Rz+8I3/IUbJPgcGWhl9LmDKLSz3vr1ZyADJg7becUbVUyiTDl6w8PABw18E24C/CnNkBhKu4MmsqPzfNCBu/6EILv1ZDc3HoGhA/auxDSOWWM9BJbQp/3dzP0GCdz4CNmMU0mf9eOcEGin4vd10CQEJgSuP93f11FezX5HMnAgfZCOnP45+f/AyKajOitAYMknMdXpcuKVRiCSgfpRmhbk017qzAufDwkO8kQP/bB80O6fGZGDRI6F5MMmEIglMHqoyR7+8Q7yhMfyyhPIB350Xz7MFB7v24TfSReLgBB45swZ8yx0IN1NfWe6omtg5LSXPn1djsCYtgT+iiHAa2BPJ/169BvzvxElD/b6RwCdY34xJEGep9B3c0K5Yoi8Z4pA4PHjx/klQNlstvTBXufEc+TgbjkCY9pwjjKPXxUkf2+LAAg8ceJESCAOiQ4NDb15Cg0yzLiA9VAO+aIG6558jl8Dk43M25KH/kLgX3/9xf+PW/rXSTFroEuMOU4enF5WO1AhNGjzjtRXIpAPVQcIxEvyQCA2n0zgyMhINAM/VISqPG4QePLkSfr7778NgeV/4Fnl0XyA7oFAvIoynU7zr8re/BPrDxCkag5ZCDx79izvXfglB/gqgddXJH/VjwB4woGmTCbDP8zl14xgGv3kk0+YRDCclOrEAOSBJ2xg8B0Qj0EDApGF2NUgNfGYBgslvm8cO3aMjh49Sv39/UHp6+ujpFQWA40v8EYB9jjAhC/u4AJrH97ii/UPXIEzftWWvCsGu1GcEQWJEESqohPIRMH2NSlbi4FgjSuw/+OPP5gHJBV2nuAGHIErzJz8sjv81kxIxBsr8Jt5HBqFMNhGRxSkblK2FgPBGrijgAOsd+ADxIEbkIcHMHhFGr9uEr+31iQiNSGEJzTogIKUTcq7wUAwB/4oSCrwgTUPxCHzkHD4le7/AH8y/MPoKa6WAAAAAElFTkSuQmCC;" parent="7bofzL0aEkGTmmEdbWm9-2" vertex="1">
          <mxGeometry y="40" width="67.2" height="36" as="geometry" />
        </mxCell>
        <mxCell id="7bofzL0aEkGTmmEdbWm9-8" style="edgeStyle=orthogonalEdgeStyle;rounded=0;orthogonalLoop=1;jettySize=auto;html=1;entryX=0;entryY=0.25;entryDx=0;entryDy=0;exitX=1;exitY=0.25;exitDx=0;exitDy=0;" parent="1" source="7bofzL0aEkGTmmEdbWm9-5" target="7bofzL0aEkGTmmEdbWm9-1" edge="1">
          <mxGeometry relative="1" as="geometry" />
        </mxCell>
        <mxCell id="7bofzL0aEkGTmmEdbWm9-10" style="edgeStyle=orthogonalEdgeStyle;rounded=0;orthogonalLoop=1;jettySize=auto;html=1;" parent="1" source="7bofzL0aEkGTmmEdbWm9-5" target="7bofzL0aEkGTmmEdbWm9-9" edge="1">
          <mxGeometry relative="1" as="geometry" />
        </mxCell>
        <mxCell id="7bofzL0aEkGTmmEdbWm9-5" value="API&amp;nbsp;&lt;div&gt;Consultar Cliente&amp;nbsp;&lt;/div&gt;" style="rounded=1;whiteSpace=wrap;html=1;fontSize=12;glass=0;strokeWidth=1;shadow=0;" parent="1" vertex="1">
          <mxGeometry x="484" y="290" width="120" height="40" as="geometry" />
        </mxCell>
        <mxCell id="7bofzL0aEkGTmmEdbWm9-7" value="" style="group" parent="1" vertex="1" connectable="0">
          <mxGeometry x="756" y="190" width="800" height="310" as="geometry" />
        </mxCell>
        <mxCell id="7bofzL0aEkGTmmEdbWm9-1" value="" style="rounded=0;whiteSpace=wrap;html=1;fillColor=#d5e8d4;strokeColor=#82b366;" parent="7bofzL0aEkGTmmEdbWm9-7" vertex="1">
          <mxGeometry width="800" height="310" as="geometry" />
        </mxCell>
        <mxCell id="1r9pgMrBuNeyQkIJNcmF-4" value="" style="edgeStyle=orthogonalEdgeStyle;rounded=0;orthogonalLoop=1;jettySize=auto;html=1;" parent="7bofzL0aEkGTmmEdbWm9-7" source="1r9pgMrBuNeyQkIJNcmF-5" target="1r9pgMrBuNeyQkIJNcmF-21" edge="1">
          <mxGeometry relative="1" as="geometry" />
        </mxCell>
        <mxCell id="1r9pgMrBuNeyQkIJNcmF-5" value="API&lt;div&gt;Consulta Cliente&lt;br&gt;(AS-400)&lt;/div&gt;" style="rounded=1;whiteSpace=wrap;html=1;fontSize=12;glass=0;strokeWidth=1;shadow=0;" parent="7bofzL0aEkGTmmEdbWm9-7" vertex="1">
          <mxGeometry x="50" y="30" width="120" height="50" as="geometry" />
        </mxCell>
        <mxCell id="1r9pgMrBuNeyQkIJNcmF-7" value="Enviar repuesta&lt;div&gt;validación&lt;/div&gt;" style="rounded=1;whiteSpace=wrap;html=1;fontSize=12;glass=0;strokeWidth=1;shadow=0;" parent="7bofzL0aEkGTmmEdbWm9-7" vertex="1">
          <mxGeometry x="40" y="140" width="120" height="40" as="geometry" />
        </mxCell>
        <mxCell id="1r9pgMrBuNeyQkIJNcmF-8" style="edgeStyle=orthogonalEdgeStyle;rounded=0;orthogonalLoop=1;jettySize=auto;html=1;entryX=0;entryY=0.5;entryDx=0;entryDy=0;" parent="7bofzL0aEkGTmmEdbWm9-7" source="1r9pgMrBuNeyQkIJNcmF-21" target="1r9pgMrBuNeyQkIJNcmF-11" edge="1">
          <mxGeometry relative="1" as="geometry" />
        </mxCell>
        <mxCell id="1r9pgMrBuNeyQkIJNcmF-9" style="edgeStyle=orthogonalEdgeStyle;rounded=0;orthogonalLoop=1;jettySize=auto;html=1;exitX=1;exitY=0.5;exitDx=0;exitDy=0;" parent="7bofzL0aEkGTmmEdbWm9-7" source="1r9pgMrBuNeyQkIJNcmF-32" target="1r9pgMrBuNeyQkIJNcmF-14" edge="1">
          <mxGeometry relative="1" as="geometry" />
        </mxCell>
        <mxCell id="7bofzL0aEkGTmmEdbWm9-3" style="edgeStyle=orthogonalEdgeStyle;rounded=0;orthogonalLoop=1;jettySize=auto;html=1;" parent="7bofzL0aEkGTmmEdbWm9-7" source="1r9pgMrBuNeyQkIJNcmF-11" target="1r9pgMrBuNeyQkIJNcmF-32" edge="1">
          <mxGeometry relative="1" as="geometry" />
        </mxCell>
        <mxCell id="1r9pgMrBuNeyQkIJNcmF-11" value="API&lt;br&gt;Cuentas de Cliente&lt;br&gt;(AS-400)" style="rounded=1;whiteSpace=wrap;html=1;fontSize=12;glass=0;strokeWidth=1;shadow=0;" parent="7bofzL0aEkGTmmEdbWm9-7" vertex="1">
          <mxGeometry x="330" y="30" width="120" height="50" as="geometry" />
        </mxCell>
        <mxCell id="1r9pgMrBuNeyQkIJNcmF-12" style="edgeStyle=orthogonalEdgeStyle;rounded=0;orthogonalLoop=1;jettySize=auto;html=1;" parent="7bofzL0aEkGTmmEdbWm9-7" source="1r9pgMrBuNeyQkIJNcmF-35" target="1r9pgMrBuNeyQkIJNcmF-16" edge="1">
          <mxGeometry relative="1" as="geometry" />
        </mxCell>
        <mxCell id="1r9pgMrBuNeyQkIJNcmF-13" style="edgeStyle=orthogonalEdgeStyle;rounded=0;orthogonalLoop=1;jettySize=auto;html=1;" parent="7bofzL0aEkGTmmEdbWm9-7" source="1r9pgMrBuNeyQkIJNcmF-14" target="1r9pgMrBuNeyQkIJNcmF-35" edge="1">
          <mxGeometry relative="1" as="geometry" />
        </mxCell>
        <mxCell id="1r9pgMrBuNeyQkIJNcmF-14" value="API&lt;br style=&quot;border-color: var(--border-color);&quot;&gt;Funcionario&lt;br style=&quot;border-color: var(--border-color);&quot;&gt;(AS-400)" style="rounded=1;whiteSpace=wrap;html=1;fontSize=12;glass=0;strokeWidth=1;shadow=0;" parent="7bofzL0aEkGTmmEdbWm9-7" vertex="1">
          <mxGeometry x="640" y="30" width="120" height="50" as="geometry" />
        </mxCell>
        <mxCell id="1r9pgMrBuNeyQkIJNcmF-15" style="edgeStyle=orthogonalEdgeStyle;rounded=0;orthogonalLoop=1;jettySize=auto;html=1;" parent="7bofzL0aEkGTmmEdbWm9-7" source="1r9pgMrBuNeyQkIJNcmF-16" target="1r9pgMrBuNeyQkIJNcmF-40" edge="1">
          <mxGeometry relative="1" as="geometry" />
        </mxCell>
        <mxCell id="1r9pgMrBuNeyQkIJNcmF-16" value="API Obtener&lt;br style=&quot;border-color: var(--border-color);&quot;&gt;Agencia&lt;br style=&quot;border-color: var(--border-color);&quot;&gt;(AS-400)" style="rounded=1;whiteSpace=wrap;html=1;fontSize=12;glass=0;strokeWidth=1;shadow=0;" parent="7bofzL0aEkGTmmEdbWm9-7" vertex="1">
          <mxGeometry x="640" y="230" width="120" height="50" as="geometry" />
        </mxCell>
        <mxCell id="1r9pgMrBuNeyQkIJNcmF-17" value="" style="edgeStyle=orthogonalEdgeStyle;rounded=0;orthogonalLoop=1;jettySize=auto;html=1;" parent="7bofzL0aEkGTmmEdbWm9-7" source="1r9pgMrBuNeyQkIJNcmF-18" target="7bofzL0aEkGTmmEdbWm9-17" edge="1">
          <mxGeometry relative="1" as="geometry">
            <mxPoint x="270" y="255" as="targetPoint" />
          </mxGeometry>
        </mxCell>
        <mxCell id="1r9pgMrBuNeyQkIJNcmF-18" value="API Obtener&lt;br style=&quot;border-color: var(--border-color);&quot;&gt;Entidades&lt;br style=&quot;border-color: var(--border-color);&quot;&gt;(AS-400)" style="rounded=1;whiteSpace=wrap;html=1;fontSize=12;glass=0;strokeWidth=1;shadow=0;" parent="7bofzL0aEkGTmmEdbWm9-7" vertex="1">
          <mxGeometry x="330" y="230" width="120" height="50" as="geometry" />
        </mxCell>
        <mxCell id="1r9pgMrBuNeyQkIJNcmF-19" style="edgeStyle=orthogonalEdgeStyle;rounded=0;orthogonalLoop=1;jettySize=auto;html=1;exitX=0.5;exitY=1;exitDx=0;exitDy=0;entryX=1;entryY=0.5;entryDx=0;entryDy=0;" parent="7bofzL0aEkGTmmEdbWm9-7" source="1r9pgMrBuNeyQkIJNcmF-21" target="1r9pgMrBuNeyQkIJNcmF-7" edge="1">
          <mxGeometry relative="1" as="geometry" />
        </mxCell>
        <mxCell id="7bofzL0aEkGTmmEdbWm9-4" value="No" style="edgeLabel;html=1;align=center;verticalAlign=middle;resizable=0;points=[];" parent="1r9pgMrBuNeyQkIJNcmF-19" vertex="1" connectable="0">
          <mxGeometry x="-0.7429" relative="1" as="geometry">
            <mxPoint as="offset" />
          </mxGeometry>
        </mxCell>
        <mxCell id="1r9pgMrBuNeyQkIJNcmF-21" value="Existe&amp;nbsp;&lt;br&gt;Cliente&lt;br&gt;IBS?" style="rhombus;whiteSpace=wrap;html=1;rounded=1;glass=0;strokeWidth=1;shadow=0;" parent="7bofzL0aEkGTmmEdbWm9-7" vertex="1">
          <mxGeometry x="220" y="15" width="80" height="80" as="geometry" />
        </mxCell>
        <mxCell id="1r9pgMrBuNeyQkIJNcmF-30" style="edgeStyle=orthogonalEdgeStyle;rounded=0;orthogonalLoop=1;jettySize=auto;html=1;entryX=1;entryY=0.5;entryDx=0;entryDy=0;exitX=0.5;exitY=1;exitDx=0;exitDy=0;" parent="7bofzL0aEkGTmmEdbWm9-7" source="1r9pgMrBuNeyQkIJNcmF-32" target="1r9pgMrBuNeyQkIJNcmF-7" edge="1">
          <mxGeometry relative="1" as="geometry" />
        </mxCell>
        <mxCell id="1r9pgMrBuNeyQkIJNcmF-31" value="No" style="edgeLabel;html=1;align=center;verticalAlign=middle;resizable=0;points=[];" parent="1r9pgMrBuNeyQkIJNcmF-30" vertex="1" connectable="0">
          <mxGeometry x="-0.2868" y="1" relative="1" as="geometry">
            <mxPoint x="94" y="-48" as="offset" />
          </mxGeometry>
        </mxCell>
        <mxCell id="1r9pgMrBuNeyQkIJNcmF-32" value="Tiene&lt;br&gt;Cuentas?" style="rhombus;whiteSpace=wrap;html=1;rounded=1;glass=0;strokeWidth=1;shadow=0;" parent="7bofzL0aEkGTmmEdbWm9-7" vertex="1">
          <mxGeometry x="500" y="15" width="80" height="80" as="geometry" />
        </mxCell>
        <mxCell id="1r9pgMrBuNeyQkIJNcmF-33" style="edgeStyle=orthogonalEdgeStyle;rounded=0;orthogonalLoop=1;jettySize=auto;html=1;" parent="7bofzL0aEkGTmmEdbWm9-7" source="1r9pgMrBuNeyQkIJNcmF-35" target="1r9pgMrBuNeyQkIJNcmF-7" edge="1">
          <mxGeometry relative="1" as="geometry" />
        </mxCell>
        <mxCell id="1r9pgMrBuNeyQkIJNcmF-34" value="No" style="edgeLabel;html=1;align=center;verticalAlign=middle;resizable=0;points=[];" parent="1r9pgMrBuNeyQkIJNcmF-33" vertex="1" connectable="0">
          <mxGeometry x="-0.7742" y="-1" relative="1" as="geometry">
            <mxPoint as="offset" />
          </mxGeometry>
        </mxCell>
        <mxCell id="1r9pgMrBuNeyQkIJNcmF-35" value="Tiene&lt;br&gt;Funcionario?" style="rhombus;whiteSpace=wrap;html=1;rounded=1;glass=0;strokeWidth=1;shadow=0;" parent="7bofzL0aEkGTmmEdbWm9-7" vertex="1">
          <mxGeometry x="660" y="120" width="80" height="80" as="geometry" />
        </mxCell>
        <mxCell id="1r9pgMrBuNeyQkIJNcmF-36" style="edgeStyle=orthogonalEdgeStyle;rounded=0;orthogonalLoop=1;jettySize=auto;html=1;entryX=1;entryY=0.5;entryDx=0;entryDy=0;exitX=0.5;exitY=0;exitDx=0;exitDy=0;" parent="7bofzL0aEkGTmmEdbWm9-7" source="1r9pgMrBuNeyQkIJNcmF-40" target="1r9pgMrBuNeyQkIJNcmF-7" edge="1">
          <mxGeometry relative="1" as="geometry" />
        </mxCell>
        <mxCell id="1r9pgMrBuNeyQkIJNcmF-37" value="No" style="edgeLabel;html=1;align=center;verticalAlign=middle;resizable=0;points=[];" parent="1r9pgMrBuNeyQkIJNcmF-36" vertex="1" connectable="0">
          <mxGeometry x="-0.8829" y="-1" relative="1" as="geometry">
            <mxPoint x="-1" as="offset" />
          </mxGeometry>
        </mxCell>
        <mxCell id="1r9pgMrBuNeyQkIJNcmF-38" style="edgeStyle=orthogonalEdgeStyle;rounded=0;orthogonalLoop=1;jettySize=auto;html=1;" parent="7bofzL0aEkGTmmEdbWm9-7" source="1r9pgMrBuNeyQkIJNcmF-40" target="1r9pgMrBuNeyQkIJNcmF-18" edge="1">
          <mxGeometry relative="1" as="geometry" />
        </mxCell>
        <mxCell id="1r9pgMrBuNeyQkIJNcmF-39" value="Si" style="edgeLabel;html=1;align=center;verticalAlign=middle;resizable=0;points=[];" parent="1r9pgMrBuNeyQkIJNcmF-38" vertex="1" connectable="0">
          <mxGeometry x="-0.3246" y="-2" relative="1" as="geometry">
            <mxPoint y="-2" as="offset" />
          </mxGeometry>
        </mxCell>
        <mxCell id="1r9pgMrBuNeyQkIJNcmF-40" value="Existe&lt;br&gt;Agencia?" style="rhombus;whiteSpace=wrap;html=1;rounded=1;glass=0;strokeWidth=1;shadow=0;" parent="7bofzL0aEkGTmmEdbWm9-7" vertex="1">
          <mxGeometry x="500" y="215" width="80" height="80" as="geometry" />
        </mxCell>
        <mxCell id="7bofzL0aEkGTmmEdbWm9-18" style="edgeStyle=orthogonalEdgeStyle;rounded=0;orthogonalLoop=1;jettySize=auto;html=1;entryX=1;entryY=0.5;entryDx=0;entryDy=0;exitX=0.5;exitY=0;exitDx=0;exitDy=0;" parent="7bofzL0aEkGTmmEdbWm9-7" source="7bofzL0aEkGTmmEdbWm9-17" target="1r9pgMrBuNeyQkIJNcmF-7" edge="1">
          <mxGeometry relative="1" as="geometry" />
        </mxCell>
        <mxCell id="7bofzL0aEkGTmmEdbWm9-19" value="Si / No" style="edgeLabel;html=1;align=center;verticalAlign=middle;resizable=0;points=[];" parent="7bofzL0aEkGTmmEdbWm9-18" vertex="1" connectable="0">
          <mxGeometry x="-0.5919" y="-1" relative="1" as="geometry">
            <mxPoint as="offset" />
          </mxGeometry>
        </mxCell>
        <mxCell id="7bofzL0aEkGTmmEdbWm9-17" value="Tiene&amp;nbsp;&lt;div&gt;Entidad&lt;div&gt;Activa?&lt;/div&gt;&lt;/div&gt;" style="rhombus;whiteSpace=wrap;html=1;rounded=1;glass=0;strokeWidth=1;shadow=0;" parent="7bofzL0aEkGTmmEdbWm9-7" vertex="1">
          <mxGeometry x="220" y="215" width="80" height="80" as="geometry" />
        </mxCell>
        <mxCell id="7bofzL0aEkGTmmEdbWm9-12" style="edgeStyle=orthogonalEdgeStyle;rounded=0;orthogonalLoop=1;jettySize=auto;html=1;" parent="1" source="7bofzL0aEkGTmmEdbWm9-9" target="7bofzL0aEkGTmmEdbWm9-11" edge="1">
          <mxGeometry relative="1" as="geometry" />
        </mxCell>
        <mxCell id="7bofzL0aEkGTmmEdbWm9-14" style="edgeStyle=orthogonalEdgeStyle;rounded=0;orthogonalLoop=1;jettySize=auto;html=1;" parent="1" source="7bofzL0aEkGTmmEdbWm9-9" target="1r9pgMrBuNeyQkIJNcmF-46" edge="1">
          <mxGeometry relative="1" as="geometry" />
        </mxCell>
        <mxCell id="7bofzL0aEkGTmmEdbWm9-9" value="Hay&amp;nbsp;&lt;div&gt;errores&amp;nbsp;&lt;span style=&quot;background-color: initial;&quot;&gt;de&amp;nbsp;&lt;/span&gt;&lt;/div&gt;&lt;div&gt;validación?&lt;/div&gt;" style="rhombus;whiteSpace=wrap;html=1;rounded=1;glass=0;strokeWidth=1;shadow=0;" parent="1" vertex="1">
          <mxGeometry x="504" y="400" width="80" height="80" as="geometry" />
        </mxCell>
        <mxCell id="7bofzL0aEkGTmmEdbWm9-13" style="edgeStyle=orthogonalEdgeStyle;rounded=0;orthogonalLoop=1;jettySize=auto;html=1;" parent="1" source="7bofzL0aEkGTmmEdbWm9-11" target="1r9pgMrBuNeyQkIJNcmF-27" edge="1">
          <mxGeometry relative="1" as="geometry" />
        </mxCell>
        <mxCell id="7bofzL0aEkGTmmEdbWm9-11" value="Mostrar Error&lt;div&gt;al usuario&lt;/div&gt;" style="rounded=1;whiteSpace=wrap;html=1;fontSize=12;glass=0;strokeWidth=1;shadow=0;" parent="1" vertex="1">
          <mxGeometry x="300" y="420" width="120" height="40" as="geometry" />
        </mxCell>
        <mxCell id="7bofzL0aEkGTmmEdbWm9-15" style="edgeStyle=orthogonalEdgeStyle;rounded=0;orthogonalLoop=1;jettySize=auto;html=1;entryX=1;entryY=0.75;entryDx=0;entryDy=0;" parent="1" source="1r9pgMrBuNeyQkIJNcmF-7" target="7bofzL0aEkGTmmEdbWm9-5" edge="1">
          <mxGeometry relative="1" as="geometry">
            <Array as="points">
              <mxPoint x="680" y="350" />
              <mxPoint x="680" y="320" />
            </Array>
          </mxGeometry>
        </mxCell>
        <mxCell id="7bofzL0aEkGTmmEdbWm9-16" value="API Orquestador" style="shape=parallelogram;perimeter=parallelogramPerimeter;whiteSpace=wrap;html=1;fixedSize=1;fillColor=#d5e8d4;strokeColor=#82b366;" parent="1" vertex="1">
          <mxGeometry x="1521" y="140" width="120" height="60" as="geometry" />
        </mxCell>
      </root>
    </mxGraphModel>
  </diagram>
</mxfile>
